<svg width="50" height="50" viewBox="0 0 50 50" fill="none" xmlns="http://www.w3.org/2000/svg">
<g clip-path="url(#clip0_1115_12855)">
<path d="M46.8523 25.1818L40.8648 20.8306L33.8836 23.0993L31.0698 31.7593L35.3848 37.6993H42.5923C39.8923 41.3581 36.0948 44.1531 31.6698 45.5693L33.8686 38.8018L29.3936 32.6418H20.6086L16.1286 38.8081L18.3236 45.5656C13.9011 44.1481 10.1073 41.3556 7.40857 37.6993H14.6161L18.9373 31.7518L16.1273 23.1043L9.12857 20.8306L3.14857 25.1768C3.14607 25.0731 3.13857 24.9718 3.13357 24.8693C3.13357 24.9143 3.12732 24.9568 3.12732 25.0006C3.12732 37.0818 12.9211 46.8756 25.0023 46.8756C37.0836 46.8756 46.8773 37.0818 46.8773 25.0006C46.8773 24.9556 46.8711 24.9131 46.8711 24.8693C46.8648 24.9743 46.8573 25.0781 46.8548 25.1831L46.8523 25.1818Z" fill="#E5E8EB"/>
<path d="M16.3147 21.1916C16.3422 21.1679 16.3597 21.1379 16.3897 21.1166L24.0622 15.5391V8.36536L18.3022 4.17786C13.8985 5.59286 10.1197 8.37286 7.42725 12.0104L9.7135 19.0466L16.3147 21.1916Z" fill="#E5E8EB"/>
<path d="M25.937 15.5325L33.6183 21.1163C33.647 21.1363 33.6645 21.1663 33.6908 21.1888L40.2858 19.0463L42.572 12.0113C39.877 8.37252 36.097 5.59127 31.6908 4.17627L25.937 8.35877V15.5325Z" fill="#E5E8EB"/>
<path d="M46.875 24.7365C46.875 24.774 46.875 24.8239 46.8625 24.8614C46.8625 24.9739 46.85 25.074 46.85 25.1865L40.8625 20.8239L33.8875 23.0989L31.075 31.7614L35.3875 37.6989H42.5875C39.8875 41.3615 36.1 44.1489 31.675 45.5615L33.8625 38.799L29.3875 32.6364H20.6125L16.125 38.8114L18.325 45.5615C13.9 44.1489 10.1 41.3489 7.4125 37.6989H14.6125L18.9375 31.749L16.125 23.0989L9.125 20.8239L3.15 25.1739C3.15 25.0739 3.1375 24.9739 3.1375 24.8614C3.125 24.8239 3.125 24.7864 3.125 24.7365C3.125 19.899 4.7125 15.449 7.3625 11.8239L7.425 12.0114L9.7125 19.049L16.3125 21.1865C16.3375 21.174 16.3625 21.1364 16.3875 21.1115L24.0625 15.5365V8.36145L18.3 4.17395L18.0625 3.99895C20.25 3.27395 22.575 2.86145 25 2.86145C27.425 2.86145 29.75 3.27395 31.9375 3.99895L31.6875 4.17395L25.9375 8.36145V15.5365L33.625 21.1115C33.65 21.1364 33.6625 21.1615 33.6875 21.1865L40.2875 19.049L42.575 12.0114L42.6375 11.8239C45.2875 15.449 46.875 19.899 46.875 24.7365Z" fill="#313D4C"/>
</g>
<defs>
<clipPath id="clip0_1115_12855">
<rect width="50" height="50" fill="white"/>
</clipPath>
</defs>
</svg>
