<svg width="24" height="24" viewBox="0 0 24 24" fill="none" xmlns="http://www.w3.org/2000/svg">
<g id="Event">
<g id="Group 40051">
<g id="Group 2085665719">
<path id="Vector" d="M6.41797 5.71191L11.333 8.55045" stroke="none" stroke-width="1.4" stroke-linecap="round" stroke-linejoin="round"/>
<path id="Vector_2" d="M12.8711 4.00928L17.7861 6.84781" stroke="none" stroke-width="1.4" stroke-linecap="round" stroke-linejoin="round"/>
<path id="Star 2" d="M12.1133 13.7842C12.2586 13.5918 12.5477 13.5918 12.693 13.7842L13.5381 14.9032C13.5816 14.9607 13.6412 15.004 13.7093 15.0276L15.0347 15.4855C15.2626 15.5643 15.3519 15.8392 15.2138 16.0369L14.4108 17.1864C14.3695 17.2455 14.3467 17.3156 14.3454 17.3877L14.3194 18.7897C14.3149 19.0308 14.0811 19.2007 13.8504 19.1304L12.509 18.7219C12.44 18.7009 12.3663 18.7009 12.2973 18.7219L10.9559 19.1304C10.7252 19.2007 10.4914 19.0308 10.4869 18.7897L10.4609 17.3877C10.4596 17.3156 10.4368 17.2455 10.3955 17.1864L9.59248 16.0369C9.45437 15.8392 9.54369 15.5643 9.77162 15.4855L11.097 15.0276C11.1651 15.004 11.2247 14.9607 11.2682 14.9032L12.1133 13.7842Z" stroke="none" stroke-width="1.2"/>
<rect id="Rectangle 98" x="3.49805" y="10.3032" width="18.1191" height="11.6968" rx="2" stroke="none" stroke-width="1.4"/>
<rect id="Rectangle 99" x="2.38086" y="6.54028" width="18.1191" height="4.31449" rx="1" transform="rotate(-15 2.38086 6.54028)" stroke="none" stroke-width="1.4"/>
</g>
</g>
</g>
</svg>
