<svg width="18" height="18" viewBox="0 0 18 18" fill="none" xmlns="http://www.w3.org/2000/svg">
<g id="&#226;&#156;&#137;&#239;&#184;&#143; &#235;&#180;&#137;&#237;&#136;&#172;" clip-path="url(#clip0_1871_41103)">
<g id="Group">
<g id="Group_2">
<path id="Vector" d="M0.900391 5.71582V13.1593C0.900391 13.6772 1.08759 14.1466 1.38819 14.5219L6.53934 10.4156L0.900391 5.71582Z" fill="#D0D5DA"/>
<path id="Vector_2" d="M16.6125 14.5217C16.9131 14.1468 17.1003 13.677 17.1003 13.1591V5.71606L11.4609 10.4154L16.6125 14.5217Z" fill="#D0D5DA"/>
</g>
<path id="Vector_3" d="M7.50999 10.2698L0.900391 5.71582L6.53979 10.4152L7.50999 11.2238C8.40729 11.9195 9.59349 11.9195 10.4912 11.2238L11.4614 10.4152L17.1008 5.71582L10.4912 10.2698C9.59394 10.8881 8.40774 10.8881 7.50999 10.2698Z" fill="#AFB7C0"/>
<g id="Group_3">
<path id="Vector_4" d="M10.4913 11.2237C9.59397 11.9194 8.40777 11.9194 7.51002 11.2237L6.53982 10.415L1.38867 14.5213C1.79007 15.0212 2.39892 15.3479 3.08967 15.3479H14.9112C15.6024 15.3479 16.2112 15.0212 16.6122 14.5213L11.461 10.415L10.4913 11.2237Z" fill="#E5E9EE"/>
<path id="Vector_5" d="M14.8504 2.65137H3.15039C1.90794 2.65137 0.900391 3.65892 0.900391 4.90137V5.71632L7.50999 10.2703C8.40729 10.8886 9.59349 10.8886 10.4912 10.2703L17.1008 5.71632V4.90137C17.1008 3.65892 16.0928 2.65137 14.8504 2.65137Z" fill="#E5E9EE"/>
</g>
</g>
</g>
<defs>
<clipPath id="clip0_1871_41103">
<rect width="18" height="18" fill="white"/>
</clipPath>
</defs>
</svg>
