<svg width="18" height="18" viewBox="0 0 18 18" fill="none" xmlns="http://www.w3.org/2000/svg">
<g clip-path="url(#clip0_6096_20424)">
<path d="M4.10495 12.0214L2.1146 12.5402L2.91695 11.0885L0.675049 10.2353L2.3513 8.6851L0.823999 7.6501L2.4512 7.1992L1.0751 3.98575L4.4753 4.3237L4.1747 2.84995L5.51975 3.6271L6.0908 0.736298L8.6684 2.84995L9.37445 0.985148L9.8402 2.95165L10.6241 2.0863L10.8806 3.2185L13.3241 1.23625L12.3728 3.9619L14.3739 3.4273L13.3686 4.79215L16.4736 4.7359L14.585 6.6385L16.2225 7.1857L14.8847 8.101L17.325 9.82495L14.0828 11.2411L14.9855 12.8282L13.4082 12.5402L13.6251 14.9711L11.2658 14.0014L11.0241 15.2848L9.9698 13.8421L9.5243 16.4327L8.2175 14.0689L6.77255 15.6848L6.61955 13.3655L2.18075 17.2639L4.10495 12.0214Z" fill="#FFC45E"/>
</g>
<defs>
<clipPath id="clip0_6096_20424">
<rect width="18" height="18" fill="white"/>
</clipPath>
</defs>
</svg>
