<svg width="18" height="18" viewBox="0 0 18 18" fill="none" xmlns="http://www.w3.org/2000/svg">
<g clip-path="url(#clip0_6096_20854)">
<path d="M15.7497 16.6497C15.5193 16.6497 15.2893 16.562 15.1134 16.386L11.0719 12.3446C10.7205 11.9931 10.7205 11.4234 11.0719 11.072C11.4234 10.7205 11.9931 10.7205 12.3445 11.072L16.386 15.1134C16.7374 15.4649 16.7374 16.0346 16.386 16.386C16.21 16.562 15.9801 16.6497 15.7497 16.6497Z" fill="#FF92AD"/>
<path d="M13.3332 7.79157C13.3332 4.73607 10.8474 2.24982 7.79143 2.24982C6.26368 2.24982 4.87813 2.87127 3.87463 3.87477L11.7078 11.7084C12.7113 10.7049 13.3332 9.31932 13.3332 7.79157Z" fill="#FAFAFA" fill-opacity="0.7"/>
<path d="M11.7083 11.7083L3.87471 3.87469C2.87121 4.87819 2.24976 6.26375 2.24976 7.79149C2.24976 10.847 4.73601 13.3332 7.79151 13.3332C9.31926 13.3332 10.7048 12.7118 11.7083 11.7083Z" fill="#FAFAFA"/>
<path d="M7.79125 14.0081C4.3636 14.0081 1.57495 11.2194 1.57495 7.79176C1.57495 4.36411 4.3636 1.57501 7.79125 1.57501C11.2189 1.57501 14.008 4.36366 14.008 7.79176C14.008 11.2199 11.2194 14.0081 7.79125 14.0081ZM7.79125 2.92501C5.1079 2.92501 2.92495 5.10841 2.92495 7.79176C2.92495 10.4751 5.10835 12.6581 7.79125 12.6581C10.4742 12.6581 12.658 10.4747 12.658 7.79176C12.658 5.10886 10.4746 2.92501 7.79125 2.92501Z" fill="#FFDDE5"/>
</g>
<defs>
<clipPath id="clip0_6096_20854">
<rect width="18" height="18" fill="white"/>
</clipPath>
</defs>
</svg>
