<svg width="18" height="18" viewBox="0 0 18 18" fill="none" xmlns="http://www.w3.org/2000/svg">
<g clip-path="url(#clip0_6096_20288)">
<path d="M8.27826 16.0826C8.67921 16.3477 9.19716 16.3477 9.59856 16.0826C10.8721 15.2411 13.6472 13.231 14.842 10.9814C16.4179 8.01368 14.567 5.05313 12.1217 5.05313C10.7276 5.05313 9.88836 5.78168 9.42486 6.40763C9.18051 6.73793 8.69721 6.73793 8.45286 6.40763C7.98891 5.78123 7.15011 5.05313 5.75601 5.05313C3.31071 5.05313 1.45986 8.01368 3.03576 10.9814C4.23051 13.231 7.00566 15.2416 8.27916 16.0826H8.27826Z" fill="#FF92AD"/>
<path d="M2.1037 5.77895C2.0785 5.77895 2.05285 5.77625 2.0272 5.77085C1.8355 5.72855 1.71355 5.54 1.7545 5.3483C1.7608 5.3204 2.39935 2.5331 5.67715 2.99525C5.87245 3.0227 6.00835 3.2027 5.9809 3.398C5.95345 3.5933 5.77255 3.7292 5.57815 3.70175C2.9686 3.33455 2.4718 5.41085 2.452 5.49995C2.41465 5.666 2.26705 5.7794 2.1037 5.7794V5.77895Z" fill="#FF92AD"/>
<path d="M0.675586 5.05806C0.650836 5.05806 0.625636 5.05536 0.600436 5.04996C0.407836 5.00856 0.284986 4.81866 0.326386 4.62606C0.334936 4.58781 1.20254 0.802856 5.67779 1.43196C5.87309 1.45941 6.00899 1.63941 5.98154 1.83516C5.95409 2.03001 5.77319 2.16501 5.57834 2.13891C1.75469 1.60161 1.05179 4.64631 1.02389 4.77636C0.987886 4.94376 0.839836 5.05806 0.675586 5.05806Z" fill="#FF92AD"/>
<path d="M15.8959 5.77986C15.7316 5.77986 15.584 5.66601 15.548 5.49906C15.5278 5.40771 15.0305 3.33681 12.4219 3.70131C12.2261 3.72831 12.0466 3.59241 12.0191 3.39756C11.9917 3.20226 12.1276 3.02226 12.3229 2.99481C15.5998 2.53491 16.2392 5.31996 16.2455 5.34786C16.287 5.54046 16.1641 5.73036 15.9715 5.77176C15.9463 5.77716 15.9206 5.77986 15.8959 5.77986Z" fill="#FF92AD"/>
<path d="M17.3246 5.05806C17.1604 5.05806 17.0128 4.94376 16.9763 4.77681C16.9471 4.64406 16.2257 1.60656 12.4219 2.13891C12.2234 2.16501 12.0461 2.03001 12.0187 1.83516C11.9912 1.63986 12.1271 1.45986 12.3224 1.43196C16.7995 0.803309 17.6653 4.58781 17.6738 4.62606C17.7152 4.81866 17.5924 5.00856 17.3998 5.04996C17.3746 5.05536 17.3494 5.05806 17.3246 5.05806Z" fill="#FF92AD"/>
</g>
<defs>
<clipPath id="clip0_6096_20288">
<rect width="18" height="18" fill="white"/>
</clipPath>
</defs>
</svg>
