<svg width="18" height="18" viewBox="0 0 18 18" fill="none" xmlns="http://www.w3.org/2000/svg">
<g clip-path="url(#clip0_6096_20229)">
<path d="M8.02876 15.4894C8.61871 15.885 9.38101 15.885 9.97051 15.4894C11.5811 14.409 14.7666 12.0447 16.1657 9.40991C18.0786 5.80721 15.8322 2.21396 12.8636 2.21396C11.1725 2.21396 10.1541 3.09686 9.59116 3.85691C9.29371 4.25831 8.70646 4.25831 8.40901 3.85691C7.84561 3.09686 6.82771 2.21396 5.13661 2.21396C2.16751 2.21396 -0.0788915 5.80721 1.83406 9.40991C3.23311 12.0447 6.41821 14.409 8.02921 15.4894H8.02876Z" fill="#FFC4D2"/>
<path d="M8.42367 13.7295C8.77377 13.9608 9.22647 13.9608 9.57657 13.7295C10.6885 12.9946 13.1127 11.2392 14.1558 9.27448C15.5323 6.68248 13.9159 4.09723 11.7798 4.09723C10.5621 4.09723 9.82947 4.73353 9.42447 5.28028C9.21117 5.56873 8.78907 5.56873 8.57577 5.28028C8.17077 4.73353 7.43817 4.09723 6.22047 4.09723C4.08477 4.09723 2.46837 6.68248 3.84447 9.27448C4.88757 11.2392 7.31172 12.9951 8.42367 13.7295Z" fill="#FF92AD"/>
<path d="M8.63902 11.9627C8.85862 12.1076 9.14167 12.1076 9.36127 11.9627C10.0579 11.5023 11.5762 10.4025 12.2296 9.1718C13.0918 7.5482 12.0793 5.92865 10.7414 5.92865C9.97867 5.92865 9.51967 6.32735 9.26587 6.6698C9.13222 6.85025 8.86807 6.85025 8.73397 6.6698C8.48017 6.32735 8.02117 5.92865 7.25842 5.92865C5.92057 5.92865 4.90807 7.5482 5.77027 9.1718C6.42367 10.4025 7.94242 11.5023 8.63902 11.9627Z" fill="#FF1F44"/>
</g>
<defs>
<clipPath id="clip0_6096_20229">
<rect width="18" height="18" fill="white"/>
</clipPath>
</defs>
</svg>
