<svg width="18" height="18" viewBox="0 0 18 18" fill="none" xmlns="http://www.w3.org/2000/svg">
<g clip-path="url(#clip0_6096_20887)">
<path d="M10.2708 2.05966C8.74579 2.05966 7.50964 3.29581 7.50964 4.82086C7.50964 6.34591 8.74579 7.58206 10.2708 7.58206C11.7959 7.58206 13.032 6.34591 13.032 4.82086C13.032 3.29581 11.7959 2.05966 10.2708 2.05966ZM10.2708 5.62501C9.82669 5.62501 9.46669 5.26501 9.46669 4.82086C9.46669 4.37671 9.82669 4.01671 10.2708 4.01671C10.715 4.01671 11.075 4.37671 11.075 4.82086C11.075 5.26501 10.715 5.62501 10.2708 5.62501Z" fill="#FF92AD"/>
<path d="M5.15573 2.05966C3.63068 2.05966 2.39453 3.29581 2.39453 4.82086C2.39453 6.34591 3.63068 7.58206 5.15573 7.58206C6.68078 7.58206 7.91693 6.34591 7.91693 4.82086C7.91693 3.29581 6.68078 2.05966 5.15573 2.05966ZM5.15573 5.62501C4.71158 5.62501 4.35158 5.26501 4.35158 4.82086C4.35158 4.37671 4.71158 4.01671 5.15573 4.01671C5.59988 4.01671 5.95988 4.37671 5.95988 4.82086C5.95988 5.26501 5.59988 5.62501 5.15573 5.62501Z" fill="#FF92AD"/>
<path d="M12.9299 12.1581L15.4886 13.5158C15.679 13.617 15.9085 13.4789 15.9085 13.2633V8.11216C15.9085 7.89661 15.679 7.75846 15.4886 7.85971L12.9299 9.21736V12.1581Z" fill="#FF92AD"/>
<path d="M4.79712 14.1372H10.3168V15.5912C10.3168 15.7838 10.1607 15.9399 9.96807 15.9399H5.14587C4.95327 15.9399 4.79712 15.7838 4.79712 15.5912V14.1372Z" fill="#FF92AD"/>
<path d="M12.245 14.5926L10.3168 15.0386H4.79706L2.99346 14.5998C2.49666 14.4788 2.14746 14.0342 2.14746 13.523V8.15491C2.14746 7.69456 2.52051 7.32196 2.98041 7.32196H12.2707C12.731 7.32196 13.1036 7.69501 13.1036 8.15491V13.5126C13.1036 14.0283 12.7477 14.4761 12.245 14.5922V14.5926Z" fill="#FFDDE5"/>
</g>
<defs>
<clipPath id="clip0_6096_20887">
<rect width="18" height="18" fill="white"/>
</clipPath>
</defs>
</svg>
