<svg width="18" height="18" viewBox="0 0 18 18" fill="none" xmlns="http://www.w3.org/2000/svg">
<g clip-path="url(#clip0_6096_20574)">
<path fill-rule="evenodd" clip-rule="evenodd" d="M1.96924 2.46583V15.5338C1.96924 16.0261 2.36794 16.4248 2.86024 16.4248H10.1367L14.5917 11.9698V2.46583C14.5917 1.97353 14.193 1.57483 13.7007 1.57483H2.86024C2.36794 1.57483 1.96924 1.97353 1.96924 2.46583Z" fill="#E5E9EE"/>
<path fill-rule="evenodd" clip-rule="evenodd" d="M11.0277 11.9697H14.5917L10.1367 16.4247V12.8607C10.1367 12.3684 10.5354 11.9697 11.0277 11.9697Z" fill="#C0C7D1"/>
<path d="M13 4.02472H4V4.46167H13V4.02472Z" fill="#D0D5DA"/>
<path d="M13 6.0882H4V6.52515H13V6.0882Z" fill="#D0D5DA"/>
<path d="M13 8.15167H4V8.58862H13V8.15167Z" fill="#D0D5DA"/>
<path d="M13 10.2156H4V10.6526H13V10.2156Z" fill="#D0D5DA"/>
<path d="M14.5916 2.8934H15.5942C15.8354 2.8934 16.0311 3.08915 16.0311 3.33035V5.64695C16.0311 5.88815 15.8354 6.0839 15.5942 6.0839H14.5916V2.89385V2.8934Z" fill="#FF92AD"/>
<path d="M15.5942 10.5835H14.5916V7.3934H15.5942C15.8354 7.3934 16.0311 7.58915 16.0311 7.83035V10.147C16.0311 10.3882 15.8354 10.5839 15.5942 10.5839V10.5835Z" fill="#FFC100"/>
</g>
<defs>
<clipPath id="clip0_6096_20574">
<rect width="18" height="18" fill="white"/>
</clipPath>
</defs>
</svg>
