<svg width="18" height="18" viewBox="0 0 18 18" fill="none" xmlns="http://www.w3.org/2000/svg">
<g clip-path="url(#clip0_6096_20793)">
<path d="M13.5294 5.19113C13.8737 4.82258 13.8719 4.25963 13.5447 3.88928C13.8462 3.49778 13.8102 2.93573 13.4421 2.59148C13.074 2.24723 12.5111 2.24903 12.1403 2.57618C11.7488 2.27468 11.1867 2.31068 10.8425 2.67878C10.4982 3.04733 10.5 3.61028 10.8272 3.98063C10.5257 4.37213 10.5612 4.93418 10.9298 5.27843C11.2983 5.62268 11.8613 5.62088 12.2316 5.29373C12.6231 5.59523 13.1852 5.55923 13.5294 5.19113Z" fill="#FFC733"/>
<path d="M9.69964 3.81605C9.96019 3.3845 9.84184 2.83415 9.44494 2.5394C9.65869 2.0939 9.50749 1.55165 9.07549 1.2911C8.64394 1.03055 8.09359 1.1489 7.79884 1.5458C7.35334 1.33205 6.81109 1.48325 6.55009 1.91525C6.28909 2.34725 6.40789 2.89715 6.80479 3.1919C6.59104 3.6374 6.74224 4.17965 7.17424 4.44065C7.60624 4.7012 8.15614 4.58285 8.45089 4.18595C8.89639 4.3997 9.43864 4.2485 9.69919 3.8165L9.69964 3.81605Z" fill="#FFC733"/>
<path d="M11.8532 4.01697C12.1075 3.58137 11.9801 3.03282 11.5792 2.74437C11.7862 2.29572 11.6264 1.75572 11.1908 1.50147C10.7552 1.24722 10.2067 1.37457 9.9182 1.77552C9.46955 1.56852 8.92955 1.72827 8.6753 2.16387C8.42105 2.59947 8.5484 3.14802 8.94935 3.43647C8.74235 3.88512 8.9021 4.42512 9.3377 4.67937C9.7733 4.93362 10.3218 4.80627 10.6107 4.40532C11.0594 4.61232 11.599 4.45257 11.8532 4.01697Z" fill="#FFD361"/>
<path d="M6.0874 5.30286C6.0874 4.79841 5.7013 4.38891 5.20945 4.34121C5.1622 3.84936 4.75225 3.46326 4.2478 3.46326C3.74335 3.46326 3.33385 3.84936 3.28615 4.34121C2.7943 4.38846 2.4082 4.79841 2.4082 5.30286C2.4082 5.80731 2.7943 6.21681 3.28615 6.26451C3.3334 6.75636 3.74335 7.14246 4.2478 7.14246C4.75225 7.14246 5.16175 6.75636 5.20945 6.26451C5.7013 6.21726 6.0874 5.80731 6.0874 5.30286Z" fill="#FFC733"/>
<path d="M11.0496 5.67006C11.0496 4.96266 10.5082 4.38801 9.81835 4.32141C9.75175 3.63156 9.1771 3.09021 8.4697 3.09021C7.7623 3.09021 7.18765 3.63156 7.12105 4.32141C6.4312 4.38801 5.8894 4.96266 5.8894 5.67006C5.8894 6.37746 6.43075 6.95211 7.12105 7.01871C7.18765 7.70856 7.7623 8.25036 8.4697 8.25036C9.1771 8.25036 9.75175 7.70901 9.81835 7.01871C10.5082 6.95211 11.0496 6.37746 11.0496 5.67006Z" fill="#FFDB80"/>
<path d="M15.4529 5.67004C15.4529 5.16559 15.0668 4.75609 14.5749 4.70839C14.5277 4.21654 14.1177 3.83044 13.6133 3.83044C13.1088 3.83044 12.6993 4.21654 12.6516 4.70839C12.1598 4.75564 11.7737 5.16559 11.7737 5.67004C11.7737 6.17449 12.1598 6.58399 12.6516 6.63169C12.6989 7.12354 13.1088 7.50964 13.6133 7.50964C14.1177 7.50964 14.5272 7.12354 14.5749 6.63169C15.0668 6.58444 15.4529 6.17449 15.4529 5.67004Z" fill="#FFDB80"/>
<path d="M7.72815 4.76691C7.9563 4.31691 7.79745 3.77691 7.37985 3.51231C7.55985 3.05196 7.36905 2.52276 6.9195 2.29461C6.4695 2.06646 5.92995 2.22531 5.6649 2.64291C5.20455 2.46291 4.67535 2.65371 4.4472 3.10326C4.21905 3.55281 4.3779 4.09326 4.7955 4.35786C4.6155 4.81821 4.8063 5.34741 5.25585 5.57556C5.70585 5.80371 6.24585 5.64486 6.51045 5.22726C6.9708 5.40726 7.5 5.21646 7.72815 4.76691Z" fill="#FFE9B0"/>
<path d="M12.8444 6.28474C13.0725 5.83474 12.9137 5.29474 12.4961 5.03014C12.6761 4.56979 12.4853 4.04059 12.0357 3.81244C11.5857 3.58429 11.0462 3.74314 10.7811 4.16074C10.3208 3.98074 9.79156 4.17154 9.56341 4.62109C9.33526 5.07064 9.49411 5.61109 9.91171 5.87569C9.73171 6.33604 9.92251 6.86524 10.3721 7.09339C10.8221 7.32154 11.3621 7.16269 11.6267 6.74509C12.087 6.92509 12.6162 6.73429 12.8444 6.28474Z" fill="#FFE9B0"/>
<path d="M16.4595 6.84817H16.4581C16.4514 6.03007 15.7872 5.36902 14.9677 5.36902C14.1483 5.36902 13.4841 6.03052 13.4773 6.84817H10.4911C10.4844 6.03007 9.82019 5.36902 9.00074 5.36902C8.18129 5.36902 7.51709 6.03052 7.51034 6.84817H4.52414C4.51739 6.03007 3.85319 5.36902 3.03374 5.36902C2.21429 5.36902 1.55009 6.03052 1.54334 6.84817H1.54199L1.54289 6.85357C1.54289 6.85582 1.54199 6.85852 1.54199 6.86077C1.54199 6.99037 1.56359 7.11412 1.59509 7.23427L2.81414 16.1321C2.87039 16.5425 3.22094 16.8485 3.63539 16.8485H14.367C14.7814 16.8485 15.132 16.5425 15.1882 16.1321L16.4073 7.23427C16.4383 7.11412 16.4599 6.99082 16.4599 6.86077C16.4599 6.85852 16.459 6.85627 16.459 6.85357L16.4595 6.84817Z" fill="#FF1F44"/>
<path d="M13.4753 6.85987L13.4762 6.84817H13.474C13.4672 6.03007 12.803 5.36902 11.9836 5.36902C11.1641 5.36902 10.4999 6.03052 10.4932 6.84817H10.4923L10.2236 16.8485H12.6613L13.4753 6.86842C13.4753 6.86572 13.4762 6.86347 13.4762 6.86077V6.85987H13.4753Z" fill="#D5D5D5"/>
<path d="M7.50746 6.84817C7.50071 6.03007 6.83651 5.36902 6.01706 5.36902C5.19761 5.36902 4.53341 6.03052 4.52666 6.84817H4.52441L4.52531 6.85987C4.52531 6.86212 4.52621 6.86482 4.52621 6.86752L5.34926 16.8481H7.78646L7.50836 6.84772H7.50746V6.84817Z" fill="#D5D5D5"/>
</g>
<defs>
<clipPath id="clip0_6096_20793">
<rect width="18" height="18" fill="white"/>
</clipPath>
</defs>
</svg>
