<svg width="18" height="18" viewBox="0 0 18 18" fill="none" xmlns="http://www.w3.org/2000/svg">
<g clip-path="url(#clip0_6096_20670)">
<path d="M14.908 8.70614L13.8213 7.71659C13.6615 7.50194 13.5576 7.24769 13.5418 6.98039C13.4847 6.00344 13.6696 5.75189 13.2804 4.74164C12.5379 2.81474 10.8841 1.38104 8.85236 1.01159C4.73396 0.261886 1.14746 3.40559 1.14746 7.38674C1.14746 8.82404 1.61726 10.1497 2.40971 11.2239C2.89751 11.8849 3.17696 12.6756 3.17696 13.4968V16.2157C3.17696 16.7044 3.57296 17.1004 4.06166 17.1004H8.80961C9.29831 17.1004 9.69431 16.7044 9.69431 16.2157V14.5656H12.186C12.8317 14.5656 13.3839 14.1007 13.4937 13.4644L13.644 12.5937L12.8124 12.0438C12.5118 11.8453 12.5766 11.3868 12.9204 11.2792L13.8546 10.9863L13.8613 10.233L14.8941 9.37304C15.1002 9.20114 15.1074 8.88704 14.9089 8.70614H14.908Z" fill="#FFDDE5"/>
<path d="M16.8181 13.0216C16.7893 13.0216 16.7601 13.018 16.7304 13.0104L15.658 12.7228C15.478 12.6747 15.3714 12.4893 15.4195 12.3093C15.4677 12.1297 15.6531 12.024 15.8331 12.0708L16.9054 12.3583C17.0854 12.4065 17.1921 12.5919 17.1439 12.7719C17.1034 12.9226 16.9671 13.0216 16.8181 13.0216Z" fill="#ECECEE"/>
<path d="M16.3574 14.5931C16.3002 14.5931 16.2422 14.5787 16.1886 14.5476L15.227 13.9928C15.0654 13.8996 15.0105 13.6931 15.1037 13.532C15.1968 13.3704 15.4034 13.3151 15.5645 13.4087L16.5261 13.9635C16.6877 14.0567 16.7426 14.2632 16.6494 14.4243C16.5869 14.5328 16.4739 14.5931 16.3574 14.5931Z" fill="#ECECEE"/>
<path d="M17.2047 11.43H16.0946C15.9083 11.43 15.7571 11.2788 15.7571 11.0925C15.7571 10.9062 15.9083 10.755 16.0946 10.755H17.2047C17.391 10.755 17.5422 10.9062 17.5422 11.0925C17.5422 11.2788 17.391 11.43 17.2047 11.43Z" fill="#ECECEE"/>
</g>
<defs>
<clipPath id="clip0_6096_20670">
<rect width="18" height="18" fill="white"/>
</clipPath>
</defs>
</svg>
