<svg width="18" height="18" viewBox="0 0 18 18" fill="none" xmlns="http://www.w3.org/2000/svg">
<g clip-path="url(#clip0_6096_20483)">
<path d="M9 1.26981C4.65075 1.26981 1.125 4.42611 1.125 8.31951C1.125 9.87381 1.69155 11.3071 2.6451 12.4717C2.9943 12.8983 3.15405 13.4486 3.04875 13.9895L2.619 16.1932C2.547 16.5631 2.934 16.8524 3.26835 16.6783L5.8842 15.3166C6.25365 15.1244 6.6789 15.0619 7.08525 15.1541C7.69815 15.2932 8.33895 15.3692 9 15.3692C13.3492 15.3692 16.875 12.2129 16.875 8.31951C16.875 4.42611 13.3492 1.26981 9 1.26981Z" fill="#ECECEE"/>
<path d="M5.73922 7.66318C6.22612 7.66318 6.62032 8.05783 6.62032 8.54428C6.62032 8.77783 6.52762 9.00193 6.36202 9.16753C6.19687 9.33268 5.97277 9.42583 5.73877 9.42583C5.25187 9.42583 4.85767 9.03118 4.85767 8.54473C4.85767 8.05828 5.25232 7.66363 5.73877 7.66363L5.73922 7.66318Z" fill="#FF1F44"/>
<path d="M12.2607 9.42538C12.7474 9.42538 13.1418 9.0309 13.1418 8.54428C13.1418 8.05766 12.7474 7.66318 12.2607 7.66318C11.7741 7.66318 11.3796 8.05766 11.3796 8.54428C11.3796 9.0309 11.7741 9.42538 12.2607 9.42538Z" fill="#FF1F44"/>
<path d="M9 9.42538C9.48661 9.42538 9.8811 9.0309 9.8811 8.54428C9.8811 8.05766 9.48661 7.66318 9 7.66318C8.51338 7.66318 8.1189 8.05766 8.1189 8.54428C8.1189 9.0309 8.51338 9.42538 9 9.42538Z" fill="#FF1F44"/>
</g>
<defs>
<clipPath id="clip0_6096_20483">
<rect width="18" height="18" fill="white"/>
</clipPath>
</defs>
</svg>
