<svg width="51" height="51" viewBox="0 0 51 51" fill="none" xmlns="http://www.w3.org/2000/svg">
<g clip-path="url(#clip0_1603_3334)">
<path d="M37.5589 12.3496L12.6227 12.3496C10.5902 12.3496 8.84893 13.5671 8.06768 15.3084C7.78768 15.9334 7.62268 16.6209 7.62268 17.3496L7.62268 39.6459C7.62268 42.4071 9.86143 44.6459 12.6227 44.6459H37.5577C40.3189 44.6459 42.5577 42.4071 42.5577 39.6459V17.3496C42.5577 17.1934 42.5252 17.0471 42.5114 16.8946C42.2777 14.3496 40.1627 12.3496 37.5577 12.3496H37.5589ZM32.6189 33.6034L29.4427 36.7796C28.3002 37.9221 26.4489 37.9221 25.3064 36.7796L14.0339 25.5071C12.8914 24.3646 12.8914 22.5134 14.0339 21.3709L17.2102 18.1946C18.3527 17.0521 20.2039 17.0521 21.3464 18.1946L32.6189 29.4671C33.7614 30.6096 33.7614 32.4609 32.6189 33.6034ZM37.2214 18.5684C36.2964 18.5684 35.5477 17.8184 35.5477 16.8946C35.5477 15.9709 36.2977 15.2209 37.2214 15.2209C38.1452 15.2209 38.8952 15.9709 38.8952 16.8946C38.8952 17.8184 38.1452 18.5684 37.2214 18.5684Z" fill="#4E5968"/>
<path d="M8.06792 15.3095L4.31042 14.0608C3.55417 13.8095 2.77417 14.372 2.77417 15.1683L2.77417 26.162C2.77417 26.9583 3.55417 27.522 4.31042 27.2695L7.62417 26.1683L7.62417 17.3495C7.62417 16.6208 7.78792 15.932 8.06917 15.3083L8.06792 15.3095Z" fill="#2E3D51"/>
<path d="M48.6701 8.17295V16.5354C48.6701 17.3854 47.9951 18.0604 47.1451 18.0604H46.6201C45.9076 18.0604 45.3326 17.5604 45.1701 16.8979H42.5076C42.2826 14.3479 40.1576 12.3479 37.5576 12.3479H29.9576L31.7326 9.31045C32.2826 8.37295 33.2701 7.81045 34.3576 7.81045L45.1701 7.81045C45.3451 7.14795 45.9076 6.64795 46.6201 6.64795H47.1451C47.9951 6.64795 48.6701 7.33545 48.6701 8.17295Z" fill="#2E3D51"/>
<path d="M17.2112 18.1958L14.0354 21.3716C12.8931 22.5139 12.8932 24.3659 14.0355 25.5082L25.307 36.7793C26.4493 37.9215 28.3013 37.9215 29.4435 36.7792L32.6193 33.6034C33.7615 32.4611 33.7615 30.609 32.6192 29.4668L21.3477 18.1957C20.2054 17.0534 18.3534 17.0535 17.2112 18.1958Z" fill="#2E3D51"/>
<path d="M37.2221 15.2201C36.2971 15.2201 35.5483 15.9701 35.5483 16.8938C35.5483 17.8176 36.2983 18.5676 37.2221 18.5676C38.1458 18.5676 38.8958 17.8176 38.8958 16.8938C38.8958 15.9701 38.1458 15.2201 37.2221 15.2201Z" fill="#FFCD00"/>
</g>
<defs>
<clipPath id="clip0_1603_3334">
<rect width="50" height="50" fill="white" transform="translate(0.646606 0.646606)"/>
</clipPath>
</defs>
</svg>
