<svg width="28" height="28" viewBox="0 0 28 28" fill="none" xmlns="http://www.w3.org/2000/svg">
<g clip-path="url(#clip0_1193_32516)">
<path d="M19.95 2.44995H8.04995C4.95716 2.44995 2.44995 4.95716 2.44995 8.04995V19.95C2.44995 23.0427 4.95716 25.55 8.04995 25.55H19.95C23.0427 25.55 25.55 23.0427 25.55 19.95V8.04995C25.55 4.95716 23.0427 2.44995 19.95 2.44995Z" fill="#FFE3A0"/>
<path d="M19.4998 15.4L25.5499 18.0124V19.2465L11.7998 19.25L19.4998 15.4Z" fill="#FF9000"/>
<path d="M7.94985 15.0997L25.55 20.0494C25.55 23.0867 23.0874 25.5493 20.0501 25.5493H8.04995C4.95735 25.5493 2.44995 23.0419 2.44995 19.9493V17.8493L7.94985 15.0997Z" fill="#FF9000"/>
<path d="M21.1498 17.325C21.1498 16.6376 20.5996 15.9502 19.4999 15.4L25.55 18.0124V20.0501L19.9843 23.1C19.4621 22.0773 18.9504 20.944 18.9504 20.3497C18.9504 19.25 21.1498 18.9749 21.1498 17.325Z" fill="#EC6700"/>
<path d="M7.94992 15.0997L25.55 20.0494C25.55 23.0867 23.0874 25.5493 20.0501 25.5493H16.1609C16.1609 25.5493 10.9606 24.0492 10.9606 21.574C10.9606 20.3364 12.6105 19.649 12.6105 18.2742C12.6105 16.8994 8.63662 15.512 7.94922 15.099L7.94992 15.0997Z" fill="#EC6700"/>
<path d="M10.3367 12.7043C12.1174 12.7043 13.5609 11.2607 13.5609 9.48006C13.5609 7.69938 12.1174 6.25586 10.3367 6.25586C8.55607 6.25586 7.11255 7.69938 7.11255 9.48006C7.11255 11.2607 8.55607 12.7043 10.3367 12.7043Z" fill="#FFCD00"/>
</g>
<defs>
<clipPath id="clip0_1193_32516">
<rect width="28" height="28" fill="white"/>
</clipPath>
</defs>
</svg>
