<svg width="335" height="57" viewBox="0 0 335 57" fill="none" xmlns="http://www.w3.org/2000/svg">
<rect x="0.5" y="0.5" width="334" height="56" rx="11.5" fill="#0E0E0E"/>
<rect x="0.5" y="0.5" width="334" height="56" rx="11.5" stroke="#29292C"/>
<path d="M61.8418 23.6914C62.8672 23.6846 63.7422 24.0674 64.3027 24.7168H67.4883V22.9531H68.5684V30.1582H67.4883V28.4219H64.3164C63.7422 29.0713 62.8672 29.4541 61.8418 29.4473C60.0234 29.4609 58.6836 28.2715 58.6836 26.5762C58.6836 24.8672 60.0234 23.6777 61.8418 23.6914ZM61.8418 24.6211C60.5977 24.6074 59.709 25.4277 59.709 26.5762C59.709 27.7109 60.5977 28.5312 61.8418 28.5312C63.0449 28.5312 63.9473 27.7109 63.9473 26.5762C63.9473 25.4277 63.0449 24.6074 61.8418 24.6211ZM64.5352 30.4453C67.0508 30.4453 68.6094 31.293 68.6094 32.7559C68.6094 34.2324 67.0508 35.0801 64.5352 35.0801C62.0059 35.0801 60.4609 34.2324 60.4609 32.7559C60.4609 31.293 62.0059 30.4453 64.5352 30.4453ZM64.5352 31.2793C62.6758 31.2793 61.5137 31.8398 61.5137 32.7559C61.5137 33.6719 62.6758 34.2188 64.5352 34.2188C66.4082 34.2188 67.5566 33.6719 67.5566 32.7559C67.5566 31.8398 66.4082 31.2793 64.5352 31.2793ZM64.8223 25.5918C64.9248 25.8926 64.9863 26.2207 64.9863 26.5762C64.9863 26.918 64.9248 27.2393 64.8223 27.5332H67.4883V25.5918H64.8223ZM74.5123 24.9219C74.5123 26.5762 75.7702 28.0938 77.5338 28.6953L76.9459 29.543C75.5993 29.0508 74.5397 28.0459 74.0065 26.7812C73.487 28.21 72.4069 29.3379 70.985 29.8848L70.4108 29.0234C72.2291 28.3398 73.4459 26.7129 73.4596 24.8398V23.582H74.5123V24.9219ZM79.9537 22.9531V26.125H81.7858V27.0273H79.9537V30.3496H78.8873V22.9531H79.9537ZM76.0573 30.6641C78.5592 30.6641 80.0631 31.4707 80.0631 32.8652C80.0631 34.2871 78.5592 35.0801 76.0573 35.0801C73.5553 35.0801 72.0241 34.2871 72.0241 32.8652C72.0241 31.4707 73.5553 30.6641 76.0573 30.6641ZM76.0573 31.5254C74.2252 31.5254 73.0905 32.0312 73.1041 32.8652C73.0905 33.7266 74.2252 34.2188 76.0573 34.2324C77.903 34.2188 79.0241 33.7266 79.0241 32.8652C79.0241 32.0312 77.903 31.5254 76.0573 31.5254ZM88.7415 24.1562V32.0586H83.1223V24.1562H88.7415ZM84.1751 25.0176V31.1836H87.6887V25.0176H84.1751ZM92.4329 22.9531V35.1348H91.3528V22.9531H92.4329ZM105.746 27.8066V28.709H103.777V35.1074H102.711V22.9531H103.777V27.8066H105.746ZM95.9433 24.1562V31.1152C97.7206 31.1084 99.5322 30.9717 101.535 30.5547L101.672 31.4707C99.58 31.8945 97.6933 32.0176 95.8476 32.0176H94.8769V24.1562H95.9433ZM120.82 29.3926V30.2676H115.87V32.6465H114.804V30.2676H109.691V29.3926H120.82ZM119.575 33.9453V34.8477H111.112V31.5254H112.179V33.9453H119.575ZM112.247 23.3496V24.9082H118.263V23.3496H119.329V28.2031H111.181V23.3496H112.247ZM112.247 27.3281H118.263V25.7285H112.247V27.3281ZM125.67 23.5547C127.488 23.541 128.787 24.5391 128.787 26.0293C128.787 27.5059 127.488 28.5312 125.67 28.5176C123.851 28.5312 122.553 27.5059 122.553 26.0293C122.553 24.5391 123.851 23.541 125.67 23.5547ZM125.67 24.4297C124.453 24.416 123.592 25.0859 123.605 26.0293C123.592 26.9863 124.453 27.6426 125.67 27.6289C126.9 27.6426 127.762 26.9863 127.762 26.0293C127.762 25.0859 126.9 24.416 125.67 24.4297ZM131.685 22.9668V35.1211H130.633V22.9668H131.685ZM121.637 29.5566C123.92 29.5566 127.037 29.5156 129.744 29.1191L129.812 29.9258C128.65 30.1377 127.44 30.2676 126.271 30.3359V34.7383H125.205V30.4043C123.968 30.459 122.799 30.4658 121.787 30.4727L121.637 29.5566ZM143.672 22.9531V35.1074H142.592V22.9531H143.672ZM140.077 24.2793C140.063 27.7793 138.436 30.8691 134.362 32.8242L133.774 31.9492C137.062 30.3906 138.737 28.0596 138.983 25.1543H134.334V24.2793H140.077ZM154.989 22.9531V27.9023H156.958V28.8047H154.989V35.1074H153.923V22.9531H154.989ZM151.845 24.2656C151.845 27.7109 150.232 30.8418 146.267 32.7969L145.665 31.9492C148.81 30.3838 150.519 28.0459 150.765 25.168H146.226V24.2656H151.845ZM171.334 22.9531V35.1074H170.295V22.9531H171.334ZM168.914 23.2129V34.4922H167.889V30.5H165.948C165.524 31.7168 164.717 32.4277 163.678 32.4277C162.092 32.4277 161.067 30.7871 161.067 28.2031C161.067 25.6191 162.092 23.9785 163.678 23.9785C164.717 23.9785 165.524 24.6895 165.948 25.9062H167.889V23.2129H168.914ZM163.678 24.9902C162.68 24.9902 162.065 26.2207 162.065 28.2031C162.065 30.1719 162.68 31.416 163.678 31.4023C164.662 31.416 165.305 30.1719 165.305 28.2031C165.305 26.2207 164.662 24.9902 163.678 24.9902ZM166.18 26.7949C166.262 27.2256 166.303 27.6973 166.303 28.2031C166.303 28.7021 166.262 29.1738 166.194 29.5977H167.889V26.7949H166.18ZM174.776 23.9785V26.1113H176.827V23.9785H177.866V30.1172H173.737V23.9785H174.776ZM174.776 29.2285H176.827V26.9863H174.776V29.2285ZM179.999 23.9785V26.1113H182.064V23.9785H183.116V30.1172H178.96V23.9785H179.999ZM179.999 29.2285H182.064V26.9863H179.999V29.2285ZM183.991 32.6191V33.5215H172.876V32.6191H183.991ZM190.988 24.0195V25.0996H193.832V22.9668H194.912V31.8398H193.832V28.5996H190.988V29.6934H185.41V24.0195H190.988ZM186.476 24.9082V28.832H189.935V24.9082H186.476ZM195.185 33.9453V34.8477H187.05V31.0469H188.131V33.9453H195.185ZM190.988 27.7109H193.832V26.002H190.988V27.7109ZM211.284 27.6562V28.5312H200.169V27.6562H203.614C203.99 26.1729 204.079 25.0586 204.106 24.3203H201.208V23.4453H205.173V23.7598C205.159 24.3955 205.159 25.7627 204.694 27.6562H208.413C208.769 26.1592 208.83 25.0723 208.851 24.3203H205.993V23.4453H209.89V23.9375C209.89 24.6758 209.89 25.9404 209.493 27.6562H211.284ZM209.917 29.8301V30.6641H202.63V31.9492H209.602V32.7559H202.63V34.0957H209.999V34.9434H201.55V29.8301H209.917ZM221.754 22.9531V27.9707H223.599V28.873H221.754V35.1074H220.673V22.9531H221.754ZM215.82 24.2793C215.806 27.1777 215.15 30.0215 212.949 32.3594L212.087 31.7441C213.926 29.8643 214.665 27.6016 214.808 25.1816H212.47V24.2793H215.82ZM219.156 24.2793C219.142 27.1641 218.718 30.5137 216.449 33.166L215.574 32.5645C217.474 30.418 218.048 27.7178 218.144 25.1816H216.203V24.2793H219.156ZM228.436 26.6855C228.436 28.75 229.94 30.8418 231.731 31.6211L231.129 32.4688C229.707 31.8193 228.477 30.418 227.916 28.7363C227.342 30.5205 226.118 32.0723 224.731 32.7695L224.088 31.9219C225.824 31.0879 227.342 28.791 227.356 26.6855V25.0996H224.485V24.2109H231.334V25.0996H228.436V26.6855ZM234.11 22.9531V35.1074H233.03V22.9531H234.11ZM250.55 32.6602V33.5488H239.421V32.6602H244.425V30.0352H240.734V23.8145H241.814V26.0156H248.13V23.8145H249.183V30.0352H245.478V32.6602H250.55ZM241.814 29.1602H248.13V26.8906H241.814V29.1602ZM261.785 22.9531V35.1074H260.76V22.9531H261.785ZM259.229 23.2812V34.4922H258.203V28.8184H255.633C254.888 30.2334 253.719 31.4844 252.024 32.4824L251.395 31.7031C254.04 30.1377 255.366 27.9434 255.565 25.4004H251.914V24.5117H256.631C256.624 25.708 256.433 26.8633 256.029 27.9434H258.203V23.2812H259.229ZM266.564 31.5664C267.343 31.5664 268.321 31.5596 269.339 31.5254V29.0918H267.22V24.1973H272.388V25.0859H268.273V28.2031H272.497V29.0918H270.378V31.4844C271.274 31.4434 272.163 31.3818 272.935 31.293L272.99 32.0723C270.98 32.4141 268.382 32.4688 266.728 32.4688L266.564 31.5664ZM277.05 22.9531V35.1074H276.011V28.9004H274.494V34.4648H273.496V23.2266H274.494V28.0254H276.011V22.9531H277.05ZM289.803 32.6465V33.5488H278.674V32.6465H281.436V29.3652C280.397 28.8252 279.768 27.9502 279.768 26.8496C279.768 24.9629 281.613 23.7324 284.211 23.7188C286.809 23.7324 288.654 24.9629 288.654 26.8496C288.654 27.9297 288.046 28.7979 287.041 29.3379V32.6465H289.803ZM284.211 24.6074C282.215 24.5938 280.807 25.4961 280.807 26.8496C280.807 28.2031 282.215 29.1191 284.211 29.1191C286.193 29.1191 287.615 28.2031 287.615 26.8496C287.615 25.4961 286.193 24.5938 284.211 24.6074ZM282.488 32.6465H285.961V29.748C285.435 29.8916 284.847 29.9668 284.211 29.9668C283.589 29.9668 283.008 29.8984 282.488 29.7617V32.6465Z" fill="#ECECEE"/>
<g clip-path="url(#clip0_1193_32514)">
<path d="M37.95 17.45H26.05C22.9572 17.45 20.45 19.9572 20.45 23.05V34.95C20.45 38.0427 22.9572 40.55 26.05 40.55H37.95C41.0427 40.55 43.55 38.0427 43.55 34.95V23.05C43.55 19.9572 41.0427 17.45 37.95 17.45Z" fill="#FFE3A0"/>
<path d="M37.4998 30.4L43.5499 33.0124V34.2465L29.7998 34.25L37.4998 30.4Z" fill="#FF9000"/>
<path d="M25.9499 30.0997L43.55 35.0494C43.55 38.0867 41.0874 40.5493 38.0501 40.5493H26.05C22.9574 40.5493 20.45 38.0419 20.45 34.9493V32.8493L25.9499 30.0997Z" fill="#FF9000"/>
<path d="M39.1498 32.325C39.1498 31.6376 38.5996 30.9502 37.4999 30.4L43.55 33.0124V35.0501L37.9843 38.1C37.4621 37.0773 36.9504 35.944 36.9504 35.3497C36.9504 34.25 39.1498 33.9749 39.1498 32.325Z" fill="#EC6700"/>
<path d="M25.9499 30.0997L43.55 35.0494C43.55 38.0867 41.0874 40.5493 38.0501 40.5493H34.1609C34.1609 40.5493 28.9606 39.0492 28.9606 36.574C28.9606 35.3364 30.6105 34.649 30.6105 33.2742C30.6105 31.8994 26.6366 30.512 25.9492 30.099L25.9499 30.0997Z" fill="#EC6700"/>
<path d="M28.3367 27.7043C30.1174 27.7043 31.5609 26.2607 31.5609 24.4801C31.5609 22.6994 30.1174 21.2559 28.3367 21.2559C26.5561 21.2559 25.1125 22.6994 25.1125 24.4801C25.1125 26.2607 26.5561 27.7043 28.3367 27.7043Z" fill="#FFCD00"/>
</g>
<defs>
<clipPath id="clip0_1193_32514">
<rect width="28" height="28" fill="white" transform="translate(18 15)"/>
</clipPath>
</defs>
</svg>
