<svg width="335" height="57" viewBox="0 0 335 57" fill="none" xmlns="http://www.w3.org/2000/svg">
<rect x="0.5" y="0.5" width="334" height="56" rx="11.5" fill="#0E0E0E"/>
<rect x="0.5" y="0.5" width="334" height="56" rx="11.5" stroke="#29292C"/>
<path d="M67.8984 22.9531V27.9707H69.9355V28.8594H67.8984V35.1074H66.832V22.9531H67.8984ZM65.6562 24.9082V25.7969H58.4238V24.9082H61.5547V23.1035H62.6211V24.9082H65.6562ZM62.1016 26.8086C63.8242 26.8086 65.0684 27.957 65.082 29.5977C65.0684 31.2383 63.8242 32.3867 62.1016 32.3867C60.3652 32.3867 59.1074 31.2383 59.1211 29.5977C59.1074 27.957 60.3652 26.8086 62.1016 26.8086ZM62.1016 27.7109C60.9668 27.7109 60.1328 28.5039 60.1465 29.5977C60.1328 30.7051 60.9668 31.4844 62.1016 31.4707C63.2227 31.4844 64.043 30.7051 64.0566 29.5977C64.043 28.5039 63.2227 27.7109 62.1016 27.7109ZM80.2135 23.4453V26.6035H72.8854V28.1758H80.4733V29.0645H71.8053V25.7559H79.1198V24.3203H71.778V23.4453H80.2135ZM81.567 30.3496V31.2109H76.5084V35.1348H75.442V31.2109H70.4381V30.3496H81.567ZM91.8177 22.9531V27.9707H93.8548V28.8594H91.8177V35.1074H90.7512V22.9531H91.8177ZM89.5755 24.9082V25.7969H82.343V24.9082H85.4739V23.1035H86.5403V24.9082H89.5755ZM86.0208 26.8086C87.7434 26.8086 88.9876 27.957 89.0012 29.5977C88.9876 31.2383 87.7434 32.3867 86.0208 32.3867C84.2845 32.3867 83.0266 31.2383 83.0403 29.5977C83.0266 27.957 84.2845 26.8086 86.0208 26.8086ZM86.0208 27.7109C84.886 27.7109 84.052 28.5039 84.0657 29.5977C84.052 30.7051 84.886 31.4844 86.0208 31.4707C87.1419 31.4844 87.9622 30.7051 87.9759 29.5977C87.9622 28.5039 87.1419 27.7109 86.0208 27.7109ZM104.133 23.4453V26.6035H96.8046V28.1758H104.393V29.0645H95.7245V25.7559H103.039V24.3203H95.6972V23.4453H104.133ZM105.486 30.3496V31.2109H100.428V35.1348H99.3613V31.2109H94.3573V30.3496H105.486ZM115.737 22.9531V27.9023H117.706V28.8047H115.737V35.1074H114.67V22.9531H115.737ZM112.592 24.2656C112.592 27.7109 110.979 30.8418 107.014 32.7969L106.413 31.9492C109.557 30.3838 111.266 28.0459 111.512 25.168H106.973V24.2656H112.592ZM131.74 22.9668V31.8809H130.66V27.2188H128.158V26.3301H130.66V22.9668H131.74ZM132.082 33.9453V34.8477H123.933V31.0742H125.014V33.9453H132.082ZM125.889 25.4688C125.889 27.041 127.105 28.5723 128.883 29.1738L128.322 30.0352C126.948 29.543 125.889 28.5176 125.369 27.2598C124.843 28.6611 123.722 29.7822 122.279 30.3223L121.719 29.4473C123.51 28.8184 124.808 27.2188 124.808 25.4688V24.8398H122.06V23.9512H128.609V24.8398H125.889V25.4688ZM137.219 25.4277C137.206 26.918 138.067 28.2441 139.625 28.832L139.051 29.6523C137.916 29.208 137.13 28.3535 136.727 27.2871C136.296 28.4766 135.462 29.4746 134.266 29.9941L133.678 29.1602C135.278 28.4629 136.18 26.9453 136.18 25.4277V24.8535H133.911V23.9785H139.407V24.8535H137.219V25.4277ZM143.946 22.9668V30.418H142.92V27.0957H141.334V30.0215H140.295V23.1992H141.334V26.207H142.92V22.9668H143.946ZM139.926 30.7051C142.442 30.7051 144.014 31.5117 144.014 32.8926C144.014 34.2734 142.442 35.0801 139.926 35.0801C137.397 35.0801 135.838 34.2734 135.852 32.8926C135.838 31.5117 137.397 30.7051 139.926 30.7051ZM139.926 31.5391C138.067 31.5391 136.905 32.0449 136.918 32.8926C136.905 33.7402 138.067 34.2324 139.926 34.2324C141.772 34.2324 142.934 33.7402 142.948 32.8926C142.934 32.0449 141.772 31.5391 139.926 31.5391ZM155.605 22.9531V35.1348H154.525V22.9531H155.605ZM149.138 23.8965C150.942 23.9102 152.241 25.5508 152.241 28.1348C152.241 30.7188 150.942 32.3594 149.138 32.3594C147.319 32.3594 146.034 30.7188 146.034 28.1348C146.034 25.5508 147.319 23.9102 149.138 23.8965ZM149.138 24.8535C147.921 24.8672 147.073 26.1523 147.073 28.1348C147.073 30.1172 147.921 31.4023 149.138 31.4023C150.355 31.4023 151.202 30.1172 151.202 28.1348C151.202 26.1523 150.355 24.8672 149.138 24.8535ZM167.961 22.9531V35.1074H166.922V22.9531H167.961ZM165.513 23.2129V34.4922H164.488V28.5859H162.929C162.813 30.9512 161.808 32.4277 160.304 32.4277C158.719 32.4277 157.693 30.7871 157.693 28.2031C157.693 25.6191 158.719 23.9785 160.304 23.9785C161.781 23.9785 162.779 25.4072 162.916 27.6973H164.488V23.2129H165.513ZM160.304 24.9902C159.32 24.9902 158.691 26.2207 158.705 28.2031C158.691 30.1719 159.32 31.416 160.304 31.4023C161.289 31.416 161.918 30.1719 161.918 28.2031C161.918 26.2207 161.289 24.9902 160.304 24.9902ZM180.631 32.6465V33.5488H169.502V32.6465H172.264V29.3652C171.225 28.8252 170.596 27.9502 170.596 26.8496C170.596 24.9629 172.442 23.7324 175.039 23.7188C177.637 23.7324 179.483 24.9629 179.483 26.8496C179.483 27.9297 178.874 28.7979 177.87 29.3379V32.6465H180.631ZM175.039 24.6074C173.043 24.5938 171.635 25.4961 171.635 26.8496C171.635 28.2031 173.043 29.1191 175.039 29.1191C177.022 29.1191 178.444 28.2031 178.444 26.8496C178.444 25.4961 177.022 24.5938 175.039 24.6074ZM173.317 32.6465H176.789V29.748C176.263 29.8916 175.675 29.9668 175.039 29.9668C174.417 29.9668 173.836 29.8984 173.317 29.7617V32.6465Z" fill="#ECECEE"/>
<g clip-path="url(#clip0_1193_32359)">
<path d="M32 41.25C38.7655 41.25 44.25 35.7655 44.25 29C44.25 22.2345 38.7655 16.75 32 16.75C25.2345 16.75 19.75 22.2345 19.75 29C19.75 35.7655 25.2345 41.25 32 41.25Z" fill="#FFC749"/>
<path d="M36.3778 35.5975C36.0915 35.5975 35.815 35.4792 35.6176 35.272L34.1861 33.7698L32.7616 35.2699C32.3668 35.6857 31.6332 35.685 31.2391 35.2699L29.8146 33.7698L28.3824 35.272C28.1857 35.4785 27.9085 35.5975 27.6229 35.5975C27.3366 35.5975 27.0587 35.4778 26.862 35.2699L24.9307 33.2364C24.6647 32.9564 24.6759 32.5133 24.9566 32.2466C25.2366 31.9813 25.6797 31.9918 25.9464 32.2725L27.625 34.0393L29.0565 32.5378C29.2532 32.3313 29.5304 32.2123 29.816 32.2123C30.1023 32.2123 30.3795 32.3313 30.5762 32.5392L32.0007 34.0393L33.4245 32.5399C33.6219 32.332 33.8991 32.213 34.1854 32.213C34.471 32.213 34.7482 32.332 34.9456 32.5385L36.3771 34.04L38.0557 32.2732C38.3231 31.9932 38.7662 31.982 39.0455 32.2473C39.3262 32.5133 39.3374 32.9564 39.0714 33.2371L37.1394 35.2706C36.9427 35.4778 36.6655 35.5975 36.3792 35.5975H36.3778Z" fill="#FF1F44"/>
<path d="M28.8661 28.7816C28.7982 28.7816 28.7303 28.7788 28.6624 28.7725C28.0324 28.7172 27.4647 28.4148 27.0636 27.9206C26.6492 27.4096 26.4896 26.8951 26.5463 26.2518C26.5848 25.815 26.7871 25.4132 27.1168 25.122C27.4199 24.8539 27.8462 24.716 28.2564 24.7482C28.6491 24.7804 29.004 24.9694 29.256 25.2809C29.5129 25.598 29.6165 25.9956 29.5731 26.4961C29.5479 26.7852 29.2959 26.9994 29.0047 26.9735C28.7156 26.9483 28.5021 26.6935 28.5273 26.4051C28.5525 26.1174 28.4895 26.0033 28.4405 25.9424C28.3677 25.8521 28.2788 25.8038 28.1696 25.7947C28.0247 25.7814 27.8861 25.843 27.8119 25.9088C27.6845 26.0215 27.6061 26.1755 27.5914 26.3442C27.5585 26.7187 27.6334 26.9581 27.8784 27.2598C28.0982 27.5314 28.409 27.6973 28.7534 27.7274C29.1237 27.7575 29.5066 27.6308 29.8027 27.3746C30.089 27.1261 30.2647 26.7768 30.299 26.3904C30.3438 25.7786 30.1611 25.1857 29.7817 24.7174C29.4149 24.2652 28.8976 23.9887 28.3243 23.9383C27.7195 23.8823 27.121 24.0846 26.6443 24.499C26.1809 24.9015 25.896 25.4657 25.8421 26.0894C25.7924 26.6627 25.9961 27.3354 26.3622 27.8023C26.5407 28.0305 26.5008 28.3609 26.2726 28.5394C26.0444 28.7179 25.714 28.678 25.5355 28.4498C25.0063 27.7743 24.7228 26.8342 24.7963 25.9977C24.8747 25.1017 25.2863 24.2876 25.9562 23.7059C26.6506 23.1032 27.5235 22.8127 28.4167 22.8925C29.2756 22.9674 30.0505 23.3811 30.5979 24.0566C31.1565 24.7454 31.4211 25.6183 31.3427 26.515C31.2776 27.1611 30.9766 27.7463 30.4922 28.1677C30.0358 28.5639 29.4534 28.7823 28.8668 28.7823L28.8661 28.7816Z" fill="black"/>
<path d="M35.8689 28.9006C35.7737 28.9006 35.6785 28.8964 35.5826 28.888C34.7237 28.8131 33.9488 28.3994 33.4014 27.7239C32.8428 27.0351 32.5782 26.1622 32.6566 25.2655C32.7217 24.6194 33.0227 24.0342 33.5071 23.6128C34.016 23.1704 34.6761 22.9506 35.3362 23.0066C35.9662 23.0619 36.5339 23.3643 36.935 23.8585C37.3494 24.3695 37.509 24.884 37.4523 25.528C37.4138 25.9648 37.2115 26.3659 36.8818 26.6571C36.578 26.9259 36.1531 27.0645 35.7415 27.0316C35.3488 26.9987 34.9939 26.8097 34.7426 26.4989C34.485 26.1811 34.3814 25.7842 34.4255 25.283C34.4507 24.9939 34.6992 24.7776 34.9939 24.8056C35.283 24.8308 35.4965 25.0856 35.4713 25.374C35.4461 25.6617 35.5091 25.7765 35.5581 25.8374C35.6309 25.927 35.7191 25.9753 35.829 25.9844C35.9697 25.9956 36.1125 25.9361 36.1867 25.8703C36.3141 25.7576 36.3918 25.6036 36.4065 25.4356C36.4394 25.0611 36.3645 24.8217 36.1195 24.5193C35.8997 24.2477 35.5889 24.0818 35.2445 24.0517C34.8707 24.0202 34.4906 24.1476 34.1952 24.4045C33.9089 24.653 33.7332 25.0023 33.6989 25.3887C33.6541 26.0005 33.8368 26.5934 34.2162 27.0617C34.583 27.5139 35.1003 27.7904 35.6736 27.8408C36.2798 27.8947 36.8762 27.6945 37.3536 27.2801C37.817 26.8776 38.1019 26.3134 38.1558 25.6897C38.2055 25.1164 38.0018 24.4437 37.6357 23.9768C37.4572 23.7486 37.4971 23.4182 37.7253 23.2397C37.9535 23.0612 38.2839 23.1011 38.4624 23.3293C38.9916 24.0048 39.2751 24.9449 39.2016 25.7814C39.1232 26.6774 38.7116 27.4915 38.0417 28.0732C37.4222 28.6115 36.6592 28.8992 35.8675 28.8992L35.8689 28.9006Z" fill="black"/>
</g>
<defs>
<clipPath id="clip0_1193_32359">
<rect width="28" height="28" fill="white" transform="translate(18 15)"/>
</clipPath>
</defs>
</svg>