<svg width="28" height="28" viewBox="0 0 28 28" fill="none" xmlns="http://www.w3.org/2000/svg">
<g clip-path="url(#clip0_1193_32361)">
<path d="M14 26.25C20.7655 26.25 26.25 20.7655 26.25 14C26.25 7.23451 20.7655 1.75 14 1.75C7.23451 1.75 1.75 7.23451 1.75 14C1.75 20.7655 7.23451 26.25 14 26.25Z" fill="#FFC749"/>
<path d="M18.3778 20.5975C18.0915 20.5975 17.815 20.4792 17.6176 20.272L16.1861 18.7698L14.7616 20.2699C14.3668 20.6857 13.6332 20.685 13.2391 20.2699L11.8146 18.7698L10.3824 20.272C10.1857 20.4785 9.9085 20.5975 9.6229 20.5975C9.3366 20.5975 9.0587 20.4778 8.862 20.2699L6.9307 18.2364C6.6647 17.9564 6.6759 17.5133 6.9566 17.2466C7.2366 16.9813 7.6797 16.9918 7.9464 17.2725L9.625 19.0393L11.0565 17.5378C11.2532 17.3313 11.5304 17.2123 11.816 17.2123C12.1023 17.2123 12.3795 17.3313 12.5762 17.5392L14.0007 19.0393L15.4245 17.5399C15.6219 17.332 15.8991 17.213 16.1854 17.213C16.471 17.213 16.7482 17.332 16.9456 17.5385L18.3771 19.04L20.0557 17.2732C20.3231 16.9932 20.7662 16.982 21.0455 17.2473C21.3262 17.5133 21.3374 17.9564 21.0714 18.2371L19.1394 20.2706C18.9427 20.4778 18.6655 20.5975 18.3792 20.5975H18.3778Z" fill="#FF1F44"/>
<path d="M10.8661 13.7816C10.7982 13.7816 10.7303 13.7788 10.6624 13.7725C10.0324 13.7172 9.46466 13.4148 9.06356 12.9206C8.64916 12.4096 8.48956 11.8951 8.54626 11.2518C8.58476 10.815 8.78706 10.4132 9.11676 10.122C9.41986 9.85389 9.84616 9.71599 10.2564 9.74819C10.6491 9.78039 11.004 9.96939 11.256 10.2809C11.5129 10.598 11.6165 10.9956 11.5731 11.4961C11.5479 11.7852 11.2959 11.9994 11.0047 11.9735C10.7156 11.9483 10.5021 11.6935 10.5273 11.4051C10.5525 11.1174 10.4895 11.0033 10.4405 10.9424C10.3677 10.8521 10.2788 10.8038 10.1696 10.7947C10.0247 10.7814 9.88606 10.843 9.81186 10.9088C9.68446 11.0215 9.60606 11.1755 9.59136 11.3442C9.55846 11.7187 9.63336 11.9581 9.87836 12.2598C10.0982 12.5314 10.409 12.6973 10.7534 12.7274C11.1237 12.7575 11.5066 12.6308 11.8027 12.3746C12.089 12.1261 12.2647 11.7768 12.299 11.3904C12.3438 10.7786 12.1611 10.1857 11.7817 9.71739C11.4149 9.26519 10.8976 8.98869 10.3243 8.93829C9.71946 8.88229 9.12096 9.08459 8.64426 9.49899C8.18086 9.90149 7.89596 10.4657 7.84206 11.0894C7.79236 11.6627 7.99606 12.3354 8.36216 12.8023C8.54066 13.0305 8.50076 13.3609 8.27256 13.5394C8.04436 13.7179 7.71396 13.678 7.53546 13.4498C7.00626 12.7743 6.72276 11.8342 6.79626 10.9977C6.87466 10.1017 7.28626 9.28759 7.95616 8.70589C8.65056 8.10319 9.52346 7.81269 10.4167 7.89249C11.2756 7.96739 12.0505 8.38109 12.5979 9.05659C13.1565 9.74539 13.4211 10.6183 13.3427 11.515C13.2776 12.1611 12.9766 12.7463 12.4922 13.1677C12.0358 13.5639 11.4534 13.7823 10.8668 13.7823L10.8661 13.7816Z" fill="black"/>
<path d="M17.8689 13.9006C17.7737 13.9006 17.6785 13.8964 17.5826 13.888C16.7237 13.8131 15.9488 13.3994 15.4014 12.7239C14.8428 12.0351 14.5782 11.1622 14.6566 10.2655C14.7217 9.61943 15.0227 9.03423 15.5071 8.61283C16.016 8.17043 16.6761 7.95063 17.3362 8.00663C17.9662 8.06193 18.5339 8.36433 18.935 8.85853C19.3494 9.36953 19.509 9.88403 19.4523 10.528C19.4138 10.9648 19.2115 11.3659 18.8818 11.6571C18.578 11.9259 18.1531 12.0645 17.7415 12.0316C17.3488 11.9987 16.9939 11.8097 16.7426 11.4989C16.485 11.1811 16.3814 10.7842 16.4255 10.283C16.4507 9.99393 16.6992 9.77763 16.9939 9.80563C17.283 9.83083 17.4965 10.0856 17.4713 10.374C17.4461 10.6617 17.5091 10.7765 17.5581 10.8374C17.6309 10.927 17.7191 10.9753 17.829 10.9844C17.9697 10.9956 18.1125 10.9361 18.1867 10.8703C18.3141 10.7576 18.3918 10.6036 18.4065 10.4356C18.4394 10.0611 18.3645 9.82173 18.1195 9.51933C17.8997 9.24773 17.5889 9.08183 17.2445 9.05173C16.8707 9.02023 16.4906 9.14763 16.1952 9.40453C15.9089 9.65303 15.7332 10.0023 15.6989 10.3887C15.6541 11.0005 15.8368 11.5934 16.2162 12.0617C16.583 12.5139 17.1003 12.7904 17.6736 12.8408C18.2798 12.8947 18.8762 12.6945 19.3536 12.2801C19.817 11.8776 20.1019 11.3134 20.1558 10.6897C20.2055 10.1164 20.0018 9.44373 19.6357 8.97683C19.4572 8.74863 19.4971 8.41823 19.7253 8.23973C19.9535 8.06123 20.2839 8.10113 20.4624 8.32933C20.9916 9.00483 21.2751 9.94493 21.2016 10.7814C21.1232 11.6774 20.7116 12.4915 20.0417 13.0732C19.4222 13.6115 18.6592 13.8992 17.8675 13.8992L17.8689 13.9006Z" fill="black"/>
</g>
<defs>
<clipPath id="clip0_1193_32361">
<rect width="28" height="28" fill="white"/>
</clipPath>
</defs>
</svg>
