<svg width="28" height="28" viewBox="0 0 28 28" fill="none" xmlns="http://www.w3.org/2000/svg">
<g clip-path="url(#clip0_1193_32462)">
<path d="M12.1918 21.4287V20.3339C12.1918 19.9685 12.4879 19.6724 12.8533 19.6724H23.634V5.17962C23.634 4.02602 22.6988 3.09082 21.5452 3.09082H3.13867C3.16737 3.09082 3.19327 3.09782 3.22197 3.09922C4.33637 3.14402 5.22817 4.05472 5.22817 5.17962V21.4287C5.22817 23.3516 6.78707 24.9105 8.70997 24.9105C10.6329 24.9105 12.1918 23.3516 12.1918 21.4287ZM6.99357 7.09342H21.7335V7.79342H6.99357V7.09342ZM6.99357 9.63232H21.7335V10.3323H6.99357V9.63232ZM6.99357 12.1712H21.7335V12.8712H6.99357V12.1712ZM6.99357 15.4101V14.7101H21.7335V15.4101H6.99357Z" fill="#E3D6C3"/>
<path d="M3.22288 3.09851H3.13958C1.98598 3.09851 1.05078 4.03441 1.05078 5.18801V6.51031C1.05078 6.87571 1.34688 7.17181 1.71228 7.17181H5.22908V5.17961C5.22908 4.05401 4.33728 3.14261 3.22288 3.09851Z" fill="#D7BF95"/>
<path d="M26.951 20.3358V21.4278C26.951 23.3528 25.39 24.9138 23.472 24.9138H8.70898C10.634 24.9138 12.195 23.3528 12.195 21.4278V20.3358C12.195 19.9718 12.489 19.6708 12.853 19.6708H26.293C26.657 19.6708 26.951 19.9718 26.951 20.3358Z" fill="#D7BF95"/>
<path d="M21.734 7.09363H6.99414V7.79363H21.734V7.09363Z" fill="#D7BF95"/>
<path d="M21.734 9.63269H6.99414V10.3327H21.734V9.63269Z" fill="#D7BF95"/>
<path d="M21.734 12.1708H6.99414V12.8708H21.734V12.1708Z" fill="#D7BF95"/>
<path d="M21.734 14.7098H6.99414V15.4098H21.734V14.7098Z" fill="#D7BF95"/>
</g>
<defs>
<clipPath id="clip0_1193_32462">
<rect width="28" height="28" fill="white"/>
</clipPath>
</defs>
</svg>
