<svg width="28" height="28" viewBox="0 0 28 28" fill="none" xmlns="http://www.w3.org/2000/svg">
<g clip-path="url(#clip0_1193_32485)">
<path d="M21.854 7.74902C22.1403 9.65932 22.4728 10.7527 21.1064 10.7527C19.2472 10.7527 19.2465 6.35252 16.1 3.84582C12.9871 1.36642 10.6652 1.96912 10.6162 1.98242C10.6155 1.98312 10.6141 1.98452 10.6134 1.98522C13.2062 4.14962 11.76 7.70702 10.0632 8.68772C8.43496 9.62852 6.57646 8.44202 7.54946 5.64972C5.40956 8.57572 3.56226 12.1212 3.56226 15.6541C3.56226 21.4186 8.23546 26.0918 14 26.0918C19.7645 26.0918 24.4377 21.4186 24.4377 15.6541C24.4377 12.9304 23.3373 10.199 21.854 7.74902Z" fill="#E61D3E"/>
<path d="M14 14.0126C14 14.0126 18.5388 16.6264 18.5388 20.2783C18.5388 22.785 16.5067 24.8171 14 24.8171C11.4933 24.8171 9.46118 22.785 9.46118 20.2783C9.46118 16.6264 14 14.0126 14 14.0126Z" fill="#FF5D7E"/>
</g>
<defs>
<clipPath id="clip0_1193_32485">
<rect width="28" height="28" fill="white"/>
</clipPath>
</defs>
</svg>
