<svg width="28" height="28" viewBox="0 0 28 28" fill="none" xmlns="http://www.w3.org/2000/svg">
<g clip-path="url(#clip0_1193_32403)">
<path d="M14 26.25C20.7655 26.25 26.25 20.7655 26.25 14C26.25 7.23451 20.7655 1.75 14 1.75C7.23451 1.75 1.75 7.23451 1.75 14C1.75 20.7655 7.23451 26.25 14 26.25Z" fill="#FFC749"/>
<path d="M14.25 18.8223C12.1724 19.0043 10.6002 18.767 9.65305 18.5381C9.22115 18.4338 8.94185 18.9826 9.28135 19.2682C10.2789 20.1089 12.2781 20.734 14.4005 20.5478C16.5229 20.3623 18.3835 19.3998 19.2193 18.3988C19.5042 18.0579 19.1339 17.5665 18.7265 17.7443C17.8333 18.1335 16.3269 18.6403 14.25 18.8223Z" fill="#FF1F44"/>
<path d="M10.7086 15.2663C11.546 15.2663 12.2248 14.5875 12.2248 13.7501C12.2248 12.9127 11.546 12.2339 10.7086 12.2339C9.87121 12.2339 9.19238 12.9127 9.19238 13.7501C9.19238 14.5875 9.87121 15.2663 10.7086 15.2663Z" fill="black"/>
<path d="M10.0253 12.047C11.1614 12.047 11.8565 12.5916 12.0707 13.0977C12.1701 13.3322 12.0266 13.4407 11.7879 13.328C11.4092 13.1495 10.9052 12.9542 10.0253 12.9542C9.14615 12.9542 8.48675 13.1495 8.10805 13.328C7.86935 13.4407 7.73915 13.2706 7.89035 13.0571C8.20675 12.6084 8.88995 12.047 10.0253 12.047Z" fill="black"/>
<path d="M17.7086 15.2663C18.546 15.2663 19.2248 14.5875 19.2248 13.7501C19.2248 12.9127 18.546 12.2339 17.7086 12.2339C16.8712 12.2339 16.1924 12.9127 16.1924 13.7501C16.1924 14.5875 16.8712 15.2663 17.7086 15.2663Z" fill="black"/>
<path d="M17.0253 12.047C18.1614 12.047 18.8565 12.5916 19.0707 13.0977C19.1701 13.3322 19.0266 13.4407 18.7879 13.328C18.4092 13.1495 17.9052 12.9542 17.0253 12.9542C16.1461 12.9542 15.4867 13.1495 15.108 13.328C14.8693 13.4407 14.7391 13.2706 14.8903 13.0571C15.2067 12.6084 15.8899 12.047 17.0253 12.047Z" fill="black"/>
</g>
<defs>
<clipPath id="clip0_1193_32403">
<rect width="28" height="28" fill="white"/>
</clipPath>
</defs>
</svg>
