<svg width="28" height="28" viewBox="0 0 28 28" fill="none" xmlns="http://www.w3.org/2000/svg">
<g clip-path="url(#clip0_1193_32384)">
<path d="M1.9258 4.3953L3.8921 11.5108L10.5204 6.0354L3.9047 2.7608C2.8155 2.2218 1.6017 3.2242 1.9258 4.396V4.3953Z" fill="#FF1F44"/>
<path d="M18.9995 19.3291H15.783C15.426 19.3291 15.1369 19.04 15.1369 18.683C15.1369 18.326 15.426 18.0369 15.783 18.0369H23.8603C23.9793 18.0369 24.0927 18.0187 24.2033 17.9914C24.4098 17.1374 24.5309 16.2505 24.5309 15.3335C24.5309 15.3244 24.5295 15.3167 24.5295 15.3076C24.3293 15.2019 24.1025 15.1396 23.8603 15.1396C23.0616 15.1396 22.412 15.7892 22.412 16.5886C22.412 16.9456 22.1229 17.2347 21.7659 17.2347C21.4089 17.2347 21.1205 16.9456 21.1205 16.5886C21.1205 15.0773 22.3497 13.8481 23.8603 13.8481C24.0577 13.8481 24.2474 13.8761 24.4329 13.916C23.7343 8.34541 18.9904 4.03271 13.2301 4.03271C6.98819 4.03271 1.92859 9.09232 1.92859 15.3342C1.92859 21.5761 6.98819 26.635 13.2294 26.635C18.0622 26.635 22.1747 23.5956 23.7903 19.3291H18.9995Z" fill="#FFC749"/>
<path d="M13.0961 3.54369L12.137 2.40021C11.9373 2.16206 11.5823 2.13091 11.3442 2.33065L10.2007 3.28967C9.96254 3.4894 9.93139 3.84438 10.1311 4.08254L11.0901 5.22602C11.2899 5.46417 11.6449 5.49532 11.883 5.29558L13.0265 4.33657C13.2647 4.13683 13.2958 3.78185 13.0961 3.54369Z" fill="#D83261"/>
<path d="M20.965 4.9932L19.2988 5.83364C18.9522 6.00844 18.813 6.43109 18.9878 6.77764L19.8282 8.44389C20.003 8.79044 20.4257 8.92968 20.7722 8.75488L22.4385 7.91444C22.785 7.73964 22.9242 7.317 22.7494 6.97044L21.909 5.3042C21.7342 4.95764 21.3116 4.8184 20.965 4.9932Z" fill="#F66570"/>
<path d="M11.1055 21.811L9.65316 22.1545C9.35068 22.2261 9.16347 22.5293 9.23502 22.8317L9.57855 24.2841C9.65009 24.5865 9.9533 24.7738 10.2558 24.7022L11.7081 24.3587C12.0106 24.2871 12.1978 23.9839 12.1262 23.6814L11.7827 22.2291C11.7112 21.9266 11.408 21.7394 11.1055 21.811Z" fill="#FAFAFA"/>
<path d="M5.11686 20.3055L4.55153 18.527C4.43394 18.1571 4.03875 17.9526 3.66885 18.0701L1.89034 18.6355C1.52043 18.7531 1.31588 19.1483 1.43346 19.5182L1.9988 21.2967C2.11638 21.6666 2.51157 21.8711 2.88148 21.7535L4.65999 21.1882C5.0299 21.0706 5.23445 20.6754 5.11686 20.3055Z" fill="#FF4646"/>
<path d="M26.4026 15.5827C26.0687 14.7427 25.3316 14.1106 24.4321 13.9167C24.2466 13.8768 24.0569 13.8488 23.8595 13.8488C22.3482 13.8488 21.1197 15.078 21.1197 16.5893C21.1197 16.9463 21.4088 17.2354 21.7651 17.2354C22.1214 17.2354 22.4112 16.9463 22.4112 16.5893C22.4112 15.7906 23.0608 15.1403 23.8595 15.1403C24.1017 15.1403 24.3285 15.2026 24.5287 15.3083C24.885 15.4973 25.1545 15.8298 25.2574 16.2302C25.2868 16.3457 25.3078 16.4647 25.3078 16.5893C25.3078 17.2697 24.8353 17.8374 24.2025 17.9921C24.0919 18.0194 23.9778 18.0376 23.8595 18.0376H15.7822C15.757 18.0376 15.7353 18.0495 15.7108 18.0523C15.5876 18.1531 15.4595 18.2448 15.3384 18.3365C15.6408 18.5647 16.0153 18.9168 16.2176 19.3298H23.8588C25.3701 19.3298 26.5986 18.1006 26.5986 16.59C26.5986 16.2337 26.5258 15.8956 26.4012 15.5834L26.4026 15.5827Z" fill="#FF1F44"/>
<path d="M16.0153 3.47132C16.5968 3.47132 17.0681 2.99997 17.0681 2.41852C17.0681 1.83708 16.5968 1.36572 16.0153 1.36572C15.4339 1.36572 14.9625 1.83708 14.9625 2.41852C14.9625 2.99997 15.4339 3.47132 16.0153 3.47132Z" fill="#F8CCEA"/>
<path d="M3.43769 25.3827C4.01913 25.3827 4.49049 24.9113 4.49049 24.3299C4.49049 23.7485 4.01913 23.2771 3.43769 23.2771C2.85624 23.2771 2.38489 23.7485 2.38489 24.3299C2.38489 24.9113 2.85624 25.3827 3.43769 25.3827Z" fill="#F8CCEA"/>
<path d="M23.0573 25.1636C23.6388 25.1636 24.1101 24.6923 24.1101 24.1108C24.1101 23.5294 23.6388 23.058 23.0573 23.058C22.4759 23.058 22.0045 23.5294 22.0045 24.1108C22.0045 24.6923 22.4759 25.1636 23.0573 25.1636Z" fill="#D83261"/>
<path d="M24.9739 10.3139C25.5554 10.3139 26.0267 9.8425 26.0267 9.26105C26.0267 8.67961 25.5554 8.20825 24.9739 8.20825C24.3925 8.20825 23.9211 8.67961 23.9211 9.26105C23.9211 9.8425 24.3925 10.3139 24.9739 10.3139Z" fill="#FF9A9A"/>
<path d="M15.3391 18.3358C15.4602 18.2441 15.5883 18.1524 15.7115 18.0516C16.0461 17.7779 16.3359 17.4363 16.2995 16.8343C16.2316 15.7108 14.4452 15.3944 14.21 15.3944C13.9685 15.3944 13.818 15.4175 13.8159 15.5645C13.8138 15.7115 13.9902 15.7619 14.2436 15.8382C15.0185 16.072 15.3237 16.5249 15.3237 16.8476C15.3237 17.4356 14.749 17.7268 14.4221 17.9368C14.1568 18.1076 13.9888 18.1489 13.9818 18.2938C13.9762 18.4177 14.1498 18.4814 14.4207 18.6536C14.6916 18.8258 15.2796 19.2136 15.2796 19.8681C15.2796 20.3735 14.8512 20.7543 14.2422 20.9958C13.8775 21.1407 13.7375 21.2051 13.7592 21.3437C13.7809 21.4823 13.9776 21.511 14.3017 21.511C14.8498 21.511 16.2743 21.2163 16.3618 19.9738C16.3779 19.7484 16.317 19.5321 16.2176 19.3291C16.0153 18.9161 15.6408 18.564 15.3391 18.3358Z" fill="#FF1F44"/>
<path d="M8.19772 13.4316C8.03252 13.5324 7.82042 13.3994 7.84212 13.2076C7.96392 12.1387 8.79832 11.2714 9.88052 11.1762C10.9627 11.0817 11.935 11.7908 12.2402 12.8226C12.2948 13.0081 12.1093 13.1754 11.9294 13.1054C11.536 12.9521 10.8717 12.7736 10.0268 12.8478C9.18192 12.922 8.55892 13.2125 8.19772 13.4316Z" fill="black"/>
<path d="M18.9644 13.4316C19.1296 13.5324 19.3417 13.3994 19.32 13.2076C19.1982 12.1387 18.3638 11.2714 17.2816 11.1762C16.1994 11.081 15.2271 11.7908 14.9219 12.8226C14.8673 13.0081 15.0528 13.1754 15.2327 13.1054C15.6261 12.9521 16.2904 12.7736 17.1353 12.8478C17.9802 12.922 18.6032 13.2125 18.9644 13.4316Z" fill="black"/>
</g>
<defs>
<clipPath id="clip0_1193_32384">
<rect width="28" height="28" fill="white"/>
</clipPath>
</defs>
</svg>
