<svg viewBox="0 0 51 51" fill="none" xmlns="http://www.w3.org/2000/svg">
<g clip-path="url(#clip0_1603_3318)">
<path d="M38.3789 15.2179C39.3352 14.1942 39.3302 12.6304 38.4214 11.6017C39.2589 10.5142 39.1589 8.95295 38.1364 7.9967C37.1139 7.04045 35.5502 7.04545 34.5202 7.9542C33.4327 7.1167 31.8714 7.2167 30.9152 8.2392C29.9589 9.26295 29.9639 10.8267 30.8727 11.8554C30.0352 12.9429 30.1339 14.5042 31.1577 15.4604C32.1814 16.4167 33.7452 16.4117 34.7739 15.5029C35.8614 16.3404 37.4227 16.2404 38.3789 15.2179Z" fill="#FFC733"/>
<path d="M27.7427 11.3982C28.4664 10.1995 28.1377 8.67072 27.0352 7.85197C27.6289 6.61447 27.2089 5.10822 26.0089 4.38447C24.8102 3.66072 23.2814 3.98947 22.4627 5.09197C21.2252 4.49822 19.7189 4.91822 18.9939 6.11822C18.2689 7.31822 18.5989 8.84572 19.7014 9.66447C19.1077 10.902 19.5277 12.4082 20.7277 13.1332C21.9277 13.857 23.4552 13.5282 24.2739 12.4257C25.5114 13.0195 27.0177 12.5995 27.7414 11.3995L27.7427 11.3982Z" fill="#FFC733"/>
<path d="M33.7224 11.9567C34.4287 10.7467 34.0749 9.223 32.9612 8.42175C33.5362 7.1755 33.0924 5.6755 31.8824 4.96925C30.6724 4.263 29.1487 4.61675 28.3474 5.7305C27.1012 5.1555 25.6012 5.59925 24.8949 6.80925C24.1887 8.01925 24.5424 9.543 25.6562 10.3442C25.0812 11.5905 25.5249 13.0905 26.7349 13.7967C27.9449 14.503 29.4687 14.1492 30.2712 13.0355C31.5174 13.6105 33.0162 13.1667 33.7224 11.9567Z" fill="#FFD361"/>
<path d="M17.7102 15.5285C17.7102 14.1272 16.6377 12.9897 15.2715 12.8572C15.1402 11.491 14.0015 10.4185 12.6002 10.4185C11.199 10.4185 10.0615 11.491 9.92898 12.8572C8.56273 12.9885 7.49023 14.1272 7.49023 15.5285C7.49023 16.9297 8.56273 18.0672 9.92898 18.1997C10.0602 19.566 11.199 20.6385 12.6002 20.6385C14.0015 20.6385 15.139 19.566 15.2715 18.1997C16.6377 18.0685 17.7102 16.9297 17.7102 15.5285Z" fill="#FFC733"/>
<path d="M31.4944 16.5485C31.4944 14.5835 29.9906 12.9872 28.0744 12.8022C27.8894 10.886 26.2931 9.3822 24.3281 9.3822C22.3631 9.3822 20.7669 10.886 20.5819 12.8022C18.6656 12.9872 17.1606 14.5835 17.1606 16.5485C17.1606 18.5135 18.6644 20.1097 20.5819 20.2947C20.7669 22.211 22.3631 23.716 24.3281 23.716C26.2931 23.716 27.8894 22.2122 28.0744 20.2947C29.9906 20.1097 31.4944 18.5135 31.4944 16.5485Z" fill="#FFDB80"/>
<path d="M43.7255 16.5484C43.7255 15.1471 42.653 14.0096 41.2867 13.8771C41.1555 12.5109 40.0167 11.4384 38.6155 11.4384C37.2142 11.4384 36.0767 12.5109 35.9442 13.8771C34.578 14.0084 33.5055 15.1471 33.5055 16.5484C33.5055 17.9496 34.578 19.0871 35.9442 19.2196C36.0755 20.5859 37.2142 21.6584 38.6155 21.6584C40.0167 21.6584 41.1542 20.5859 41.2867 19.2196C42.653 19.0884 43.7255 17.9496 43.7255 16.5484Z" fill="#FFDB80"/>
<path d="M22.2677 14.039C22.9015 12.789 22.4602 11.289 21.3002 10.554C21.8002 9.2753 21.2702 7.8053 20.0215 7.17155C18.7715 6.5378 17.2727 6.97905 16.5365 8.13905C15.2577 7.63905 13.7877 8.16905 13.154 9.4178C12.5202 10.6665 12.9615 12.1678 14.1215 12.9028C13.6215 14.1815 14.1515 15.6515 15.4002 16.2853C16.6502 16.919 18.1502 16.4778 18.8852 15.3178C20.164 15.8178 21.634 15.2878 22.2677 14.039Z" fill="#FFE9B0"/>
<path d="M36.4804 18.2556C37.1141 17.0056 36.6729 15.5056 35.5129 14.7706C36.0129 13.4919 35.4829 12.0219 34.2341 11.3881C32.9841 10.7544 31.4854 11.1956 30.7491 12.3556C29.4704 11.8556 28.0004 12.3856 27.3666 13.6344C26.7329 14.8831 27.1741 16.3844 28.3341 17.1194C27.8341 18.3981 28.3641 19.8681 29.6129 20.5019C30.8629 21.1356 32.3629 20.6944 33.0979 19.5344C34.3766 20.0344 35.8466 19.5044 36.4804 18.2556Z" fill="#FFE9B0"/>
<path d="M46.5201 19.8215H46.5164C46.4976 17.549 44.6526 15.7128 42.3764 15.7128C40.1001 15.7128 38.2551 17.5503 38.2364 19.8215H29.9414C29.9226 17.549 28.0776 15.7128 25.8014 15.7128C23.5251 15.7128 21.6801 17.5503 21.6614 19.8215H13.3664C13.3476 17.549 11.5026 15.7128 9.22639 15.7128C6.95014 15.7128 5.10514 17.5503 5.08639 19.8215H5.08264L5.08514 19.8365C5.08514 19.8428 5.08264 19.8503 5.08264 19.8565C5.08264 20.2165 5.14264 20.5603 5.23014 20.894L8.61639 45.6103C8.77264 46.7503 9.74639 47.6003 10.8976 47.6003H40.7076C41.8589 47.6003 42.8326 46.7503 42.9889 45.6103L46.3751 20.894C46.4614 20.5603 46.5214 20.2178 46.5214 19.8565C46.5214 19.8503 46.5189 19.844 46.5189 19.8365L46.5201 19.8215Z" fill="#E61D3E"/>
<path d="M38.2292 19.8545L38.2317 19.822H38.2254C38.2067 17.5495 36.3617 15.7133 34.0854 15.7133C31.8092 15.7133 29.9642 17.5508 29.9454 19.822H29.9429L29.1967 47.6008H35.9679L38.2292 19.8783C38.2292 19.8708 38.2317 19.8645 38.2317 19.857V19.8545H38.2292Z" fill="#D5D5D5"/>
<path d="M21.652 19.8218C21.6332 17.5493 19.7882 15.713 17.512 15.713C15.2357 15.713 13.3907 17.5505 13.372 19.8218H13.3657L13.3682 19.8543C13.3682 19.8605 13.3707 19.868 13.3707 19.8755L15.657 47.5993H22.427L21.6545 19.8205H21.652V19.8218Z" fill="#D5D5D5"/>
</g>
<defs>
<clipPath id="clip0_1603_3318">
<rect width="50" height="50" fill="white" transform="translate(0.799927 0.799927)"/>
</clipPath>
</defs>
</svg>
