<svg width="28" height="28" viewBox="0 0 28 28" fill="none" xmlns="http://www.w3.org/2000/svg">
<g clip-path="url(#clip0_1193_32372)">
<path d="M14 26.25C20.7655 26.25 26.25 20.7655 26.25 14C26.25 7.23451 20.7655 1.75 14 1.75C7.23451 1.75 1.75 7.23451 1.75 14C1.75 20.7655 7.23451 26.25 14 26.25Z" fill="#FFC749"/>
<path d="M14.0001 20.2256C12.8542 20.2256 11.9596 20.4237 11.3492 20.6232C11.0328 20.7268 10.7738 20.3502 10.9796 20.0891C11.5305 19.3905 12.5014 18.5582 14.0001 18.5582C15.4988 18.5582 16.469 19.3905 17.0206 20.0891C17.2271 20.3509 16.9681 20.7268 16.651 20.6232C16.0406 20.4237 15.146 20.2256 14.0001 20.2256Z" fill="#FF1F44"/>
<path d="M10.0021 14.9509C10.0021 14.9509 8.02808 17.0684 8.02808 18.7764C8.02808 19.8663 8.91218 20.7476 10.0021 20.7483C11.092 20.7483 11.9761 19.8663 11.9761 18.7764C11.9761 17.0684 10.0021 14.9509 10.0021 14.9509Z" fill="#FAFAFA"/>
<path d="M9.25297 7.39933C8.45497 7.77173 8.07977 8.16933 7.76757 8.52423C7.58767 8.72863 7.33287 8.63483 7.33497 8.34363C7.33987 7.71433 7.72837 6.85963 8.77417 6.37173C9.81997 5.88453 10.7244 6.13583 11.2095 6.53693C11.4342 6.72243 11.3425 6.97863 11.0695 6.98493C10.597 6.99543 10.051 7.02763 9.25297 7.39933Z" fill="black"/>
<path d="M18.7477 7.39933C19.5457 7.77173 19.9209 8.16933 20.2331 8.52423C20.413 8.72863 20.6678 8.63483 20.6657 8.34363C20.6608 7.71433 20.2723 6.85963 19.2265 6.37173C18.1807 5.88453 17.2763 6.13583 16.7912 6.53693C16.5665 6.72243 16.6582 6.97863 16.9312 6.98493C17.4037 6.99543 17.9497 7.02763 18.7477 7.39933Z" fill="black"/>
<path d="M10.7958 13.3844C11.6131 13.3844 12.2756 12.7219 12.2756 11.9046C12.2756 11.0873 11.6131 10.4248 10.7958 10.4248C9.97857 10.4248 9.31604 11.0873 9.31604 11.9046C9.31604 12.7219 9.97857 13.3844 10.7958 13.3844Z" fill="black"/>
<path d="M17.2051 13.3844C18.0224 13.3844 18.6849 12.7219 18.6849 11.9046C18.6849 11.0873 18.0224 10.4248 17.2051 10.4248C16.3879 10.4248 15.7253 11.0873 15.7253 11.9046C15.7253 12.7219 16.3879 13.3844 17.2051 13.3844Z" fill="black"/>
</g>
<defs>
<clipPath id="clip0_1193_32372">
<rect width="28" height="28" fill="white"/>
</clipPath>
</defs>
</svg>
