<svg
 viewBox="0 0 50 50" fill="none" xmlns="http://www.w3.org/2000/svg">
<g clip-path="url(#clip0_1115_12863)">
<path d="M25 46.875C37.0812 46.875 46.875 37.0812 46.875 25C46.875 12.9188 37.0812 3.125 25 3.125C12.9188 3.125 3.125 12.9188 3.125 25C3.125 37.0812 12.9188 46.875 25 46.875Z" fill="#FFC84D"/>
<path d="M13.111 31.8956C12.2872 32.1394 11.9535 33.1481 12.4722 33.8331C17.0935 39.9181 25.6247 41.7631 32.416 37.8431C39.2072 33.9219 41.8747 25.6119 38.916 18.5669C38.5835 17.7744 37.5422 17.5606 36.9197 18.1506C33.9085 21.0069 30.121 23.8356 25.7772 26.3431C21.4335 28.8506 17.0897 30.7156 13.111 31.8956Z" fill="#FF6D00"/>
<path d="M27.5612 29.5888C32.0012 27.0251 35.1412 22.9763 36.8624 18.1951C33.8587 21.0363 30.0974 23.8501 25.7762 26.3438C21.3824 28.8801 16.9887 30.7601 12.9712 31.9376C17.9962 32.8576 23.0999 32.1651 27.5612 29.5888Z" fill="white"/>
<path d="M19.6216 20.6088C20.2879 21.7625 18.3054 24.9188 16.1329 27.3175C15.8329 27.6488 15.3041 27.4813 15.3891 27.0813L16.0454 24.0338C16.2441 23.1138 15.7629 22.28 14.8666 21.9913L11.8979 21.0363C11.5091 20.9113 11.6291 20.3688 12.0654 20.275C15.2291 19.5925 18.9554 19.455 19.6216 20.6088Z" fill="black"/>
<path d="M23.8851 18.1469C24.5513 19.3007 28.2763 19.1619 31.4401 18.4807C31.8763 18.3869 31.9963 17.8444 31.6076 17.7194L28.6401 16.7632C27.7438 16.4744 27.2626 15.6407 27.4613 14.7207L28.1176 11.6719C28.2038 11.2719 27.6738 11.1057 27.3751 11.4357C25.2026 13.8344 23.2201 16.9919 23.8863 18.1457L23.8851 18.1469Z" fill="black"/>
<path d="M14.6003 36.0315C14.3053 37.7615 12.664 38.924 10.934 38.629C9.20402 38.334 8.04152 36.6927 8.33652 34.9627C8.63152 33.2327 12.8415 27.4427 12.8415 27.4427C12.8415 27.4427 14.8953 34.3015 14.6003 36.0315Z" fill="white"/>
<path d="M39.5762 20.8313C41.2687 21.2951 43.0162 20.2988 43.48 18.6076C43.9437 16.9151 42.9475 15.1676 41.2562 14.7038C39.5637 14.2401 32.5375 15.6088 32.5375 15.6088C32.5375 15.6088 37.885 20.3688 39.5775 20.8326L39.5762 20.8313Z" fill="white"/>
</g>
<defs>
<clipPath id="clip0_1115_12863">
<rect width="50" height="50" fill="white"/>
</clipPath>
</defs>
</svg>
