<svg width="335" height="57" viewBox="0 0 335 57" fill="none" xmlns="http://www.w3.org/2000/svg">
<rect x="0.5" y="0.5" width="334" height="56" rx="11.5" stroke="#29292C"/>
<path d="M67.9941 21.9531V25.1934H69.8262V26.1094H67.9941V29.2812H66.9277V21.9531H67.9941ZM67.9941 29.9785V33.9434H60.3242V29.9785H67.9941ZM61.377 30.8398V33.0684H66.9277V30.8398H61.377ZM65.7656 23.252V24.1406H58.5195V23.252H61.6094V21.8574H62.6758V23.252H65.7656ZM62.1426 24.7422C63.8926 24.7422 65.0547 25.6035 65.0684 26.9023C65.0547 28.2285 63.8926 29.0762 62.1426 29.0762C60.3789 29.0762 59.2031 28.2285 59.2168 26.9023C59.2031 25.6035 60.3789 24.7422 62.1426 24.7422ZM62.1426 25.5762C60.9941 25.5762 60.2285 26.1094 60.2422 26.9023C60.2285 27.7363 60.9941 28.2422 62.1426 28.2559C63.2773 28.2422 64.043 27.7363 64.0566 26.9023C64.043 26.1094 63.2773 25.5762 62.1426 25.5762ZM73.4733 23.4297C73.4596 25.9863 73.1041 28.8574 71.3268 31.209L70.4791 30.7168C72.0036 28.8096 72.4547 26.5605 72.5436 24.3184H70.7252V23.4297H73.4733ZM76.1666 23.4297C76.1598 24.4209 76.1393 25.5625 75.9889 26.7383H77.6022V22.2812H78.6276V33.4922H77.6022V27.627H75.8522C75.5719 29.1445 75.0387 30.6826 74.0475 32.0156L73.2135 31.5098C74.8952 29.3633 75.1754 26.5879 75.2233 24.3184H73.8561V23.4297H76.1666ZM80.9108 21.9531V34.1074H79.8717V21.9531H80.9108ZM96.914 31.6602V32.5488H85.7851V31.6602H90.789V29.0352H87.0976V22.8145H88.1777V25.0156H94.4941V22.8145H95.5468V29.0352H91.8417V31.6602H96.914ZM88.1777 28.1602H94.4941V25.8906H88.1777V28.1602ZM107.493 23.1836V24.4004C107.479 25.8906 107.479 27.5586 107.042 30.0059L105.948 29.8828C106.413 27.5586 106.413 25.8496 106.413 24.4004V24.0723H98.9205V23.1836H107.493ZM108.819 31.4961V32.3848H97.7447V31.4961H102.092V27.1484H103.145V31.4961H108.819ZM122.58 21.9531V25.043H124.412V25.959H122.58V29.0898H121.514V21.9531H122.58ZM119.244 22.7324C119.244 25.8086 117.097 27.9961 113.502 28.9531L113.064 28.1191C116.045 27.3125 117.884 25.6855 118.109 23.6211H113.611V22.7324H119.244ZM122.58 29.6504V34.1074H121.514V30.5254H114.623V29.6504H122.58ZM129.153 25.6855C129.139 27.6406 130.547 29.7871 132.311 30.6211L131.696 31.4688C130.329 30.8057 129.173 29.3564 128.633 27.709C128.073 29.5 126.849 31.0723 125.489 31.7695L124.832 30.9219C126.582 30.0742 128.086 27.7637 128.1 25.6855V24.0996H125.27V23.2109H131.887V24.0996H129.153V25.6855ZM134.444 21.9531V26.875H136.481V27.791H134.444V34.1074H133.377V21.9531H134.444ZM149.873 21.9531V24.9336H151.705V25.8223H149.873V28.8574H148.806V21.9531H149.873ZM146.551 22.7461C146.537 25.8086 144.39 27.9961 140.795 28.9805L140.357 28.1191C143.351 27.3125 145.177 25.6924 145.402 23.6348H140.904V22.7461H146.551ZM149.873 29.418V33.9434H142.176V29.418H149.873ZM143.242 30.3066V33.0684H148.806V30.3066H143.242ZM156.391 23.9219C156.391 25.5762 157.649 27.0938 159.412 27.6953L158.825 28.543C157.478 28.0508 156.418 27.0459 155.885 25.7812C155.366 27.21 154.286 28.3379 152.864 28.8848L152.289 28.0234C154.108 27.3398 155.325 25.7129 155.338 23.8398V22.582H156.391V23.9219ZM161.832 21.9531V25.125H163.664V26.0273H161.832V29.3496H160.766V21.9531H161.832ZM157.936 29.6641C160.438 29.6641 161.942 30.4707 161.942 31.8652C161.942 33.2871 160.438 34.0801 157.936 34.0801C155.434 34.0801 153.903 33.2871 153.903 31.8652C153.903 30.4707 155.434 29.6641 157.936 29.6641ZM157.936 30.5254C156.104 30.5254 154.969 31.0312 154.983 31.8652C154.969 32.7266 156.104 33.2188 157.936 33.2324C159.782 33.2188 160.903 32.7266 160.903 31.8652C160.903 31.0312 159.782 30.5254 157.936 30.5254ZM169.827 22.1719C172.534 22.1719 174.12 22.9102 174.12 24.2637C174.12 25.6445 172.534 26.3828 169.827 26.3965C167.12 26.3828 165.521 25.6445 165.521 24.2637C165.521 22.9102 167.12 22.1719 169.827 22.1719ZM169.827 22.9785C167.804 22.9785 166.628 23.4707 166.642 24.2637C166.628 25.1113 167.804 25.5762 169.827 25.5762C171.837 25.5762 173.026 25.1113 173.026 24.2637C173.026 23.4707 171.837 22.9785 169.827 22.9785ZM175.364 27.2168V28.0918H164.29V27.2168H175.364ZM173.942 29.1445V31.8652H166.724V33.123H174.312V33.9707H165.657V31.0723H172.89V29.9648H165.63V29.1445H173.942ZM190.998 26.8066V27.709H189.03V34.1074H187.963V21.9531H189.03V26.8066H190.998ZM181.196 23.1562V30.1152C182.973 30.1084 184.784 29.9717 186.787 29.5547L186.924 30.4707C184.832 30.8945 182.946 31.0176 181.1 31.0176H180.129V23.1562H181.196ZM201.399 26.0547V26.9434H193.019V22.582H194.085V26.0547H201.399ZM202.712 28.7754V29.6777H197.626V34.1074H196.56V29.6777H191.583V28.7754H202.712ZM213.373 25.6445V26.5059H205.046V22.4043H206.113V25.6445H213.373ZM214.658 28.1602V29.0352H203.529V28.1602H214.658ZM213.441 32.918V33.8066H204.978V30.2793H206.045V32.918H213.441ZM225.578 21.9531V28.2012H224.498V25.7812H221.805V24.8926H224.498V21.9531H225.578ZM221.709 22.5547C221.709 25.5762 219.576 27.5723 216.076 28.4609L215.694 27.5723C218.606 26.8682 220.349 25.3916 220.574 23.4434H216.322V22.5547H221.709ZM225.578 28.7207V31.6875H218.797V33.1094H225.989V33.998H217.731V30.8672H224.498V29.5957H217.703V28.7207H225.578ZM236.892 25.5762V27.0117H241.951V27.9004H230.822V27.0117H235.839V25.5762H236.892ZM240.925 22.3359V23.1836H237.084C237.172 24.4277 239.209 25.3369 241.322 25.5078L240.966 26.3145C238.943 26.123 237.036 25.3369 236.386 24.0586C235.723 25.3369 233.816 26.123 231.779 26.3145L231.423 25.5078C233.522 25.3369 235.559 24.4277 235.675 23.1836H231.847V22.3359H240.925ZM240.898 29.5137V30.3613H231.875V29.5137H235.839V28.3652H236.906V29.5137H240.898ZM236.373 30.9629C238.71 30.9629 240.05 31.5098 240.05 32.5625C240.05 33.6289 238.71 34.1758 236.373 34.1758C234.007 34.1758 232.709 33.6289 232.709 32.5625C232.709 31.5098 234.007 30.9629 236.373 30.9629ZM236.373 31.7148C234.732 31.7285 233.789 32.002 233.789 32.5625C233.789 33.123 234.732 33.4375 236.373 33.4238C238.027 33.4375 238.943 33.123 238.957 32.5625C238.943 32.002 238.027 31.7285 236.373 31.7148ZM246.049 22.8965C247.84 22.9102 249.111 24.5508 249.125 27.1348C249.111 29.7188 247.84 31.3594 246.049 31.3594C244.244 31.3594 242.986 29.7188 242.986 27.1348C242.986 24.5508 244.244 22.9102 246.049 22.8965ZM246.049 23.8535C244.846 23.8672 243.998 25.1523 243.998 27.1348C243.998 29.1172 244.846 30.4023 246.049 30.4023C247.266 30.4023 248.086 29.1172 248.086 27.1348C248.086 25.1523 247.266 23.8672 246.049 23.8535ZM252.201 21.9531V26.8066H254.238V27.7363H252.201V34.1074H251.135V21.9531H252.201ZM260.825 24.0586V24.9336H254.727V24.0586H257.257V22.3223H258.323V24.0586H260.825ZM257.776 25.7539C259.307 25.7539 260.401 26.9023 260.415 28.5156C260.401 30.1426 259.307 31.3047 257.776 31.3047C256.259 31.3047 255.165 30.1426 255.165 28.5156C255.165 26.9023 256.259 25.7539 257.776 25.7539ZM257.776 26.6562C256.819 26.6699 256.122 27.4492 256.122 28.5156C256.122 29.5957 256.819 30.375 257.776 30.3613C258.747 30.375 259.458 29.5957 259.458 28.5156C259.458 27.4492 258.747 26.6699 257.776 26.6562ZM265.104 21.9531V34.1074H264.079V27.9688H262.466V33.5059H261.454V22.2539H262.466V27.0801H264.079V21.9531H265.104ZM277.843 31.6465V32.5488H266.714V31.6465H269.476V28.3652C268.437 27.8252 267.808 26.9502 267.808 25.8496C267.808 23.9629 269.654 22.7324 272.251 22.7188C274.849 22.7324 276.695 23.9629 276.695 25.8496C276.695 26.9297 276.086 27.7979 275.081 28.3379V31.6465H277.843ZM272.251 23.6074C270.255 23.5938 268.847 24.4961 268.847 25.8496C268.847 27.2031 270.255 28.1191 272.251 28.1191C274.234 28.1191 275.656 27.2031 275.656 25.8496C275.656 24.4961 274.234 23.5938 272.251 23.6074ZM270.529 31.6465H274.001V28.748C273.475 28.8916 272.887 28.9668 272.251 28.9668C271.629 28.9668 271.048 28.8984 270.529 28.7617V31.6465Z" fill="#ECECEE"/>
<g clip-path="url(#clip0_1193_32505)">
<path d="M42.1902 28.5429L40.4997 27.0036C40.2512 26.6697 40.0895 26.2742 40.065 25.8584C39.9761 24.3387 40.2638 23.9474 39.6583 22.3759C38.5033 19.3785 35.9308 17.1483 32.7703 16.5736C26.3639 15.4074 20.7849 20.2976 20.7849 26.4905C20.7849 28.7263 21.5157 30.7885 22.7484 32.4594C23.5072 33.4877 23.9419 34.7176 23.9419 35.9951V40.2245C23.9419 40.9847 24.5579 41.6007 25.3181 41.6007H32.7038C33.464 41.6007 34.08 40.9847 34.08 40.2245V37.6576H37.9559C38.9604 37.6576 39.8193 36.9345 39.9901 35.9447L40.2239 34.5902L38.9303 33.7348C38.4627 33.4261 38.5635 32.7128 39.0983 32.5455L40.5515 32.0898L40.562 30.918L42.1685 29.5803C42.4891 29.3129 42.5003 28.8243 42.1916 28.5429H42.1902Z" fill="#A6A7AB"/>
<path d="M45.1618 35.2559C45.117 35.2559 45.0715 35.2503 45.0253 35.2384L43.3572 34.7911C43.0772 34.7162 42.9113 34.4278 42.9862 34.1478C43.0611 33.8685 43.3495 33.704 43.6295 33.7768L45.2976 34.2241C45.5776 34.299 45.7435 34.5874 45.6686 34.8674C45.6056 35.1019 45.3935 35.2559 45.1618 35.2559Z" fill="#ABB7C7"/>
<path d="M44.445 37.7003C44.3561 37.7003 44.2658 37.6779 44.1825 37.6296L42.6866 36.7665C42.4353 36.6216 42.3499 36.3003 42.4948 36.0497C42.6397 35.7984 42.961 35.7123 43.2116 35.8579L44.7075 36.721C44.9588 36.8659 45.0442 37.1872 44.8993 37.4378C44.802 37.6065 44.6263 37.7003 44.445 37.7003Z" fill="#ABB7C7"/>
<path d="M45.7631 32.78H44.0362C43.7464 32.78 43.5112 32.5448 43.5112 32.255C43.5112 31.9652 43.7464 31.73 44.0362 31.73H45.7631C46.0529 31.73 46.2881 31.9652 46.2881 32.255C46.2881 32.5448 46.0529 32.78 45.7631 32.78Z" fill="#ABB7C7"/>
</g>
<defs>
<clipPath id="clip0_1193_32505">
<rect width="28" height="28" fill="white" transform="translate(19 15)"/>
</clipPath>
</defs>
</svg>
