<svg width="28" height="28" viewBox="0 0 28 28" fill="none" xmlns="http://www.w3.org/2000/svg">
<g clip-path="url(#clip0_1193_32507)">
<path d="M23.1902 13.5429L21.4997 12.0036C21.2512 11.6697 21.0895 11.2742 21.065 10.8584C20.9761 9.33872 21.2638 8.94742 20.6583 7.37592C19.5033 4.37852 16.9308 2.14832 13.7703 1.57362C7.36391 0.407418 1.78491 5.29762 1.78491 11.4905C1.78491 13.7263 2.51571 15.7885 3.74841 17.4594C4.50721 18.4877 4.94191 19.7176 4.94191 20.9951V25.2245C4.94191 25.9847 5.55791 26.6007 6.31811 26.6007H13.7038C14.464 26.6007 15.08 25.9847 15.08 25.2245V22.6576H18.9559C19.9604 22.6576 20.8193 21.9345 20.9901 20.9447L21.2239 19.5902L19.9303 18.7348C19.4627 18.4261 19.5635 17.7128 20.0983 17.5455L21.5515 17.0898L21.562 15.918L23.1685 14.5803C23.4891 14.3129 23.5003 13.8243 23.1916 13.5429H23.1902Z" fill="#A6A7AB"/>
<path d="M26.1618 20.2559C26.117 20.2559 26.0715 20.2503 26.0253 20.2384L24.3572 19.7911C24.0772 19.7162 23.9113 19.4278 23.9862 19.1478C24.0611 18.8685 24.3495 18.704 24.6295 18.7768L26.2976 19.2241C26.5776 19.299 26.7435 19.5874 26.6686 19.8674C26.6056 20.1019 26.3935 20.2559 26.1618 20.2559Z" fill="#ABB7C7"/>
<path d="M25.445 22.7003C25.3561 22.7003 25.2658 22.6779 25.1825 22.6296L23.6866 21.7665C23.4353 21.6216 23.3499 21.3003 23.4948 21.0497C23.6397 20.7984 23.961 20.7123 24.2116 20.8579L25.7075 21.721C25.9588 21.8659 26.0442 22.1872 25.8993 22.4378C25.802 22.6065 25.6263 22.7003 25.445 22.7003Z" fill="#ABB7C7"/>
<path d="M26.7631 17.78H25.0362C24.7464 17.78 24.5112 17.5448 24.5112 17.255C24.5112 16.9652 24.7464 16.73 25.0362 16.73H26.7631C27.0529 16.73 27.2881 16.9652 27.2881 17.255C27.2881 17.5448 27.0529 17.78 26.7631 17.78Z" fill="#ABB7C7"/>
</g>
<defs>
<clipPath id="clip0_1193_32507">
<rect width="28" height="28" fill="white"/>
</clipPath>
</defs>
</svg>
