<svg width="335" height="57" viewBox="0 0 335 57" fill="none" xmlns="http://www.w3.org/2000/svg">
<rect x="0.5" y="0.5" width="334" height="56" rx="11.5" fill="#0E0E0E"/>
<rect x="0.5" y="0.5" width="334" height="56" rx="11.5" stroke="#29292C"/>
<path d="M68.9238 24.3477V25.2363H59.0664V24.3477H63.4961V22.8848H64.5488V24.3477H68.9238ZM69.6211 30.8281V31.7168H64.5488V35.1348H63.4961V31.7168H58.4922V30.8281H69.6211ZM64.0293 25.9336C66.5039 25.9336 67.9941 26.6582 67.9941 27.9707C67.9941 29.2559 66.5039 29.9805 64.0293 29.9941C61.541 29.9805 60.0508 29.2559 60.0645 27.9707C60.0508 26.6582 61.541 25.9336 64.0293 25.9336ZM64.0293 26.7539C62.2109 26.7539 61.1582 27.2051 61.1719 27.9707C61.1582 28.7227 62.2109 29.1602 64.0293 29.1602C65.8203 29.1602 66.873 28.7227 66.8867 27.9707C66.873 27.2051 65.8203 26.7539 64.0293 26.7539ZM80.5006 22.9531V35.1074H79.4205V22.9531H80.5006ZM76.9049 24.2793C76.8912 27.7793 75.2643 30.8691 71.1901 32.8242L70.6022 31.9492C73.8903 30.3906 75.5651 28.0596 75.8112 25.1543H71.1627V24.2793H76.9049ZM92.2278 28.6543V29.5293H88.468V32.6738H93.5403V33.5762H82.4114V32.6738H87.4153V29.5293H83.8333V23.9512H92.1048V24.8262H84.9134V28.6543H92.2278ZM107.547 23.4863V24.0059C107.547 24.7441 107.547 25.9883 107.192 27.6426L106.153 27.5469C106.454 26.0977 106.502 25.0654 106.508 24.3477H103.432V23.4863H107.547ZM108.819 28.5312V29.4336H97.7584V28.5312H102.995V26.207H104.061V28.5312H108.819ZM102.42 23.4863V23.8965C102.42 24.5664 102.42 25.8926 101.86 27.6426L100.835 27.5059C101.265 26.0771 101.347 25.0449 101.368 24.3477H98.7154V23.4863H102.42ZM107.438 30.7734V34.9434H99.1255V30.7734H107.438ZM100.178 31.6074V34.0684H106.372V31.6074H100.178ZM119.507 23.4863V24.0059C119.507 24.7441 119.507 25.9883 119.152 27.6426L118.112 27.5469C118.413 26.0977 118.461 25.0654 118.468 24.3477H115.392V23.4863H119.507ZM120.779 28.5312V29.4336H109.718V28.5312H114.954V26.207H116.021V28.5312H120.779ZM114.38 23.4863V23.8965C114.38 24.5664 114.38 25.8926 113.82 27.6426L112.794 27.5059C113.225 26.0771 113.307 25.0449 113.327 24.3477H110.675V23.4863H114.38ZM119.398 30.7734V34.9434H111.085V30.7734H119.398ZM112.138 31.6074V34.0684H118.331V31.6074H112.138ZM131.685 22.9531V35.1074H130.605V22.9531H131.685ZM129.293 24.9355V25.8105H121.937V24.9355H125.068V23.0762H126.148V24.9355H129.293ZM125.642 26.8086C127.392 26.8086 128.65 27.957 128.65 29.5977C128.65 31.2383 127.392 32.3867 125.642 32.3867C123.879 32.3867 122.607 31.2383 122.621 29.5977C122.607 27.957 123.879 26.8086 125.642 26.8086ZM125.642 27.7109C124.48 27.7109 123.633 28.5039 123.633 29.5977C123.633 30.7051 124.48 31.4844 125.642 31.4707C126.791 31.4844 127.625 30.7051 127.625 29.5977C127.625 28.5039 126.791 27.7109 125.642 27.7109ZM148.126 32.6602V33.5488H136.997V32.6602H142.001V30.0352H138.31V23.8145H139.39V26.0156H145.706V23.8145H146.759V30.0352H143.054V32.6602H148.126ZM139.39 29.1602H145.706V26.8906H139.39V29.1602ZM158.705 24.1836V25.4004C158.691 26.8906 158.691 28.5586 158.254 31.0059L157.16 30.8828C157.625 28.5586 157.625 26.8496 157.625 25.4004V25.0723H150.133V24.1836H158.705ZM160.031 32.4961V33.3848H148.957V32.4961H153.304V28.1484H154.357V32.4961H160.031ZM162.912 33.084L161.846 36.8027H160.834L161.586 33.084H162.912ZM174.554 23.8828V24.7715H173.31V28.6543C173.878 28.6201 174.424 28.5723 174.951 28.5039L175.006 29.3242C172.64 29.6934 169.865 29.7207 167.896 29.7207L167.759 28.8184C168.245 28.8184 168.771 28.8184 169.332 28.8047V24.7715H168.101V23.8828H174.554ZM177.808 22.9531V30.459H176.728V28.2031H174.677V27.3145H176.728V26.0293H174.677V25.1406H176.728V22.9531H177.808ZM173.775 30.7188C176.318 30.7188 177.849 31.5117 177.849 32.8926C177.849 34.2871 176.318 35.0801 173.775 35.0801C171.232 35.0801 169.701 34.2871 169.701 32.8926C169.701 31.5117 171.232 30.7188 173.775 30.7188ZM173.775 31.5527C171.902 31.5527 170.754 32.0586 170.767 32.8926C170.754 33.7402 171.902 34.2324 173.775 34.2324C175.648 34.2324 176.783 33.7402 176.783 32.8926C176.783 32.0586 175.648 31.5527 173.775 31.5527ZM170.371 28.791C170.993 28.7773 171.635 28.7568 172.271 28.7227V24.7715H170.371V28.791ZM189.768 22.9531V30.0762H188.688V26.9043H186.227V26.002H188.688V22.9531H189.768ZM189.768 30.6777V34.9434H181.825V30.6777H189.768ZM182.891 31.5391V34.0684H188.715V31.5391H182.891ZM183.916 25.1133C183.916 26.6855 185.133 28.2031 186.91 28.832L186.35 29.6797C184.976 29.1875 183.916 28.1621 183.397 26.9043C182.87 28.3057 181.749 29.4268 180.307 29.9531L179.746 29.1055C181.537 28.4629 182.836 26.8496 182.836 25.1133V24.6348H180.088V23.7461H186.637V24.6348H183.916V25.1133ZM201.673 22.9531V35.1348H200.593V22.9531H201.673ZM195.206 23.8965C197.011 23.9102 198.31 25.5508 198.31 28.1348C198.31 30.7188 197.011 32.3594 195.206 32.3594C193.388 32.3594 192.102 30.7188 192.102 28.1348C192.102 25.5508 193.388 23.9102 195.206 23.8965ZM195.206 24.8535C193.989 24.8672 193.142 26.1523 193.142 28.1348C193.142 30.1172 193.989 31.4023 195.206 31.4023C196.423 31.4023 197.27 30.1172 197.27 28.1348C197.27 26.1523 196.423 24.8672 195.206 24.8535ZM216.828 26.0977V26.959H213.055V28.5039H218.059V29.3926H206.985V28.5039H211.989V26.959H208.502V23.2266H209.569V26.0977H216.828ZM216.842 30.6094V31.4707H214.955V34.0684H216.938V34.9434H208.119V34.0684H210.102V31.4707H208.229V30.6094H216.842ZM211.168 34.0684H213.903V31.4707H211.168V34.0684ZM230.018 29.3652V30.2402H218.944V29.3652H230.018ZM228.788 33.9453V34.8477H220.38V31.3066H221.46V33.9453H228.788ZM224.481 23.3906C227.093 23.377 228.774 24.2793 228.774 25.7969C228.774 27.3145 227.093 28.2168 224.481 28.2168C221.843 28.2168 220.175 27.3145 220.175 25.7969C220.175 24.2793 221.843 23.377 224.481 23.3906ZM224.481 24.252C222.526 24.252 221.268 24.8398 221.282 25.7969C221.268 26.7539 222.526 27.3418 224.481 27.3418C226.423 27.3418 227.681 26.7539 227.681 25.7969C227.681 24.8398 226.423 24.252 224.481 24.252ZM238.283 23.5547C240.102 23.541 241.401 24.5391 241.401 26.0293C241.401 27.5059 240.102 28.5312 238.283 28.5176C236.465 28.5312 235.166 27.5059 235.166 26.0293C235.166 24.5391 236.465 23.541 238.283 23.5547ZM238.283 24.4297C237.067 24.416 236.205 25.0859 236.219 26.0293C236.205 26.9863 237.067 27.6426 238.283 27.6289C239.514 27.6426 240.375 26.9863 240.375 26.0293C240.375 25.0859 239.514 24.416 238.283 24.4297ZM244.299 22.9668V35.1211H243.246V22.9668H244.299ZM234.25 29.5566C236.533 29.5566 239.651 29.5156 242.358 29.1191L242.426 29.9258C241.264 30.1377 240.054 30.2676 238.885 30.3359V34.7383H237.819V30.4043C236.581 30.459 235.412 30.4658 234.401 30.4727L234.25 29.5566ZM252.376 24.6758C252.362 26.3027 254.536 27.6836 256.655 27.998L256.259 28.8457C254.358 28.5244 252.512 27.5127 251.774 26.043C251.036 27.5127 249.183 28.5244 247.317 28.8457L246.893 27.998C248.999 27.6836 251.173 26.3027 251.173 24.6758V24.5938H247.276V23.7188H256.259V24.5938H252.376V24.6758ZM257.311 29.8848V30.7734H252.28V35.1074H251.227V30.7734H246.237V29.8848H257.311ZM269.326 32.7012V33.6035H258.197V32.7012H263.201V30.4043H259.591V26.6582H266.865V24.7441H259.564V23.8555H267.917V27.5332H260.658V29.5156H268.205V30.4043H264.253V32.7012H269.326ZM275.266 23.9648V25.8242H279.217V23.9648H280.284V29.4336H277.782V31.6074C278.903 31.5664 280.031 31.4844 281.077 31.3477L281.145 32.1543C278.575 32.5645 275.69 32.6055 273.557 32.6191L273.38 31.7031C274.371 31.6963 275.512 31.6895 276.702 31.6484V29.4336H274.2V23.9648H275.266ZM275.266 28.5586H279.217V26.6582H275.266V28.5586ZM282.923 22.9531V28.0664H284.905V28.9688H282.923V35.1074H281.856V22.9531H282.923ZM296.619 32.6465V33.5488H285.49V32.6465H288.251V29.3652C287.212 28.8252 286.583 27.9502 286.583 26.8496C286.583 24.9629 288.429 23.7324 291.027 23.7188C293.624 23.7324 295.47 24.9629 295.47 26.8496C295.47 27.9297 294.862 28.7979 293.857 29.3379V32.6465H296.619ZM291.027 24.6074C289.031 24.5938 287.622 25.4961 287.622 26.8496C287.622 28.2031 289.031 29.1191 291.027 29.1191C293.009 29.1191 294.431 28.2031 294.431 26.8496C294.431 25.4961 293.009 24.5938 291.027 24.6074ZM289.304 32.6465H292.777V29.748C292.25 29.8916 291.662 29.9668 291.027 29.9668C290.405 29.9668 289.824 29.8984 289.304 29.7617V32.6465Z" fill="#ECECEE"/>
<g clip-path="url(#clip0_1193_32473)">
<path d="M32 16.9756C25.2345 16.9756 19.75 21.8854 19.75 27.9418C19.75 30.3596 20.6313 32.5891 22.1146 34.4007C22.6578 35.0643 22.9063 35.9204 22.7425 36.7618L22.074 40.1897C21.962 40.7651 22.564 41.2152 23.0841 40.9443L27.1532 38.8261C27.7279 38.5272 28.3894 38.4299 29.0215 38.5734C29.9749 38.7897 30.9717 38.908 32 38.908C38.7655 38.908 44.25 33.9982 44.25 27.9418C44.25 21.8854 38.7655 16.9756 32 16.9756Z" fill="#E2E5E8"/>
<path d="M26.9279 26.9219C27.6853 26.9219 28.2985 27.5358 28.2985 28.2925C28.2985 28.6558 28.1543 29.0044 27.8967 29.262C27.6398 29.5189 27.2912 29.6638 26.9272 29.6638C26.1698 29.6638 25.5566 29.0499 25.5566 28.2932C25.5566 27.5365 26.1705 26.9226 26.9272 26.9226L26.9279 26.9219Z" fill="#333D4B"/>
<path d="M37.0718 29.6631C37.8287 29.6631 38.4424 29.0494 38.4424 28.2925C38.4424 27.5355 37.8287 26.9219 37.0718 26.9219C36.3148 26.9219 35.7012 27.5355 35.7012 28.2925C35.7012 29.0494 36.3148 29.6631 37.0718 29.6631Z" fill="#333D4B"/>
<path d="M31.9995 29.6631C32.7565 29.6631 33.3701 29.0494 33.3701 28.2925C33.3701 27.5355 32.7565 26.9219 31.9995 26.9219C31.2425 26.9219 30.6289 27.5355 30.6289 28.2925C30.6289 29.0494 31.2425 29.6631 31.9995 29.6631Z" fill="#333D4B"/>
</g>
<defs>
<clipPath id="clip0_1193_32473">
<rect width="28" height="28" fill="white" transform="translate(18 15)"/>
</clipPath>
</defs>
</svg>
