<svg width="28" height="28" viewBox="0 0 28 28" fill="none" xmlns="http://www.w3.org/2000/svg">
<g clip-path="url(#clip0_1193_32475)">
<path d="M14 1.97559C7.2345 1.97559 1.75 6.88539 1.75 12.9418C1.75 15.3596 2.6313 17.5891 4.1146 19.4007C4.6578 20.0643 4.9063 20.9204 4.7425 21.7618L4.074 25.1897C3.962 25.7651 4.564 26.2152 5.0841 25.9443L9.1532 23.8261C9.7279 23.5272 10.3894 23.4299 11.0215 23.5734C11.9749 23.7897 12.9717 23.908 14 23.908C20.7655 23.908 26.25 18.9982 26.25 12.9418C26.25 6.88539 20.7655 1.97559 14 1.97559Z" fill="#E2E5E8"/>
<path d="M8.92794 11.9219C9.68534 11.9219 10.2985 12.5358 10.2985 13.2925C10.2985 13.6558 10.1543 14.0044 9.89674 14.262C9.63984 14.5189 9.29124 14.6638 8.92724 14.6638C8.16984 14.6638 7.55664 14.0499 7.55664 13.2932C7.55664 12.5365 8.17054 11.9226 8.92724 11.9226L8.92794 11.9219Z" fill="#333D4B"/>
<path d="M19.0718 14.6631C19.8287 14.6631 20.4424 14.0494 20.4424 13.2925C20.4424 12.5355 19.8287 11.9219 19.0718 11.9219C18.3148 11.9219 17.7012 12.5355 17.7012 13.2925C17.7012 14.0494 18.3148 14.6631 19.0718 14.6631Z" fill="#333D4B"/>
<path d="M13.9995 14.6631C14.7565 14.6631 15.3701 14.0494 15.3701 13.2925C15.3701 12.5355 14.7565 11.9219 13.9995 11.9219C13.2425 11.9219 12.6289 12.5355 12.6289 13.2925C12.6289 14.0494 13.2425 14.6631 13.9995 14.6631Z" fill="#333D4B"/>
</g>
<defs>
<clipPath id="clip0_1193_32475">
<rect width="28" height="28" fill="white"/>
</clipPath>
</defs>
</svg>
