<svg width="28" height="28" viewBox="0 0 28 28" fill="none" xmlns="http://www.w3.org/2000/svg">
<path d="M12.9095 20.758C9.82812 20.758 7.33052 18.2604 7.33052 15.179C7.33052 12.0976 9.82812 9.60005 12.9095 9.60005C13.7194 9.60005 14.4873 9.77645 15.1817 10.0872C15.8131 9.56295 16.6524 8.89795 17.5379 8.20915C16.2121 7.32715 14.6217 6.81055 12.9095 6.81055C8.28742 6.81055 4.54102 10.5576 4.54102 15.179C4.54102 19.8004 8.28812 23.5475 12.9095 23.5475C17.5309 23.5475 21.2787 19.8004 21.2787 15.179C21.2787 13.4024 20.7215 11.7581 19.7772 10.4036C19.1045 11.2919 18.4535 12.1347 17.9376 12.7724C18.2876 13.5018 18.4892 14.3159 18.4892 15.179C18.4892 18.2604 15.9909 20.758 12.9095 20.758Z" fill="#E5E5E5"/>
<path d="M12.9089 15.6509C12.7759 15.6509 12.6422 15.6005 12.54 15.4997C12.3342 15.296 12.3321 14.9635 12.5358 14.757L14.115 13.1582C14.0282 12.9937 13.9421 12.7935 13.8812 12.573C13.5774 12.4596 13.2519 12.3889 12.9089 12.3889C11.3682 12.3889 10.1194 13.6377 10.1194 15.1784C10.1194 16.7191 11.3682 17.9679 12.9089 17.9679C14.4496 17.9679 15.6984 16.7191 15.6984 15.1784C15.6984 14.8081 15.6228 14.456 15.4919 14.1333C15.2539 14.0752 15.0383 13.9856 14.8619 13.896L13.2827 15.4948C13.1805 15.5991 13.044 15.6509 12.9089 15.6509Z" fill="#E5E5E5"/>
<path d="M25.3524 3.2729L26.3128 2.3006C26.5165 2.0948 26.5144 1.7616 26.3086 1.5579C26.1014 1.3542 25.7689 1.3556 25.5659 1.5628L24.6055 2.5351C24.714 2.8774 24.7651 3.1203 24.7651 3.1203C24.7651 3.1203 25.008 3.1686 25.3517 3.2729H25.3524Z" fill="#243D55"/>
<path d="M12.5343 14.7571C12.3306 14.9629 12.3327 15.2961 12.5385 15.4998C12.6407 15.6006 12.7744 15.651 12.9074 15.651C13.0425 15.651 13.1783 15.5992 13.2805 15.4949L14.8597 13.8961C14.5804 13.754 14.4005 13.6147 14.4005 13.6147C14.4005 13.6147 14.2591 13.4362 14.1135 13.159L12.5343 14.7571Z" fill="#243D55"/>
<path d="M21.5808 7.98728C21.5598 8.01528 21.5388 8.05028 21.5178 8.07828C20.9788 8.79928 20.3768 9.61128 19.7748 10.4023C19.1028 11.2913 18.4518 12.1313 17.9338 12.7753C17.5978 13.1883 17.3178 13.5243 17.1358 13.7063C16.6178 14.2313 16.0018 14.2593 15.4908 14.1333C15.2528 14.0773 15.0358 13.9863 14.8608 13.8953C14.5808 13.7553 14.3988 13.6153 14.3988 13.6153C14.3988 13.6153 14.2588 13.4333 14.1118 13.1603C14.0278 12.9923 13.9438 12.7963 13.8808 12.5723C13.7338 12.0543 13.7408 11.4243 14.2728 10.8853C14.4548 10.7033 14.7768 10.4233 15.1828 10.0873C15.8128 9.56228 16.6528 8.89728 17.5348 8.21128C18.3188 7.60228 19.1238 6.98628 19.8378 6.44028C19.8728 6.41228 19.9078 6.39128 19.9428 6.36328C20.1318 7.09128 20.3698 7.57428 20.3698 7.57428C20.3698 7.57428 20.8528 7.80528 21.5808 7.98728Z" fill="#3D3D3D"/>
<path d="M20.3687 7.5733L24.7675 3.1199C24.7675 3.1199 24.7164 2.8777 24.6079 2.5347C24.2355 1.3629 23.1806 -0.991201 21.1212 1.0934C19.4013 2.8343 19.5917 5.0267 19.9403 6.363C20.1314 7.0938 20.3687 7.5733 20.3687 7.5733Z" fill="#BE1531"/>
<path d="M21.2779 15.1783C21.2779 19.8004 17.5308 23.5468 12.9087 23.5468C8.2866 23.5468 4.5402 19.7997 4.5402 15.1783C4.5402 10.5569 8.2873 6.80982 12.9087 6.80982C14.6209 6.80982 16.2113 7.32642 17.5371 8.20842C18.3176 7.60222 19.1233 6.98482 19.8373 6.44162C17.9333 4.92962 15.5288 4.02032 12.9087 4.02032C6.7459 4.02032 1.75 9.01622 1.75 15.179C1.75 21.3418 6.7459 26.3377 12.9087 26.3377C19.0715 26.3377 24.0674 21.3418 24.0674 15.179C24.0674 12.4812 23.1098 10.0074 21.5166 8.07822C20.9825 8.79922 20.3742 9.61332 19.7757 10.4029C20.72 11.7581 21.2779 13.4017 21.2779 15.1783Z" fill="#FF1F44"/>
<path d="M12.9091 17.9681C11.3684 17.9681 10.1196 16.7193 10.1196 15.1786C10.1196 13.6379 11.3684 12.3891 12.9091 12.3891C13.2528 12.3891 13.5776 12.4598 13.8814 12.5732C13.7379 12.0531 13.7428 11.4231 14.2762 10.8834C14.4547 10.7021 14.7795 10.4207 15.1813 10.0868C14.4869 9.77601 13.719 9.59961 12.9091 9.59961C9.82768 9.59961 7.33008 12.0972 7.33008 15.1786C7.33008 18.26 9.82768 20.7576 12.9091 20.7576C15.9905 20.7576 18.4881 18.26 18.4881 15.1786C18.4881 14.3155 18.2865 13.5014 17.9365 12.772C17.5998 13.1878 17.3163 13.5231 17.135 13.7065C16.6163 14.2315 16.0052 14.2581 15.4921 14.1328C15.623 14.4562 15.6986 14.8076 15.6986 15.1779C15.6986 16.7186 14.4498 17.9674 12.9091 17.9674V17.9681Z" fill="#FF1F44"/>
<path d="M20.3698 7.57352C20.3698 7.57352 20.8514 7.80522 21.585 7.98722C22.9255 8.31972 25.1193 8.48282 26.8392 6.74122C28.8986 4.65662 26.5312 3.63042 25.3545 3.27272C25.0108 3.16842 24.7679 3.12012 24.7679 3.12012L20.3698 7.57352Z" fill="#FF1F44"/>
</svg>
