<svg  viewBox="0 0 51 51" fill="none" xmlns="http://www.w3.org/2000/svg">
<g clip-path="url(#clip0_1603_3199)">
<path d="M40.6532 10.5918H9.56822C7.10641 10.5918 5.11072 12.5875 5.11072 15.0493V40.8155C5.11072 43.2774 7.10641 45.2731 9.56822 45.2731H40.6532C43.115 45.2731 45.1107 43.2774 45.1107 40.8155V15.0493C45.1107 12.5875 43.115 10.5918 40.6532 10.5918Z" fill="#2E3D51"/>
<path d="M35.8864 15.3319H14.3314C12.0049 15.3319 10.1189 17.2179 10.1189 19.5444V32.2182C10.1189 34.5447 12.0049 36.4307 14.3314 36.4307H35.8864C38.2129 36.4307 40.0989 34.5447 40.0989 32.2182V19.5444C40.0989 17.2179 38.2129 15.3319 35.8864 15.3319Z" fill="#9BBED7"/>
<path d="M25.322 13.5947L10.0182 4.15598C9.43072 3.79348 9.24947 3.02348 9.61072 2.43473C9.97322 1.84848 10.7407 1.66473 11.332 2.02723L25.2595 10.6185L38.8457 1.41098C39.4157 1.02473 40.1932 1.17348 40.582 1.74598C40.9695 2.31723 40.8195 3.09348 40.247 3.48223L25.322 13.5947Z" fill="#2E3D51"/>
<path d="M39.5435 43.4312C40.9546 43.4312 42.0985 42.2873 42.0985 40.8762C42.0985 39.4651 40.9546 38.3212 39.5435 38.3212C38.1324 38.3212 36.9885 39.4651 36.9885 40.8762C36.9885 42.2873 38.1324 43.4312 39.5435 43.4312Z" fill="#456987"/>
<path d="M10.676 43.4315C12.0871 43.4315 13.231 42.2876 13.231 40.8765C13.231 39.4654 12.0871 38.3215 10.676 38.3215C9.26488 38.3215 8.12097 39.4654 8.12097 40.8765C8.12097 42.2876 9.26488 43.4315 10.676 43.4315Z" fill="#456987"/>
</g>
<defs>
<clipPath id="clip0_1603_3199">
<rect width="50" height="50" fill="white" transform="translate(0.109375 0.109375)"/>
</clipPath>
</defs>
</svg>
