<svg width="28" height="28" viewBox="0 0 28 28" fill="none" xmlns="http://www.w3.org/2000/svg">
<g clip-path="url(#clip0_1193_32415)">
<path d="M14 25.8928C20.7655 25.8928 26.25 20.4083 26.25 13.6428C26.25 6.87733 20.7655 1.39282 14 1.39282C7.23451 1.39282 1.75 6.87733 1.75 13.6428C1.75 20.4083 7.23451 25.8928 14 25.8928Z" fill="#FFC749"/>
<path d="M14.1135 23.1208C17.9795 23.1208 21.1135 20.6468 21.1135 17.595C21.1135 14.5432 17.9795 12.0692 14.1135 12.0692C10.2475 12.0692 7.11353 14.5432 7.11353 17.595C7.11353 20.6468 10.2475 23.1208 14.1135 23.1208Z" fill="#FF1F44"/>
<path d="M10.1147 14.7885C10.5732 15.0202 10.7566 15.5802 10.5249 16.0387L9.75982 17.9637L11.4181 16.7478L14.3441 14.603C14.7585 14.2992 15.3402 14.3888 15.644 14.8032C15.9478 15.2176 15.8582 15.7993 15.4438 16.1031L12.536 18.2724L12.6865 18.4775L16.6184 15.632C17.0328 15.3282 17.6145 15.4178 17.9183 15.8322C18.2221 16.2466 18.1325 16.8283 17.7181 17.1321L13.9794 19.9104L14.1271 20.1169L17.2953 17.8321C17.7097 17.5283 18.2914 17.6179 18.5952 18.0323C18.899 18.4467 18.8094 19.0284 18.395 19.3322L14.6878 22.0874L14.8383 22.2925L17.3779 20.4683C17.7923 20.1645 18.374 20.2541 18.6778 20.6685C18.9816 21.0829 18.892 21.6646 18.4776 21.9684L15.9555 23.8171L13.6049 25.5391C11.6435 26.9776 8.84352 26.4939 7.35182 24.459C6.88002 23.8157 6.59722 23.0947 6.49012 22.3639C6.49012 22.3625 6.48872 22.3611 6.48872 22.3597C6.41032 22.0258 6.41592 21.6254 6.47262 21.1991C6.49572 20.9891 6.53352 20.7819 6.58602 20.5782C6.93812 19.0186 7.76622 17.3666 7.76622 17.3666L8.86312 15.1987C9.09482 14.7402 9.65482 14.5568 10.1133 14.7885H10.1147Z" fill="#FFA01D"/>
<path d="M12.2468 9.2154C12.4575 9.2497 12.6647 9.088 12.5933 8.9424C12.1978 8.1339 11.0477 7.6768 9.80523 7.8959C8.56273 8.115 7.63803 8.9375 7.54353 9.8328C7.52673 9.9938 7.77593 10.075 7.96283 9.9707C8.36953 9.7432 9.07443 9.4226 10.0446 9.2511C11.0148 9.0796 11.7869 9.1405 12.2468 9.2154Z" fill="black"/>
<path d="M15.7541 9.2154C15.5434 9.2497 15.3362 9.088 15.4076 8.9424C15.8031 8.1339 16.9532 7.6768 18.1957 7.8959C19.4382 8.115 20.3629 8.9375 20.4574 9.8328C20.4742 9.9938 20.225 10.075 20.0381 9.9707C19.6314 9.7432 18.9265 9.4226 17.9563 9.2511C16.9861 9.0803 16.214 9.1405 15.7541 9.2154Z" fill="black"/>
</g>
<defs>
<clipPath id="clip0_1193_32415">
<rect width="28" height="28" fill="white"/>
</clipPath>
</defs>
</svg>
