<svg width="335" height="57" viewBox="0 0 335 57" fill="none" xmlns="http://www.w3.org/2000/svg">
<rect x="0.5" y="0.5" width="334" height="56" rx="11.5" fill="#0E0E0E"/>
<rect x="0.5" y="0.5" width="334" height="56" rx="11.5" stroke="#29292C"/>
<path d="M69.5664 29.1328V30.0078H58.4922V29.1328H63.5098V27.3828H64.3848V23.459H68.5V24.334H65.4648V26.5762H68.582V27.4512H64.5898V29.1328H69.5664ZM68.1582 31.334V35.2031H67.0918V32.209H59.6953V31.334H68.1582ZM63.6602 23.459V24.334H60.6113V26.5762C61.6572 26.5693 62.6895 26.4873 63.8379 26.248L63.9609 27.1094C62.5801 27.4102 61.4316 27.4512 60.2012 27.4512H59.5312V23.459H63.6602ZM79.9537 22.9531V25.7969H81.7858V26.6855H79.9537V29.4609H78.8873V22.9531H79.9537ZM76.6862 23.8145C76.6725 26.8496 74.526 28.873 70.944 29.6934L70.4928 28.8184C73.5895 28.1416 75.319 26.6035 75.4967 24.6895H71.0123V23.8145H76.6862ZM80.0084 30.0078V30.8281H73.3366V32.0312H79.8717V32.8516H73.3366V34.1094H80.2955V34.9434H72.2565V30.0078H80.0084ZM93.4856 29.3652V30.2402H82.4114V29.3652H93.4856ZM92.2552 33.9453V34.8477H83.847V31.3066H84.927V33.9453H92.2552ZM87.9485 23.3906C90.5598 23.377 92.2415 24.2793 92.2415 25.7969C92.2415 27.3145 90.5598 28.2168 87.9485 28.2168C85.3098 28.2168 83.6419 27.3145 83.6419 25.7969C83.6419 24.2793 85.3098 23.377 87.9485 23.3906ZM87.9485 24.252C85.9934 24.252 84.7356 24.8398 84.7493 25.7969C84.7356 26.7539 85.9934 27.3418 87.9485 27.3418C89.8899 27.3418 91.1477 26.7539 91.1477 25.7969C91.1477 24.8398 89.8899 24.252 87.9485 24.252ZM107.151 22.9531V27.9707H109.188V28.8594H107.151V35.1074H106.085V22.9531H107.151ZM104.909 24.9082V25.7969H97.6763V24.9082H100.807V23.1035H101.874V24.9082H104.909ZM101.354 26.8086C103.077 26.8086 104.321 27.957 104.335 29.5977C104.321 31.2383 103.077 32.3867 101.354 32.3867C99.6177 32.3867 98.3599 31.2383 98.3736 29.5977C98.3599 27.957 99.6177 26.8086 101.354 26.8086ZM101.354 27.7109C100.219 27.7109 99.3853 28.5039 99.399 29.5977C99.3853 30.7051 100.219 31.4844 101.354 31.4707C102.475 31.4844 103.295 30.7051 103.309 29.5977C103.295 28.5039 102.475 27.7109 101.354 27.7109ZM119.466 23.4453V26.6035H112.138V28.1758H119.726V29.0645H111.058V25.7559H118.372V24.3203H111.03V23.4453H119.466ZM120.82 30.3496V31.2109H115.761V35.1348H114.695V31.2109H109.691V30.3496H120.82ZM125.642 23.8418C127.556 23.8418 128.91 25.0039 128.91 26.6992C128.91 28.3945 127.556 29.5566 125.642 29.5566C123.728 29.5566 122.347 28.3945 122.361 26.6992C122.347 25.0039 123.728 23.8418 125.642 23.8418ZM125.642 24.7852C124.344 24.7852 123.4 25.5645 123.414 26.6992C123.4 27.834 124.344 28.6133 125.642 28.6133C126.928 28.6133 127.857 27.834 127.857 26.6992C127.857 25.5645 126.928 24.7852 125.642 24.7852ZM131.631 22.9531V35.1348H130.564V22.9531H131.631ZM121.732 31.5391C123.974 31.5391 127.064 31.5254 129.758 31.1289L129.84 31.9219C127.064 32.4414 124.07 32.4551 121.883 32.4551L121.732 31.5391ZM146.499 22.9668V26.6445H148.331V27.5469H146.499V31.8945H145.433V22.9668H146.499ZM147.06 33.9453V34.8477H138.898V31.0195H139.95V33.9453H147.06ZM138.569 23.8418V25.8926H142.11V23.8418H143.177V29.8438H137.517V23.8418H138.569ZM138.569 28.9688H142.11V26.7402H138.569V28.9688ZM160.031 29.2422V30.1309H148.957V29.2422H153.961V27.7793H150.433V23.2402H151.5V24.6484H157.515V23.2402H158.582V27.7793H155.027V29.2422H160.031ZM158.664 31.334V35.1074H157.584V32.1953H150.187V31.334H158.664ZM151.5 26.918H157.515V25.4688H151.5V26.918ZM162.912 33.084L161.846 36.8027H160.834L161.586 33.084H162.912ZM177.822 23.418V24.3066H173.966C174.049 25.6533 176.079 26.6924 178.191 26.918L177.795 27.7793C175.805 27.5264 173.939 26.6582 173.269 25.3047C172.606 26.6582 170.747 27.5264 168.744 27.7793L168.347 26.918C170.46 26.6924 172.476 25.667 172.572 24.3066H168.744V23.418H177.822ZM173.789 27.1641V28.8594H178.806V29.7344H167.732V28.8594H172.736V27.1641H173.789ZM177.453 31.0195V34.9434H169.086V31.0195H177.453ZM170.152 31.8945V34.0684H176.4V31.8945H170.152ZM187.413 26.6855C187.413 28.75 188.917 30.8418 190.708 31.6211L190.106 32.4688C188.685 31.8193 187.454 30.418 186.894 28.7363C186.319 30.5205 185.096 32.0723 183.708 32.7695L183.065 31.9219C184.802 31.0879 186.319 28.791 186.333 26.6855V25.0996H183.462V24.2109H190.311V25.0996H187.413V26.6855ZM193.087 22.9531V35.1074H192.007V22.9531H193.087ZM204.787 23.4453V26.6035H197.459V28.1758H205.046V29.0645H196.379V25.7559H203.693V24.3203H196.351V23.4453H204.787ZM206.14 30.3496V31.2109H201.082V35.1348H200.015V31.2109H195.011V30.3496H206.14ZM213.055 25.0586V25.9336H206.957V25.0586H209.487V23.3223H210.553V25.0586H213.055ZM210.006 26.7539C211.537 26.7539 212.631 27.9023 212.645 29.5156C212.631 31.1426 211.537 32.3047 210.006 32.3047C208.489 32.3047 207.395 31.1426 207.395 29.5156C207.395 27.9023 208.489 26.7539 210.006 26.7539ZM210.006 27.6562C209.049 27.6699 208.352 28.4492 208.352 29.5156C208.352 30.5957 209.049 31.375 210.006 31.3613C210.977 31.375 211.688 30.5957 211.688 29.5156C211.688 28.4492 210.977 27.6699 210.006 27.6562ZM217.334 22.9531V35.1074H216.309V28.9688H214.696V34.5059H213.684V23.2539H214.696V28.0801H216.309V22.9531H217.334ZM230.073 32.6465V33.5488H218.944V32.6465H221.706V29.3652C220.667 28.8252 220.038 27.9502 220.038 26.8496C220.038 24.9629 221.884 23.7324 224.481 23.7188C227.079 23.7324 228.925 24.9629 228.925 26.8496C228.925 27.9297 228.316 28.7979 227.311 29.3379V32.6465H230.073ZM224.481 24.6074C222.485 24.5938 221.077 25.4961 221.077 26.8496C221.077 28.2031 222.485 29.1191 224.481 29.1191C226.464 29.1191 227.886 28.2031 227.886 26.8496C227.886 25.4961 226.464 24.5938 224.481 24.6074ZM222.759 32.6465H226.231V29.748C225.705 29.8916 225.117 29.9668 224.481 29.9668C223.859 29.9668 223.278 29.8984 222.759 29.7617V32.6465Z" fill="#ECECEE"/>
<g clip-path="url(#clip0_1193_32413)">
<path d="M32 40.8928C38.7655 40.8928 44.25 35.4083 44.25 28.6428C44.25 21.8773 38.7655 16.3928 32 16.3928C25.2345 16.3928 19.75 21.8773 19.75 28.6428C19.75 35.4083 25.2345 40.8928 32 40.8928Z" fill="#FFC749"/>
<path d="M32.1135 38.1208C35.9795 38.1208 39.1135 35.6468 39.1135 32.595C39.1135 29.5432 35.9795 27.0692 32.1135 27.0692C28.2475 27.0692 25.1135 29.5432 25.1135 32.595C25.1135 35.6468 28.2475 38.1208 32.1135 38.1208Z" fill="#FF1F44"/>
<path d="M28.1147 29.7885C28.5732 30.0202 28.7566 30.5802 28.5249 31.0387L27.7598 32.9637L29.4181 31.7478L32.3441 29.603C32.7585 29.2992 33.3402 29.3888 33.644 29.8032C33.9478 30.2176 33.8582 30.7993 33.4438 31.1031L30.536 33.2724L30.6865 33.4775L34.6184 30.632C35.0328 30.3282 35.6145 30.4178 35.9183 30.8322C36.2221 31.2466 36.1325 31.8283 35.7181 32.1321L31.9794 34.9104L32.1271 35.1169L35.2953 32.8321C35.7097 32.5283 36.2914 32.6179 36.5952 33.0323C36.899 33.4467 36.8094 34.0284 36.395 34.3322L32.6878 37.0874L32.8383 37.2925L35.3779 35.4683C35.7923 35.1645 36.374 35.2541 36.6778 35.6685C36.9816 36.0829 36.892 36.6646 36.4776 36.9684L33.9555 38.8171L31.6049 40.5391C29.6435 41.9776 26.8435 41.4939 25.3518 39.459C24.88 38.8157 24.5972 38.0947 24.4901 37.3639C24.4901 37.3625 24.4887 37.3611 24.4887 37.3597C24.4103 37.0258 24.4159 36.6254 24.4726 36.1991C24.4957 35.9891 24.5335 35.7819 24.586 35.5782C24.9381 34.0186 25.7662 32.3666 25.7662 32.3666L26.8631 30.1987C27.0948 29.7402 27.6548 29.5568 28.1133 29.7885H28.1147Z" fill="#FFA01D"/>
<path d="M30.2468 24.2154C30.4575 24.2497 30.6647 24.088 30.5933 23.9424C30.1978 23.1339 29.0477 22.6768 27.8052 22.8959C26.5627 23.115 25.638 23.9375 25.5435 24.8328C25.5267 24.9938 25.7759 25.075 25.9628 24.9707C26.3695 24.7432 27.0744 24.4226 28.0446 24.2511C29.0148 24.0796 29.7869 24.1405 30.2468 24.2154Z" fill="black"/>
<path d="M33.7541 24.2154C33.5434 24.2497 33.3362 24.088 33.4076 23.9424C33.8031 23.1339 34.9532 22.6768 36.1957 22.8959C37.4382 23.115 38.3629 23.9375 38.4574 24.8328C38.4742 24.9938 38.225 25.075 38.0381 24.9707C37.6314 24.7432 36.9265 24.4226 35.9563 24.2511C34.9861 24.0803 34.214 24.1405 33.7541 24.2154Z" fill="black"/>
</g>
<defs>
<clipPath id="clip0_1193_32413">
<rect width="28" height="28" fill="white" transform="translate(18 15)"/>
</clipPath>
</defs>
</svg>
