<svg width="24" height="24" viewBox="0 0 24 24" fill="none" xmlns="http://www.w3.org/2000/svg">
<g id="Notification">
<g id="Group 2085665736">
<path id="Rectangle 1664145043" d="M12 2.63672C15.7659 2.63672 18.9084 5.46235 19.3408 9.16504L19.374 9.52637L19.6602 13.7363C19.6818 14.0544 19.7331 14.3695 19.8125 14.6777L19.9014 14.9834L20.2373 16.0186C20.6754 17.3693 19.6681 18.7549 18.248 18.7549H5.75195C4.37628 18.7549 3.38767 17.4548 3.72559 16.1455L3.7627 16.0186L4.09863 14.9834C4.19701 14.6801 4.26753 14.3685 4.30859 14.0527L4.33984 13.7363L4.62598 9.52637C4.88975 5.64803 8.1127 2.63673 12 2.63672Z" stroke="CurrentColor" stroke-width="1.27273" stroke-linejoin="round"/>
<path id="Ellipse 4274" d="M15.0434 18.9565C15.0434 19.7637 14.7227 20.5378 14.152 21.1086C13.5812 21.6793 12.8071 22 11.9999 22C11.1927 22 10.4186 21.6793 9.84784 21.1086C9.27707 20.5378 8.95642 19.7637 8.95642 18.9565L11.9999 18.9565H15.0434Z" stroke="CurrentColor" stroke-width="1.27273"/>
</g>
</g>
</svg>
