<svg width="28" height="28" viewBox="0 0 28 28" fill="none" xmlns="http://www.w3.org/2000/svg">
<g clip-path="url(#clip0_1601_31667)">
<path d="M26.236 14.1008L22.883 11.6641L18.9735 12.9346L17.3978 17.7842L19.8142 21.1106H23.8504C22.3384 23.1595 20.2118 24.7247 17.7338 25.5178L18.9651 21.728L16.4591 18.2784H11.5395L9.0307 21.7315L10.2599 25.5157C7.7833 24.7219 5.6588 23.1581 4.1475 21.1106H8.1837L10.6036 17.78L9.03 12.9374L5.1107 11.6641L1.7619 14.098C1.7605 14.0399 1.7563 13.9832 1.7535 13.9258C1.7535 13.951 1.75 13.9748 1.75 13.9993C1.75 20.7648 7.2345 26.2493 14 26.2493C20.7655 26.2493 26.25 20.7648 26.25 13.9993C26.25 13.9741 26.2465 13.9503 26.2465 13.9258C26.243 13.9846 26.2388 14.0427 26.2374 14.1015L26.236 14.1008Z" fill="#E5E8EB"/>
<path d="M9.13325 11.8675C9.14865 11.8542 9.15845 11.8374 9.17525 11.8255L13.4719 8.70214V4.68484L10.2463 2.33984C7.78015 3.13224 5.66405 4.68904 4.15625 6.72604L5.43655 10.6663L9.13325 11.8675Z" fill="#E5E8EB"/>
<path d="M14.5236 8.69934L18.8251 11.8262C18.8412 11.8374 18.851 11.8542 18.8657 11.8668L22.5589 10.667L23.8392 6.72744C22.33 4.68974 20.2132 3.13224 17.7457 2.33984L14.5236 4.68204V8.69934Z" fill="#E5E8EB"/>
<path d="M26.25 13.8516C26.25 13.8726 26.25 13.9006 26.243 13.9216C26.243 13.9846 26.236 14.0406 26.236 14.1036L22.883 11.6606L18.977 12.9346L17.402 17.7856L19.817 21.1106H23.849C22.337 23.1616 20.216 24.7226 17.738 25.5136L18.963 21.7266L16.457 18.2756H11.543L9.03 21.7336L10.262 25.5136C7.784 24.7226 5.656 23.1546 4.151 21.1106H8.183L10.605 17.7786L9.03 12.9346L5.11 11.6606L1.764 14.0966C1.764 14.0406 1.757 13.9846 1.757 13.9216C1.75 13.9006 1.75 13.8796 1.75 13.8516C1.75 11.1426 2.639 8.65056 4.123 6.62056L4.158 6.72556L5.439 10.6666L9.135 11.8636C9.149 11.8566 9.163 11.8356 9.177 11.8216L13.475 8.69956V4.68156L10.248 2.33656L10.115 2.23856C11.34 1.83256 12.642 1.60156 14 1.60156C15.358 1.60156 16.66 1.83256 17.885 2.23856L17.745 2.33656L14.525 4.68156V8.69956L18.83 11.8216C18.844 11.8356 18.851 11.8496 18.865 11.8636L22.561 10.6666L23.842 6.72556L23.877 6.62056C25.361 8.65056 26.25 11.1426 26.25 13.8516Z" fill="#57585C"/>
</g>
<defs>
<clipPath id="clip0_1601_31667">
<rect width="28" height="28" fill="white"/>
</clipPath>
</defs>
</svg>
