<svg width="28" height="28" viewBox="0 0 28 28" fill="none" xmlns="http://www.w3.org/2000/svg">
<g clip-path="url(#clip0_1601_31677)">
<path d="M20.6706 6.55469H6.70625C5.56805 6.55469 4.59295 7.23649 4.15545 8.21159C3.99865 8.56159 3.90625 8.94659 3.90625 9.35469V21.8406C3.90625 23.3869 5.15995 24.6406 6.70625 24.6406H20.6699C22.2162 24.6406 23.4699 23.3869 23.4699 21.8406V9.35469C23.4699 9.26719 23.4517 9.18529 23.444 9.09989C23.3131 7.67469 22.1287 6.55469 20.6699 6.55469H20.6706ZM17.9042 18.4568L16.1255 20.2355C15.4857 20.8753 14.449 20.8753 13.8092 20.2355L7.49655 13.9229C6.85675 13.2831 6.85675 12.2464 7.49655 11.6066L9.27525 9.82789C9.91505 9.18809 10.9518 9.18809 11.5916 9.82789L17.9042 16.1405C18.544 16.7803 18.544 17.817 17.9042 18.4568ZM20.4816 10.0372C19.9636 10.0372 19.5443 9.61719 19.5443 9.09989C19.5443 8.58259 19.9643 8.16259 20.4816 8.16259C20.9989 8.16259 21.4189 8.58259 21.4189 9.09989C21.4189 9.61719 20.9989 10.0372 20.4816 10.0372Z" fill="#6F7176"/>
<path d="M4.15591 8.20975L2.05171 7.51045C1.62821 7.36975 1.19141 7.68475 1.19141 8.13065V14.2871C1.19141 14.7331 1.62821 15.0488 2.05171 14.9074L3.90741 14.2907V9.35215C3.90741 8.94405 3.99911 8.55835 4.15661 8.20905L4.15591 8.20975Z" fill="#434448"/>
<path d="M26.8931 4.21337V8.89638C26.8931 9.37238 26.5151 9.75038 26.0391 9.75038H25.7451C25.3461 9.75038 25.0241 9.47038 24.9331 9.09938H23.4421C23.3161 7.67138 22.1261 6.55137 20.6701 6.55137H16.4141L17.4081 4.85037C17.7161 4.32537 18.2691 4.01037 18.8781 4.01037H24.9331C25.0311 3.63937 25.3461 3.35938 25.7451 3.35938H26.0391C26.5151 3.35938 26.8931 3.74437 26.8931 4.21337Z" fill="#434448"/>
<path d="M9.27648 9.82498L7.49806 11.6035C6.8584 12.2431 6.85841 13.2803 7.4981 13.9199L13.8101 20.2317C14.4498 20.8714 15.4869 20.8714 16.1266 20.2317L17.905 18.4532C18.5447 17.8135 18.5447 16.7764 17.905 16.1367L11.593 9.82494C10.9533 9.18527 9.91615 9.18529 9.27648 9.82498Z" fill="#434448"/>
<path d="M20.4803 8.16016C19.9623 8.16016 19.543 8.58016 19.543 9.09746C19.543 9.61476 19.963 10.0348 20.4803 10.0348C20.9976 10.0348 21.4176 9.61476 21.4176 9.09746C21.4176 8.58016 20.9976 8.16016 20.4803 8.16016Z" fill="#FF1F44"/>
</g>
<defs>
<clipPath id="clip0_1601_31677">
<rect width="28" height="28" fill="white"/>
</clipPath>
</defs>
</svg>
