<svg width="28" height="28" viewBox="0 0 28 28" fill="none" xmlns="http://www.w3.org/2000/svg">
<g clip-path="url(#clip0_1601_31648)">
<path d="M21.0442 8.0764C21.5797 7.5031 21.5769 6.6274 21.068 6.0513C21.537 5.4423 21.481 4.568 20.9084 4.0325C20.3358 3.497 19.4601 3.4998 18.8833 4.0087C18.2743 3.5397 17.4 3.5957 16.8645 4.1683C16.329 4.7416 16.3318 5.6173 16.8407 6.1934C16.3717 6.8024 16.427 7.6767 17.0003 8.2122C17.5736 8.7477 18.4493 8.7449 19.0254 8.236C19.6344 8.705 20.5087 8.649 21.0442 8.0764Z" fill="#FFC733"/>
<path d="M15.088 5.93652C15.4933 5.26522 15.3092 4.40912 14.6918 3.95062C15.0243 3.25762 14.7891 2.41412 14.1171 2.00882C13.4458 1.60352 12.5897 1.78762 12.1312 2.40502C11.4382 2.07252 10.5947 2.30772 10.1887 2.97972C9.78269 3.65172 9.96749 4.50712 10.5849 4.96562C10.2524 5.65862 10.4876 6.50212 11.1596 6.90812C11.8316 7.31342 12.687 7.12932 13.1455 6.51192C13.8385 6.84442 14.682 6.60922 15.0873 5.93722L15.088 5.93652Z" fill="#FFC733"/>
<path d="M18.4368 6.25014C18.8323 5.57254 18.6342 4.71924 18.0105 4.27054C18.3325 3.57264 18.084 2.73264 17.4064 2.33714C16.7288 1.94164 15.8755 2.13974 15.4268 2.76344C14.7289 2.44144 13.8889 2.68994 13.4934 3.36754C13.0979 4.04514 13.296 4.89844 13.9197 5.34714C13.5977 6.04504 13.8462 6.88504 14.5238 7.28054C15.2014 7.67604 16.0547 7.47794 16.5041 6.85424C17.202 7.17624 18.0413 6.92774 18.4368 6.25014Z" fill="#FFD361"/>
<path d="M9.46929 8.24832C9.46929 7.46362 8.86869 6.82662 8.10359 6.75242C8.03009 5.98732 7.39239 5.38672 6.60769 5.38672C5.82299 5.38672 5.18599 5.98732 5.11179 6.75242C4.34669 6.82592 3.74609 7.46362 3.74609 8.24832C3.74609 9.03302 4.34669 9.67002 5.11179 9.74422C5.18529 10.5093 5.82299 11.1099 6.60769 11.1099C7.39239 11.1099 8.02939 10.5093 8.10359 9.74422C8.86869 9.67072 9.46929 9.03302 9.46929 8.24832Z" fill="#FFC733"/>
<path d="M17.1871 8.82169C17.1871 7.72129 16.345 6.82739 15.2719 6.72379C15.1683 5.65069 14.2744 4.80859 13.174 4.80859C12.0736 4.80859 11.1797 5.65069 11.0761 6.72379C10.003 6.82739 9.16016 7.72129 9.16016 8.82169C9.16016 9.92209 10.0023 10.816 11.0761 10.9196C11.1797 11.9927 12.0736 12.8355 13.174 12.8355C14.2744 12.8355 15.1683 11.9934 15.2719 10.9196C16.345 10.816 17.1871 9.92209 17.1871 8.82169Z" fill="#FFDB80"/>
<path d="M24.0357 8.81863C24.0357 8.03393 23.4351 7.39693 22.67 7.32273C22.5965 6.55763 21.9588 5.95703 21.1741 5.95703C20.3894 5.95703 19.7524 6.55763 19.6782 7.32273C18.9131 7.39623 18.3125 8.03393 18.3125 8.81863C18.3125 9.60333 18.9131 10.2403 19.6782 10.3145C19.7517 11.0796 20.3894 11.6802 21.1741 11.6802C21.9588 11.6802 22.5958 11.0796 22.67 10.3145C23.4351 10.241 24.0357 9.60333 24.0357 8.81863Z" fill="#FFDB80"/>
<path d="M12.0201 7.41449C12.375 6.71449 12.1279 5.87449 11.4783 5.46289C11.7583 4.74679 11.4615 3.92359 10.7622 3.56869C10.0622 3.21379 9.22285 3.46089 8.81055 4.11049C8.09445 3.83049 7.27125 4.12729 6.91635 4.82659C6.56145 5.52589 6.80855 6.36659 7.45815 6.77819C7.17815 7.49429 7.47495 8.31749 8.17425 8.67239C8.87425 9.02729 9.71425 8.78019 10.1259 8.13059C10.842 8.41059 11.6652 8.11379 12.0201 7.41449Z" fill="#FFE9B0"/>
<path d="M19.981 9.77778C20.3359 9.07778 20.0888 8.23778 19.4392 7.82618C19.7192 7.11008 19.4224 6.28688 18.7231 5.93198C18.0231 5.57708 17.1838 5.82418 16.7715 6.47378C16.0554 6.19378 15.2322 6.49058 14.8773 7.18988C14.5224 7.88918 14.7695 8.72988 15.4191 9.14148C15.1391 9.85758 15.4359 10.6808 16.1352 11.0357C16.8352 11.3906 17.6752 11.1435 18.0868 10.4939C18.8029 10.7739 19.6261 10.4771 19.981 9.77778Z" fill="#FFE9B0"/>
<path d="M25.6034 10.6525H25.6013C25.5908 9.37986 24.5576 8.35156 23.2829 8.35156C22.0082 8.35156 20.975 9.38056 20.9645 10.6525H16.3193C16.3088 9.37986 15.2756 8.35156 14.0009 8.35156C12.7262 8.35156 11.693 9.38056 11.6825 10.6525H7.03734C7.02684 9.37986 5.99364 8.35156 4.71894 8.35156C3.44424 8.35156 2.41104 9.38056 2.40054 10.6525H2.39844L2.39984 10.6609C2.39984 10.6644 2.39844 10.6686 2.39844 10.6721C2.39844 10.8737 2.43204 11.0662 2.48104 11.2531L4.37734 25.0942C4.46484 25.7326 5.01014 26.2086 5.65484 26.2086H22.3484C22.9931 26.2086 23.5384 25.7326 23.6259 25.0942L25.5222 11.2531C25.5705 11.0662 25.6041 10.8744 25.6041 10.6721C25.6041 10.6686 25.6027 10.6651 25.6027 10.6609L25.6034 10.6525Z" fill="#FF1F44"/>
<path d="M20.9644 10.6707L20.9659 10.6525H20.9623C20.9518 9.37986 19.9186 8.35156 18.6439 8.35156C17.3692 8.35156 16.3361 9.38056 16.3256 10.6525H16.3242L15.9062 26.2086H19.6981L20.9644 10.684C20.9644 10.6798 20.9659 10.6763 20.9659 10.6721V10.6707H20.9644Z" fill="#ECECEE"/>
<path d="M11.6794 10.6525C11.6689 9.37986 10.6357 8.35156 9.36096 8.35156C8.08626 8.35156 7.05306 9.38056 7.04256 10.6525H7.03906L7.04046 10.6707C7.04046 10.6742 7.04186 10.6784 7.04186 10.6826L8.32216 26.2079H12.1134L11.6808 10.6518H11.6794V10.6525Z" fill="#ECECEE"/>
</g>
<defs>
<clipPath id="clip0_1601_31648">
<rect width="28" height="28" fill="white"/>
</clipPath>
</defs>
</svg>
