<svg width="28" height="28" viewBox="0 0 28 28" fill="none" xmlns="http://www.w3.org/2000/svg">
<g clip-path="url(#clip0_1601_31699)">
<path d="M14 26.25C20.7655 26.25 26.25 20.7655 26.25 14C26.25 7.23451 20.7655 1.75 14 1.75C7.23451 1.75 1.75 7.23451 1.75 14C1.75 20.7655 7.23451 26.25 14 26.25Z" fill="#FFC749"/>
<path d="M7.34038 17.8624C6.87908 17.9989 6.69218 18.5638 6.98268 18.9474C9.57058 22.355 14.3481 23.3882 18.1512 21.193C21.9543 18.9971 23.4481 14.3435 21.7912 10.3983C21.605 9.95453 21.0219 9.83483 20.6733 10.1652C18.987 11.7647 16.866 13.3488 14.4335 14.753C12.001 16.1572 9.56848 17.2016 7.34038 17.8624Z" fill="#FF1F44"/>
<path d="M15.4321 16.568C17.9185 15.1323 19.6769 12.865 20.6408 10.1875C18.9587 11.7786 16.8524 13.3543 14.4325 14.7508C11.972 16.1711 9.51152 17.2239 7.26172 17.8833C10.0757 18.3985 12.9338 18.0107 15.4321 16.568Z" fill="#FAFAFA"/>
<path d="M10.9881 11.5427C11.3612 12.1888 10.251 13.9563 9.03439 15.2996C8.86639 15.4851 8.57029 15.3913 8.61789 15.1673L8.98539 13.4607C9.09669 12.9455 8.82719 12.4786 8.32529 12.3169L6.66279 11.7821C6.44509 11.7121 6.51229 11.4083 6.75659 11.3558C8.52829 10.9736 10.615 10.8966 10.9881 11.5427Z" fill="black"/>
<path d="M13.3774 10.1614C13.7505 10.8075 15.8365 10.7298 17.6082 10.3483C17.8525 10.2958 17.9197 9.99203 17.702 9.92203L16.0402 9.38653C15.5383 9.22483 15.2688 8.75793 15.3801 8.24273L15.7476 6.53543C15.7959 6.31143 15.4991 6.21833 15.3318 6.40313C14.1152 7.74643 13.005 9.51463 13.3781 10.1607L13.3774 10.1614Z" fill="black"/>
<path d="M8.17785 20.1769C8.01265 21.1457 7.09355 21.7967 6.12475 21.6315C5.15595 21.4663 4.50495 20.5472 4.67015 19.5784C4.83535 18.6096 7.19295 15.3672 7.19295 15.3672C7.19295 15.3672 8.34305 19.2081 8.17785 20.1769Z" fill="#FAFAFA"/>
<path d="M22.1646 11.6648C23.1124 11.9245 24.091 11.3666 24.3507 10.4195C24.6104 9.47169 24.0525 8.49309 23.1054 8.23339C22.1576 7.97369 18.2229 8.74019 18.2229 8.74019C18.2229 8.74019 21.2175 11.4058 22.1653 11.6655L22.1646 11.6648Z" fill="#FAFAFA"/>
</g>
<defs>
<clipPath id="clip0_1601_31699">
<rect width="28" height="28" fill="white"/>
</clipPath>
</defs>
</svg>
