<svg width="28" height="28" viewBox="0 0 28 28" fill="none" xmlns="http://www.w3.org/2000/svg">
<g clip-path="url(#clip0_1601_31689)">
<path d="M22.7046 5.87109H5.29698C3.91837 5.87109 2.80078 6.98868 2.80078 8.36729V22.7964C2.80078 24.175 3.91837 25.2926 5.29698 25.2926H22.7046C24.0832 25.2926 25.2008 24.175 25.2008 22.7964V8.36729C25.2008 6.98868 24.0832 5.87109 22.7046 5.87109Z" fill="#333537"/>
<path d="M20.0353 8.52344H7.96447C6.66163 8.52344 5.60547 9.5796 5.60547 10.8824V17.9797C5.60547 19.2826 6.66163 20.3387 7.96447 20.3387H20.0353C21.3381 20.3387 22.3943 19.2826 22.3943 17.9797V10.8824C22.3943 9.5796 21.3381 8.52344 20.0353 8.52344Z" fill="#7A7D82"/>
<path d="M14.1172 7.5525L5.54709 2.2668C5.21809 2.0638 5.11659 1.6326 5.31889 1.3029C5.52189 0.974604 5.95169 0.871704 6.28279 1.0747L14.0822 5.8858L21.6905 0.729604C22.0097 0.513304 22.4451 0.596604 22.6628 0.917204C22.8798 1.2371 22.7958 1.6718 22.4752 1.8895L14.1172 7.5525Z" fill="#333537"/>
<path d="M22.0831 24.26C22.8734 24.26 23.5139 23.6194 23.5139 22.8292C23.5139 22.039 22.8734 21.3984 22.0831 21.3984C21.2929 21.3984 20.6523 22.039 20.6523 22.8292C20.6523 23.6194 21.2929 24.26 22.0831 24.26Z" fill="#FF92AD"/>
<path d="M5.91517 24.26C6.70538 24.26 7.34598 23.6194 7.34598 22.8292C7.34598 22.039 6.70538 21.3984 5.91517 21.3984C5.12497 21.3984 4.48438 22.039 4.48438 22.8292C4.48438 23.6194 5.12497 24.26 5.91517 24.26Z" fill="#FF92AD"/>
</g>
<defs>
<clipPath id="clip0_1601_31689">
<rect width="28" height="28" fill="white"/>
</clipPath>
</defs>
</svg>
