<svg width="24" height="24" viewBox="0 0 24 24" fill="none" xmlns="http://www.w3.org/2000/svg">
<g id="Event">
<g id="Group 40051">
<path id="Vector" d="M6.41797 5.71094L11.333 8.54947" stroke="#434448" stroke-width="1.2" stroke-linecap="round" stroke-linejoin="round"/>
<path id="Vector_2" d="M12.8711 4.01172L17.7861 6.85025" stroke="#434448" stroke-width="1.2" stroke-linecap="round" stroke-linejoin="round"/>
<path id="Star 2" d="M12.1133 13.7823C12.2586 13.5898 12.5477 13.5898 12.693 13.7823L13.5381 14.9012C13.5816 14.9588 13.6412 15.0021 13.7093 15.0256L15.0347 15.4836C15.2626 15.5623 15.3519 15.8372 15.2138 16.0349L14.4108 17.1844C14.3695 17.2435 14.3467 17.3136 14.3454 17.3857L14.3194 18.7877C14.3149 19.0288 14.0811 19.1987 13.8504 19.1285L12.509 18.7199C12.44 18.6989 12.3663 18.6989 12.2973 18.7199L10.9559 19.1285C10.7252 19.1987 10.4914 19.0288 10.4869 18.7877L10.4609 17.3857C10.4596 17.3136 10.4368 17.2435 10.3955 17.1844L9.59248 16.0349C9.45437 15.8372 9.54369 15.5623 9.77162 15.4836L11.097 15.0256C11.1651 15.0021 11.2247 14.9588 11.2682 14.9012L12.1133 13.7823Z" stroke="#434448" stroke-width="1.2"/>
<rect id="Rectangle 98" x="3.49805" y="10.3047" width="18.1191" height="11.6968" rx="2" stroke="#434448" stroke-width="1.2"/>
<rect id="Rectangle 99" x="2.38086" y="6.54297" width="18.1191" height="4.31449" rx="1" transform="rotate(-15 2.38086 6.54297)" stroke="#434448" stroke-width="1.2"/>
</g>
</g>
</svg>
