<svg width="75" height="61" viewBox="0 0 75 61" fill="none" xmlns="http://www.w3.org/2000/svg">
<g id="Group 2085665753">
<g id="Group 40051">
<rect id="Rectangle 99" x="24.5791" y="12.4336" width="42.1771" height="27.2274" rx="5.56574" transform="rotate(4.94526 24.5791 12.4336)" stroke="#29292C" stroke-width="1.6"/>
<path id="Star 3" d="M43.2105 22.1538C43.6576 21.6533 44.4593 21.7194 44.8184 22.2863L46.4209 24.8163C46.5283 24.9859 46.6837 25.1196 46.8674 25.2005L49.6081 26.4077C50.2223 26.6783 50.4072 27.4611 49.9789 27.9779L48.068 30.2837C47.9399 30.4383 47.8607 30.6274 47.8405 30.8271L47.5393 33.8067C47.4718 34.4744 46.7844 34.8922 46.1606 34.6446L43.3771 33.5397C43.1906 33.4657 42.9862 33.4488 42.7901 33.4913L39.8632 34.1256C39.2073 34.2678 38.5975 33.7431 38.6403 33.0733L38.8309 30.0846C38.8437 29.8843 38.7966 29.6847 38.6955 29.5113L37.1878 26.9237C36.85 26.3439 37.1605 25.6018 37.8107 25.4355L40.7121 24.6932C40.9065 24.6435 41.0817 24.537 41.2154 24.3873L43.2105 22.1538Z" stroke="#29292C" stroke-width="1.6"/>
<rect id="Rectangle 98" x="4.02734" y="32.6348" width="42.1771" height="27.2274" rx="5.56574" transform="rotate(-18.7823 4.02734 32.6348)" fill="#0E0E0E" stroke="#29292C" stroke-width="1.6"/>
<path id="Star 2" d="M25.9629 33.1358C26.1734 32.4986 26.935 32.2396 27.4903 32.6164L29.9685 34.2978C30.1346 34.4105 30.3305 34.4712 30.5312 34.4722L33.526 34.4867C34.1971 34.49 34.6787 35.1343 34.492 35.7789L33.6586 38.6554C33.6028 38.8482 33.6056 39.0532 33.6667 39.2444L34.5783 42.0971C34.7825 42.7364 34.3186 43.3936 33.6479 43.4152L30.6546 43.5115C30.454 43.518 30.2599 43.584 30.0969 43.7011L27.6655 45.4496C27.1207 45.8415 26.3523 45.6033 26.1245 44.9721L25.1079 42.1551C25.0398 41.9663 24.917 41.8021 24.7552 41.6833L22.341 39.9112C21.7999 39.5141 21.789 38.7098 22.3189 38.2981L24.6839 36.4607C24.8424 36.3376 24.9606 36.1701 25.0236 35.9795L25.9629 33.1358Z" stroke="#29292C" stroke-width="1.6"/>
</g>
<rect id="Rectangle 1664145090" x="66.4062" y="47.4346" width="4.13995" height="4.13995" rx="0.566008" transform="rotate(16.5047 66.4062 47.4346)" fill="#29292C"/>
<rect id="Rectangle 1664145092" x="14.8203" y="14.4355" width="3.32766" height="3.32766" rx="0.566008" transform="rotate(42.8184 14.8203 14.4355)" fill="#29292C"/>
<rect id="Rectangle 1664145093" x="10.4912" y="20.7012" width="2.29474" height="2.29474" rx="0.566008" transform="rotate(80.1337 10.4912 20.7012)" fill="#29292C"/>
</g>
</svg>
