<svg width="74" height="59" viewBox="0 0 74 59" fill="none" xmlns="http://www.w3.org/2000/svg">
<g id="Group 2085665753">
<g id="Group 40051">
<path id="Vector" d="M11.7881 19.8928L24.7472 22.4647" stroke="#434448" stroke-width="1.6" stroke-linecap="round" stroke-linejoin="round"/>
<path id="Vector_2" d="M24.7363 11.3098L37.6955 13.8817" stroke="#434448" stroke-width="1.6" stroke-linecap="round" stroke-linejoin="round"/>
<path id="Star 2" d="M30.3232 33.6292C30.5337 32.992 31.2953 32.733 31.8507 33.1098L34.3289 34.7912C34.495 34.9039 34.6908 34.9646 34.8915 34.9656L37.8863 34.9802C38.5574 34.9834 39.0391 35.6277 38.8523 36.2723L38.019 39.1488C37.9631 39.3416 37.9659 39.5466 38.027 39.7378L38.9386 42.5905C39.1429 43.2298 38.679 43.887 38.0082 43.9086L35.015 44.0049C34.8144 44.0114 34.6202 44.0774 34.4573 44.1946L32.0259 45.943C31.481 46.3349 30.7127 46.0968 30.4849 45.4655L29.4683 42.6485C29.4001 42.4597 29.2774 42.2955 29.1156 42.1767L26.7013 40.4047C26.1603 40.0076 26.1493 39.2032 26.6793 38.7915L29.0443 36.9541C29.2027 36.831 29.321 36.6635 29.3839 36.4729L30.3232 33.6292Z" stroke="#434448" stroke-width="1.6"/>
<rect id="Rectangle 98" x="8.7959" y="32.2034" width="42.1771" height="27.2274" rx="5.56574" transform="rotate(-18.7823 8.7959 32.2034)" stroke="#434448" stroke-width="1.6"/>
<rect id="Rectangle 99" x="3.51465" y="24.7524" width="42.1771" height="10.0431" rx="2.78287" transform="rotate(-33.7823 3.51465 24.7524)" stroke="#434448" stroke-width="1.6"/>
</g>
<rect id="Rectangle 1664145090" x="56.3252" y="3.36108" width="4.13995" height="4.13995" rx="0.566008" transform="rotate(135 56.3252 3.36108)" fill="#434448"/>
<rect id="Rectangle 1664145091" x="65.7163" y="17.9268" width="3.4321" height="3.4321" rx="0.566008" transform="rotate(161.314 65.7163 17.9268)" fill="#434448"/>
<rect id="Rectangle 1664145092" x="73.7559" y="5.7312" width="2.29475" height="2.29475" rx="0.566008" transform="rotate(161.314 73.7559 5.7312)" fill="#434448"/>
</g>
</svg>
