<svg width="100" height="100" viewBox="0 0 100 100" fill="none" xmlns="http://www.w3.org/2000/svg">
<path d="M20 61.2928V38.6939C20 34.4447 23.4447 31 27.6939 31C31.9431 31 35.3878 34.4447 35.3878 38.6939V41.0166L42.8488 33.5555C44.4851 31.9193 46.7044 31 49.0185 31C53.8373 31 57.7437 34.9064 57.7437 39.7252V40.5811L64.8293 33.4954C66.4271 31.8976 68.5942 31 70.8538 31C75.5592 31 79.3737 34.8145 79.3737 39.5199V61.2675C79.3737 65.4766 75.9615 68.8888 71.7524 68.8888C67.5432 68.8888 64.131 65.4766 64.131 61.2675V57.8561L55.4434 66.5437C53.9418 68.0453 51.9053 68.8888 49.7818 68.8888C45.3599 68.8888 41.7752 65.3041 41.7752 60.8822V57.8561L32.9673 66.664C31.5427 68.0885 29.6106 68.8888 27.596 68.8888C23.4009 68.8888 20 65.488 20 61.2928Z" fill="white"/>
</svg>
