<svg width="37" height="36" viewBox="0 0 37 36" fill="none" xmlns="http://www.w3.org/2000/svg">
<circle cx="18.5" cy="18" r="18" fill="#434448"/>
<path d="M18.897 21.3273C18.2436 21.3273 17.7094 20.8066 17.6926 20.1535L17.5024 12.7523C17.497 12.5407 17.5269 12.3296 17.5909 12.1278C17.9964 10.85 19.8049 10.8492 20.2104 12.127C20.2746 12.3294 20.3045 12.541 20.2988 12.7532L20.1013 20.1547C20.0839 20.8073 19.5498 21.3273 18.897 21.3273ZM18.9008 25.9676C17.9162 25.9676 17.3008 25.3795 17.3008 24.4331C17.3008 23.4774 17.9162 22.8894 18.9008 22.8894C19.8942 22.8894 20.5008 23.4774 20.5008 24.4331C20.5008 25.3795 19.8942 25.9676 18.9008 25.9676Z" fill="#29292C"/>
</svg>
