<svg width="18" height="18" viewBox="0 0 18 18" fill="none" xmlns="http://www.w3.org/2000/svg">
<g id="&#240;&#159;&#148;&#148; &#236;&#162;&#133;" clip-path="url(#clip0_1871_41117)">
<g id="Group">
<path id="Vector" d="M11.521 14.4565C11.521 15.8484 10.3928 16.9765 9.00096 16.9765C7.60911 16.9765 6.48096 15.8484 6.48096 14.4565H11.521Z" fill="#FF9E00"/>
<path id="Vector_2" d="M7.48145 2.54211C7.48145 1.70286 8.16185 1.02246 9.0011 1.02246C9.84035 1.02246 10.5207 1.70286 10.5207 2.54211H7.4819H7.48145Z" fill="#FF9E00"/>
<path id="Vector_3" d="M2.74823 8.47024C2.74823 4.87879 5.77583 1.99474 9.41768 2.23054C12.7414 2.44564 15.2546 5.35399 15.2546 8.68444V11.42L16.3184 13.2623C16.6249 13.7933 16.2419 14.457 15.6286 14.457H2.37383C1.76093 14.457 1.37753 13.7933 1.68398 13.2623L2.74778 11.42L2.74823 8.47024Z" fill="#FFC000"/>
</g>
</g>
<defs>
<clipPath id="clip0_1871_41117">
<rect width="18" height="18" fill="white"/>
</clipPath>
</defs>
</svg>
