<svg width="25" height="25" viewBox="0 0 25 25" fill="none" xmlns="http://www.w3.org/2000/svg">
<path d="M6.39062 16.2599C6.39062 15.8659 6.49103 15.4785 6.68236 15.1341L10.6948 7.91162C11.0505 7.27141 11.6694 6.81967 12.3875 6.67604V6.67604C12.7107 6.6114 13.0435 6.6114 13.3667 6.67604V6.67604C14.0849 6.81967 14.7037 7.27141 15.0594 7.91162L19.0719 15.1341C19.2632 15.4785 19.3636 15.8659 19.3636 16.2599V16.2599C19.3636 17.5402 18.3257 18.5781 17.0454 18.5781H8.70884C7.42852 18.5781 6.39062 17.5402 6.39062 16.2599V16.2599Z" stroke="#7A7D82" stroke-width="1.2"/>
<path d="M12.875 10.4699L12.875 13.0645" stroke="#7A7D82" stroke-width="1.2" stroke-linecap="round" stroke-linejoin="round"/>
<path d="M12.875 15.0116L12.875 15.3359" stroke="#7A7D82" stroke-width="1.2" stroke-linecap="round" stroke-linejoin="round"/>
</svg>
