<svg width="71" height="53" viewBox="0 0 71 53" fill="none" xmlns="http://www.w3.org/2000/svg">
<rect x="53.3252" y="3.14844" width="4.13995" height="4.13995" rx="0.566008" transform="rotate(135 53.3252 3.14844)" fill="#434448"/>
<rect x="62.7168" y="17.7148" width="3.4321" height="3.4321" rx="0.566008" transform="rotate(161.314 62.7168 17.7148)" fill="#434448"/>
<rect x="70.7559" y="5.51562" width="2.29475" height="2.29475" rx="0.566008" transform="rotate(161.314 70.7559 5.51562)" fill="#434448"/>
<path d="M21.4801 7.33738C30.0746 5.82356 38.3733 11.2258 40.467 19.6977L42.6603 28.5738C42.8698 29.4217 43.1831 30.2411 43.5926 31.0125L45.9301 35.416C46.9486 37.3354 45.7986 39.6899 43.6586 40.0671L11.8207 45.6755C9.68034 46.0526 7.79469 44.2319 8.09643 42.0796L8.78866 37.1435C8.90992 36.2785 8.92435 35.4014 8.83155 34.533L7.85972 25.4416C6.93253 16.7642 12.8856 8.85135 21.4801 7.33738Z" stroke="#434448" stroke-width="1.6" stroke-linejoin="round"/>
<path d="M34.2087 41.5889C34.5121 43.3113 34.1189 45.0836 33.1155 46.5161C32.1121 47.9485 30.5808 48.9237 28.8585 49.2271C27.1361 49.5305 25.3637 49.1373 23.9313 48.1339C22.4989 47.1306 21.5237 45.5993 21.2203 43.8769L27.7145 42.7329L34.2087 41.5889Z" stroke="#434448" stroke-width="1.6"/>
</svg>
