<svg  viewBox="0 0 28 28" fill="none" xmlns="http://www.w3.org/2000/svg">
<g clip-path="url(#clip0_1601_31815)">
<path d="M4.31411 26.0014L20.6332 20.1361L7.17361 6.72266L1.33561 23.0264C0.672706 24.8786 2.46331 26.6664 4.31411 26.0014Z" fill="#FF1F44"/>
<path d="M7.24925 3.26364C7.97142 3.26364 8.55685 2.67821 8.55685 1.95604C8.55685 1.23387 7.97142 0.648438 7.24925 0.648438C6.52708 0.648438 5.94165 1.23387 5.94165 1.95604C5.94165 2.67821 6.52708 3.26364 7.24925 3.26364Z" fill="#FF1F44"/>
<path d="M21.2305 19.7797C22.6328 18.3773 20.7051 14.1759 16.9247 10.3955C13.1443 6.61508 8.94281 4.68731 7.54044 6.08969C6.13807 7.49206 8.06583 11.6935 11.8462 15.4739C15.6266 19.2543 19.8281 21.1821 21.2305 19.7797Z" fill="#BE1531"/>
<path d="M11.9441 9.66461C11.865 9.66461 11.7838 9.65341 11.7033 9.63101C11.2385 9.49871 10.9697 9.01431 11.102 8.54951C11.5192 7.08861 11.4968 5.54581 11.0369 4.08771C10.8913 3.62641 11.1475 3.13571 11.6081 2.99011C12.0687 2.84451 12.5601 3.10001 12.7057 3.56131C13.2692 5.34701 13.2965 7.23841 12.7848 9.02971C12.6749 9.41401 12.3256 9.66461 11.9441 9.66461Z" fill="#FFDDE5"/>
<path d="M20.5583 12.2194C20.2874 12.2194 20.02 12.0941 19.8492 11.8575C19.5657 11.4662 19.6532 10.9195 20.0445 10.6353C21.8953 9.29409 24.087 8.53179 26.383 8.43169C26.8695 8.42679 27.2741 8.78519 27.2958 9.26749C27.3168 9.75049 26.9423 10.1586 26.46 10.1803C24.507 10.2657 22.6443 10.9132 21.0714 12.0528C20.916 12.1655 20.7368 12.2194 20.559 12.2194H20.5583Z" fill="#FF1F44"/>
<path d="M24.066 16.6366C23.9547 16.6366 23.8413 16.6149 23.7314 16.5694C23.1434 16.3258 22.5302 16.1382 21.9086 16.0115C19.9675 15.6153 17.969 15.8078 16.1294 16.5694C15.6807 16.7535 15.1704 16.5421 14.9863 16.0962C14.8015 15.6496 15.0136 15.1379 15.4595 14.9531C17.6232 14.0571 19.9752 13.8303 22.2586 14.2972C22.9894 14.4463 23.7104 14.6668 24.4013 14.9531C24.8479 15.1379 25.06 15.6496 24.8752 16.0962C24.7359 16.4329 24.409 16.6366 24.066 16.6366Z" fill="#FFC4D2"/>
<path d="M14.9499 12.2979C14.6874 12.2979 14.427 12.1803 14.2548 11.9556C13.9608 11.5727 14.0329 11.0232 14.4165 10.7292C16.5214 9.11428 17.871 6.77628 18.2175 4.14567C18.2805 3.66687 18.7208 3.32878 19.1989 3.39248C19.6784 3.45548 20.0158 3.89508 19.9521 4.37388C19.5447 7.46788 17.9571 10.2175 15.4812 12.1173C15.3223 12.2391 15.1361 12.2979 14.9499 12.2979Z" fill="#FF5D7E"/>
<path d="M11.0113 13.8147L11.0116 12.5008C11.0117 12.2274 10.7901 12.0058 10.5168 12.0057L9.20292 12.0054C8.92959 12.0054 8.70796 12.2269 8.7079 12.5002L8.70758 13.8141C8.70751 14.0874 8.92903 14.3091 9.20236 14.3091L10.5163 14.3094C10.7896 14.3095 11.0112 14.088 11.0113 13.8147Z" fill="white"/>
<path d="M16.5304 0.387515L15.3304 0.992782C15.0809 1.11866 14.9806 1.42301 15.1065 1.67258L15.7117 2.87257C15.8376 3.12213 16.142 3.2224 16.3915 3.09652L17.5915 2.49126C17.8411 2.36538 17.9413 2.06102 17.8155 1.81146L17.2102 0.611467C17.0843 0.361904 16.78 0.261638 16.5304 0.387515Z" fill="#FFC4D2"/>
<path d="M26.1341 20.5815L26.5413 19.3007C26.6259 19.0343 26.4786 18.7497 26.2123 18.665L24.9314 18.2579C24.665 18.1732 24.3805 18.3205 24.2958 18.5869L23.8886 19.8677C23.804 20.1341 23.9513 20.4187 24.2176 20.5034L25.4985 20.9105C25.7649 20.9952 26.0494 20.8479 26.1341 20.5815Z" fill="#FF92AD"/>
<path d="M23.4738 7.35951C24.0553 7.35951 24.5266 6.88815 24.5266 6.30671C24.5266 5.72526 24.0553 5.25391 23.4738 5.25391C22.8924 5.25391 22.421 5.72526 22.421 6.30671C22.421 6.88815 22.8924 7.35951 23.4738 7.35951Z" fill="#FFDDE5"/>
<path d="M2.45282 11.924C3.03427 11.924 3.50562 11.4526 3.50562 10.8712C3.50562 10.2897 3.03427 9.81836 2.45282 9.81836C1.87138 9.81836 1.40002 10.2897 1.40002 10.8712C1.40002 11.4526 1.87138 11.924 2.45282 11.924Z" fill="#FF92AD"/>
<path d="M17.1948 25.6543C17.8733 25.6543 18.4233 25.1042 18.4233 24.4258C18.4233 23.7473 17.8733 23.1973 17.1948 23.1973C16.5163 23.1973 15.9663 23.7473 15.9663 24.4258C15.9663 25.1042 16.5163 25.6543 17.1948 25.6543Z" fill="#FFDDE5"/>
</g>
<defs>
<clipPath id="clip0_1601_31815">
<rect width="28" height="28" fill="white"/>
</clipPath>
</defs>
</svg>
