<svg width="24" height="24" viewBox="0 0 24 24" fill="none" xmlns="http://www.w3.org/2000/svg">
<g id="Frame 2087327731">
<g id="Vector">
<path d="M9.18748 14.4191L11.6596 11.947L14.1318 9.47481M16.9099 6.6967C18.3164 8.10322 19.1066 10.0109 19.1066 12C19.1066 13.9891 18.3164 15.8968 16.9099 17.3033C15.5034 18.7098 13.5957 19.5 11.6066 19.5C9.61748 19.5 7.70982 18.7098 6.3033 17.3033C4.89678 15.8968 4.1066 13.9891 4.1066 12C4.1066 10.0109 4.89678 8.10322 6.3033 6.6967C7.70982 5.29018 9.61748 4.5 11.6066 4.5C13.5957 4.5 15.5034 5.29018 16.9099 6.6967Z" fill="#29292C"/>
<path d="M9.18748 14.4191L11.6596 11.947M14.1318 9.47481L11.6596 11.947M11.6596 11.947L9.24051 9.52785M11.6596 11.947L14.1848 14.4722M16.9099 6.6967C18.3164 8.10322 19.1066 10.0109 19.1066 12C19.1066 13.9891 18.3164 15.8968 16.9099 17.3033C15.5034 18.7098 13.5957 19.5 11.6066 19.5C9.61748 19.5 7.70982 18.7098 6.3033 17.3033C4.89678 15.8968 4.1066 13.9891 4.1066 12C4.1066 10.0109 4.89678 8.10322 6.3033 6.6967C7.70982 5.29018 9.61748 4.5 11.6066 4.5C13.5957 4.5 15.5034 5.29018 16.9099 6.6967Z" stroke="#DDDEE0" stroke-width="1.2" stroke-linecap="round"/>
</g>
</g>
</svg>
