<svg width="28" height="28" viewBox="0 0 28 28" fill="none" xmlns="http://www.w3.org/2000/svg">
<g clip-path="url(#clip0_1871_32349)">
<path d="M13.9609 26.25C20.7264 26.25 26.2109 20.7655 26.2109 14C26.2109 7.23451 20.7264 1.75 13.9609 1.75C7.19545 1.75 1.71094 7.23451 1.71094 14C1.71094 20.7655 7.19545 26.25 13.9609 26.25Z" fill="#FFC84D"/>
<path d="M10.5641 13.1945C11.4041 13.1945 12.0852 12.5135 12.0852 11.6734C12.0852 10.8334 11.4041 10.1523 10.5641 10.1523C9.72399 10.1523 9.04297 10.8334 9.04297 11.6734C9.04297 12.5135 9.72399 13.1945 10.5641 13.1945Z" fill="black"/>
<path d="M19.1559 12.2059C19.3358 12.2759 19.5206 12.1093 19.466 11.9245C19.1622 10.8976 18.1941 10.1913 17.1168 10.2858C16.0395 10.3803 15.2086 11.2441 15.0875 12.3081C15.0658 12.4999 15.2765 12.6315 15.4417 12.5314C15.8015 12.313 16.421 12.0232 17.2624 11.9497C18.1038 11.8762 18.7646 12.054 19.1566 12.2066L19.1559 12.2059Z" fill="black"/>
<path d="M14.4499 16.9335C14.7747 16.7242 15.3473 16.4344 15.3473 15.8492C15.3473 15.5279 15.0435 15.0771 14.2721 14.844C14.0201 14.7677 13.8444 14.718 13.8465 14.5717C13.8486 14.4254 13.9984 14.4023 14.2385 14.4023C14.4723 14.4023 16.251 14.7173 16.3189 15.8359C16.3686 16.6556 15.8114 16.9923 15.3634 17.3311C15.8121 17.6699 16.4309 18.2789 16.3826 18.9614C16.2951 20.1983 14.8769 20.4916 14.3316 20.4916C14.0089 20.4916 13.8129 20.4636 13.7912 20.325C13.7695 20.1864 13.9088 20.1227 14.2721 19.9785C14.8776 19.7377 15.3046 19.359 15.3046 18.8557C15.3046 18.2047 14.7194 17.8183 14.4492 17.6468C14.179 17.4753 14.0068 17.4123 14.0124 17.2891C14.0187 17.1442 14.1853 17.1036 14.4499 16.9335Z" fill="#FF6D00"/>
<path d="M21.3028 24.0954C21.02 24.1633 20.7253 24.0562 20.5517 23.8224C20.0015 23.0804 18.8395 21.3626 18.6253 19.8359C18.3432 17.822 20.0085 16.5214 21.3994 17.0275C22.1925 17.3159 22.5187 17.9039 22.6531 18.3561C22.7238 18.5941 22.9982 18.6942 23.2061 18.557C23.5995 18.2966 24.2274 18.0565 25.0205 18.3449C26.4114 18.851 26.851 20.9181 25.3404 22.2796C24.1952 23.3121 22.2016 23.8805 21.3028 24.0954Z" fill="#FF1F44"/>
</g>
<defs>
<clipPath id="clip0_1871_32349">
<rect width="28" height="28" fill="white"/>
</clipPath>
</defs>
</svg>
