<svg width="121" height="62" viewBox="0 0 121 62" fill="none" xmlns="http://www.w3.org/2000/svg">
<g clip-path="url(#clip0_7673_13942)">
<rect x="19" y="9" width="57" height="71" rx="4" fill="#D85B71" fill-opacity="0.6"/>
<path d="M31 21H64" stroke="#773A45" stroke-width="3" stroke-linecap="round"/>
<path d="M31 31H64" stroke="#773A45" stroke-width="3" stroke-linecap="round"/>
<path d="M31 40H54" stroke="#773A45" stroke-width="3" stroke-linecap="round"/>
<path d="M101.047 11.3955C101.448 10.8679 102.241 10.8681 102.641 11.3955L104.304 13.5879C104.523 13.8758 104.879 14.0238 105.237 13.9746L107.963 13.5996C108.619 13.5094 109.18 14.0705 109.089 14.7266L108.714 17.4521C108.665 17.8101 108.813 18.1674 109.101 18.3857L111.294 20.0479C111.821 20.448 111.821 21.2414 111.294 21.6416L109.101 23.3037C108.813 23.522 108.665 23.8793 108.714 24.2373L109.089 26.9629C109.18 27.619 108.619 28.1801 107.963 28.0898L105.237 27.7148C104.879 27.6657 104.523 27.8138 104.304 28.1016L102.641 30.2939C102.241 30.8216 101.448 30.8216 101.047 30.2939L99.3854 28.1016C99.1671 27.8138 98.8106 27.6658 98.4528 27.7148L95.7262 28.0898C95.0703 28.1797 94.51 27.6189 94.6002 26.9629L94.9742 24.2373C95.0235 23.8793 94.8764 23.5221 94.5885 23.3037L92.3951 21.6416C91.8678 21.2414 91.8677 20.448 92.3951 20.0479L94.5885 18.3857C94.8763 18.1674 95.0235 17.81 94.9742 17.4521L94.6002 14.7266C94.5102 14.0707 95.0704 13.5098 95.7262 13.5996L98.4528 13.9746C98.8107 14.0237 99.1671 13.8758 99.3854 13.5879L101.047 11.3955ZM105.387 18.2568C105.063 17.9575 104.556 17.9774 104.256 18.3018L101.152 21.6641L99.4323 19.8018C99.1325 19.4775 98.6259 19.4573 98.3014 19.7568C97.9771 20.0565 97.9572 20.5631 98.2565 20.8877L100.564 23.3877C100.715 23.5516 100.929 23.6444 101.152 23.6445C101.375 23.6445 101.588 23.5516 101.74 23.3877L105.432 19.3877C105.732 19.0631 105.712 18.5565 105.387 18.2568Z" fill="#FF92AD" fill-opacity="0.3"/>
<path d="M2.45575 29.6071L4.14612 29.1542M5.83649 28.7013L4.14612 29.1542M4.14612 29.1542L3.69037 27.4533L4.60052 30.85" stroke="#FF92AD" stroke-opacity="0.3" stroke-width="1.6" stroke-linecap="round" stroke-linejoin="round"/>
<circle cx="86" cy="47" r="2" fill="#FF92AD" fill-opacity="0.3"/>
</g>
<defs>
<clipPath id="clip0_7673_13942">
<rect width="121" height="62" fill="white"/>
</clipPath>
</defs>
</svg>
