<svg width="18" height="18" viewBox="0 0 18 18" fill="none" xmlns="http://www.w3.org/2000/svg">
<g id="&#226;&#157;&#142;&#239;&#184;&#143; &#236;&#180;&#136;&#235;&#161;&#157; &#236;&#131;&#129;&#236;&#158;&#144; &#236;&#149;&#136; &#236;&#151;&#145;&#236;&#138;&#164;&#237;&#145;&#156;" clip-path="url(#clip0_1871_32835)">
<g id="Group">
<path id="Vector" d="M12.825 1.57422H5.17495C3.18673 1.57422 1.57495 3.18599 1.57495 5.17422V12.8242C1.57495 14.8124 3.18673 16.4242 5.17495 16.4242H12.825C14.8132 16.4242 16.425 14.8124 16.425 12.8242V5.17422C16.425 3.18599 14.8132 1.57422 12.825 1.57422Z" fill="#E61D3E"/>
<g id="Group_2">
<path id="Vector_2" d="M11.9249 12.8237C11.6945 12.8237 11.4646 12.736 11.2886 12.56L5.43864 6.71002C5.08719 6.35857 5.08719 5.78887 5.43864 5.43742C5.79009 5.08597 6.35979 5.08597 6.71124 5.43742L12.5612 11.2874C12.9127 11.6389 12.9127 12.2086 12.5612 12.56C12.3853 12.736 12.1553 12.8237 11.9249 12.8237Z" fill="#ECECEE"/>
<path id="Vector_3" d="M6.07494 12.8237C5.84454 12.8237 5.61459 12.736 5.43864 12.56C5.08719 12.2086 5.08719 11.6389 5.43864 11.2874L11.2886 5.43742C11.6401 5.08597 12.2098 5.08597 12.5612 5.43742C12.9127 5.78887 12.9127 6.35857 12.5612 6.71002L6.71124 12.56C6.53529 12.736 6.30534 12.8237 6.07494 12.8237Z" fill="#ECECEE"/>
</g>
</g>
</g>
<defs>
<clipPath id="clip0_1871_32835">
<rect width="18" height="18" fill="white"/>
</clipPath>
</defs>
</svg>
