<svg width="18" height="18" viewBox="0 0 18 18" fill="none" xmlns="http://www.w3.org/2000/svg">
<g id="&#226;&#157;&#135;&#239;&#184;&#143; &#235;&#176;&#152;&#236;&#167;&#157;&#236;&#158;&#132;" clip-path="url(#clip0_1871_32849)">
<g id="Group">
<path id="Vector" d="M9 16.875C13.3492 16.875 16.875 13.3492 16.875 9C16.875 4.65076 13.3492 1.125 9 1.125C4.65076 1.125 1.125 4.65076 1.125 9C1.125 13.3492 4.65076 16.875 9 16.875Z" fill="#E61D3E"/>
<path id="Vector_2" d="M9.20557 13.6872L10.3076 10.3815C10.3216 10.3401 10.3535 10.3077 10.3949 10.2942L13.7006 9.19214C13.8964 9.12689 13.8964 8.84969 13.7006 8.78444L10.3949 7.68239C10.3535 7.66844 10.3211 7.63649 10.3076 7.59509L9.20557 4.28939C9.14032 4.09364 8.86312 4.09364 8.79787 4.28939L7.69582 7.59509C7.68187 7.63649 7.64992 7.66889 7.60852 7.68239L4.30282 8.78444C4.10707 8.84969 4.10707 9.12689 4.30282 9.19214L7.60852 10.2942C7.64992 10.3081 7.68232 10.3401 7.69582 10.3815L8.79787 13.6872C8.86312 13.8829 9.14032 13.8829 9.20557 13.6872Z" fill="#ECECEE"/>
</g>
</g>
<defs>
<clipPath id="clip0_1871_32849">
<rect width="18" height="18" fill="white"/>
</clipPath>
</defs>
</svg>
