<svg width="18" height="18" viewBox="0 0 18 18" fill="none" xmlns="http://www.w3.org/2000/svg">
<g clip-path="url(#clip0_2739_24316)">
<path d="M12.8232 1.57422H5.17324C3.18502 1.57422 1.57324 3.18599 1.57324 5.17422V12.8242C1.57324 14.8124 3.18502 16.4242 5.17324 16.4242H12.8232C14.8115 16.4242 16.4232 14.8124 16.4232 12.8242V5.17422C16.4232 3.18599 14.8115 1.57422 12.8232 1.57422Z" fill="#1A70C7"/>
<path d="M8.14523 12.2474C7.93778 12.2474 7.73078 12.1686 7.57238 12.0102L4.88228 9.32011C4.56593 9.00376 4.56593 8.49076 4.88228 8.17441C5.19863 7.85851 5.71163 7.85851 6.02798 8.17441L8.14523 10.2921L11.9698 6.46756C12.2866 6.15166 12.7991 6.15121 13.1155 6.46756C13.4318 6.78391 13.4318 7.29691 13.1155 7.61326L8.71808 12.0102C8.55968 12.1682 8.35268 12.2474 8.14523 12.2474Z" fill="#FAFAFA"/>
</g>
<defs>
<clipPath id="clip0_2739_24316">
<rect width="18" height="18" fill="white"/>
</clipPath>
</defs>
</svg>
