<svg width="18" height="18" viewBox="0 0 18 18" fill="none" xmlns="http://www.w3.org/2000/svg">
<g id="&#240;&#159;&#147;&#158; &#236;&#136;&#152;&#237;&#153;&#148;&#234;&#184;&#176;" clip-path="url(#clip0_1871_41097)">
<path id="Vector" d="M5.01821 12.9819C8.68526 16.6489 11.4667 17.4837 13.6825 16.9563C14.9128 16.6633 16.0095 15.6612 16.7421 14.8273C17.2974 14.1946 17.1925 13.2217 16.5265 12.7065L13.597 10.4394C13.3045 10.213 12.8892 10.2391 12.6273 10.501L11.0716 12.0567C10.8313 12.297 10.461 12.3447 10.1716 12.1669C9.67166 11.86 8.83286 11.2651 7.78436 10.2162C6.73586 9.16765 6.14096 8.32886 5.83361 7.82891C5.65586 7.53956 5.70356 7.16921 5.94386 6.92891L7.49951 5.37326C7.76096 5.11181 7.78751 4.69646 7.56116 4.40351L5.29406 1.47401C4.77881 0.808006 3.80546 0.703156 3.17321 1.25846C2.33936 1.99061 1.33721 3.08726 1.04426 4.31801C0.516864 6.53426 1.35161 9.31526 5.01866 12.9823L5.01821 12.9819Z" fill="#23B169"/>
</g>
<defs>
<clipPath id="clip0_1871_41097">
<rect width="18" height="18" fill="white"/>
</clipPath>
</defs>
</svg>
