<svg width="46" height="45" viewBox="0 0 46 45" fill="none" xmlns="http://www.w3.org/2000/svg">
<path d="M31.1405 22.6152L29.6631 24.6312L28.1859 22.6152L31.1405 22.6152Z" fill="white"/>
<path d="M29.9397 25.5962C29.8096 25.7857 29.5298 25.7857 29.3996 25.5963L27.2539 22.4742C27.1045 22.2568 27.2601 21.9609 27.524 21.9609L31.8146 21.9609C32.0784 21.9609 32.234 22.2568 32.0847 22.4742L29.9397 25.5962ZM29.6685 23.3535C29.5892 23.3535 29.5424 23.4425 29.5874 23.5078C29.6266 23.5647 29.7107 23.5646 29.7498 23.5076C29.7945 23.4423 29.7477 23.3535 29.6685 23.3535Z" fill="white"/>
<path d="M19.0896 17.1388C19.5411 16.8775 20.0236 16.6638 20.5305 16.5058C21.1882 16.3008 21.887 16.1895 22.6126 16.1895C23.8973 16.1895 25.0982 16.5384 26.1356 17.1387C27.2053 17.7578 28.0956 18.6481 28.7147 19.7178C29.315 20.7551 29.6639 21.9561 29.6639 23.2407" stroke="white" stroke-width="1.8" stroke-linecap="round" stroke-linejoin="round"/>
<path d="M15.0078 23.2051L16.4852 21.1891L17.9624 23.2051L15.0078 23.2051Z" fill="white"/>
<path d="M16.2008 20.2241C16.331 20.0346 16.6107 20.0346 16.7409 20.2241L18.8866 23.3461C19.036 23.5635 18.8804 23.8594 18.6165 23.8594L14.3259 23.8594C14.0621 23.8594 13.9065 23.5636 14.0558 23.3461L16.2008 20.2241ZM16.472 22.4668C16.5513 22.4668 16.5981 22.3778 16.5531 22.3125C16.5139 22.2556 16.4298 22.2557 16.3907 22.3127C16.346 22.3781 16.3928 22.4668 16.472 22.4668Z" fill="white"/>
<path d="M27.0509 28.6815C26.0136 29.2818 24.8126 29.6309 23.5279 29.6309C22.2432 29.6309 21.0423 29.2819 20.0049 28.6816C18.9352 28.0625 18.0449 27.1722 17.4258 26.1025C16.8255 25.0652 16.4766 23.8642 16.4766 22.5796" stroke="white" stroke-width="1.8" stroke-linecap="round" stroke-linejoin="round"/>
</svg>
