<svg width="28" height="28" viewBox="0 0 28 28" fill="none" xmlns="http://www.w3.org/2000/svg">
<g clip-path="url(#clip0_1871_32336)">
<path d="M14 26.1928C20.7655 26.1928 26.25 20.7246 26.25 13.9792C26.25 7.23384 20.7655 1.76562 14 1.76562C7.23451 1.76562 1.75 7.23384 1.75 13.9792C1.75 20.7246 7.23451 26.1928 14 26.1928Z" fill="#FFC84D"/>
<path d="M12.9378 16.9637C13.9549 17.0526 14.7102 17.3116 15.1876 17.53C15.3927 17.6238 15.595 17.3963 15.4795 17.2031C15.1057 16.5815 14.363 15.731 13.0561 15.6176C11.7492 15.5042 10.8693 16.2119 10.3933 16.76C10.2456 16.9301 10.4052 17.1891 10.6236 17.1324C11.1325 17.0001 11.9214 16.8748 12.9378 16.9637Z" fill="#FF6D00"/>
<path d="M9.74775 7.58378C10.5836 7.65658 11.0491 7.88968 11.4439 8.10598C11.6714 8.23058 11.8695 8.06328 11.7729 7.80428C11.5636 7.24428 10.9371 6.60728 9.84225 6.51138C8.74745 6.41618 8.01875 6.93488 7.71565 7.45008C7.57495 7.68878 7.74085 7.88758 7.98655 7.80428C8.41285 7.66008 8.91265 7.51098 9.74775 7.58378Z" fill="black"/>
<path d="M16.9174 5.43143C16.0816 5.50423 15.6161 5.73733 15.2213 5.95363C14.9938 6.07823 14.7957 5.91093 14.8923 5.65193C15.1016 5.09193 15.7281 4.45493 16.8229 4.35903C17.9177 4.26383 18.6464 4.78253 18.9495 5.29773C19.0902 5.53643 18.9243 5.73523 18.6786 5.65193C18.2523 5.50773 17.7525 5.35863 16.9174 5.43143Z" fill="black"/>
<path d="M10.0369 12.2006C10.8986 12.2006 11.5972 11.5043 11.5972 10.6452C11.5972 9.78622 10.8986 9.08984 10.0369 9.08984C9.17513 9.08984 8.47656 9.78622 8.47656 10.6452C8.47656 11.5043 9.17513 12.2006 10.0369 12.2006Z" fill="black"/>
<path d="M16.5337 12.1999C17.3807 12.1999 18.0674 11.3892 18.0674 10.389C18.0674 9.38889 17.3807 8.57812 16.5337 8.57812C15.6867 8.57812 15 9.38889 15 10.389C15 11.3892 15.6867 12.1999 16.5337 12.1999Z" fill="black"/>
<path d="M5.58203 22.6935C5.58203 21.4636 5.69403 19.988 5.75003 19.169C5.79273 18.546 5.83613 17.3987 5.91523 16.8779C5.99643 16.341 6.30653 15.8867 6.90013 16.0876C7.46713 16.2801 7.75203 17.1082 7.75203 17.8215C7.75203 18.5348 7.80523 19.0108 8.23153 19.2278C8.65783 19.4448 9.18563 19.4154 10.0354 19.4154C10.8852 19.4154 13.8406 19.3559 15.3421 19.3559C15.6886 19.3559 16.2241 19.4056 16.4698 19.6492C16.7757 19.953 16.7141 20.5424 16.2584 20.744C15.5269 21.0674 13.8049 20.9932 13.3485 21.192C12.8921 21.3908 12.9278 21.7163 12.9005 22.2126C12.8676 22.8216 13.0111 24.4106 12.8676 25.0742C12.7052 25.8267 12.26 26.2411 11.5915 26.2411H8.71523C6.99673 26.2411 5.58273 24.545 5.58273 22.6935H5.58203Z" fill="#FF9210"/>
</g>
<defs>
<clipPath id="clip0_1871_32336">
<rect width="28" height="28" fill="white"/>
</clipPath>
</defs>
</svg>
