<svg width="30" height="31" viewBox="0 0 30 31" fill="none" xmlns="http://www.w3.org/2000/svg">
<circle cx="15.0017" cy="15.5017" r="12.8571" fill="#FF334B"/>
<path d="M14.9966 17.4268C14.491 17.4268 14.0774 17.0241 14.0638 16.5187L13.9183 11.1008C13.9137 10.9305 13.9388 10.7606 13.9924 10.5988C14.3139 9.62971 15.6849 9.62908 16.0064 10.5982C16.0602 10.7604 16.0852 10.9307 16.0805 11.1015L15.9294 16.5197C15.9153 17.0247 15.5018 17.4268 14.9966 17.4268ZM14.9995 20.8613C14.2378 20.8613 13.7617 20.4261 13.7617 19.7255C13.7617 19.0182 14.2378 18.583 14.9995 18.583C15.768 18.583 16.2373 19.0182 16.2373 19.7255C16.2373 20.4261 15.768 20.8613 14.9995 20.8613Z" fill="white"/>
</svg>
